<svg width="2515" height="1509" xmlns="http://www.w3.org/2000/svg" xmlns:xlink="http://www.w3.org/1999/xlink" xml:space="preserve" overflow="hidden"><g transform="translate(-957 -763)"><rect x="964" y="990" width="386" height="1171" stroke="#3E9288" stroke-width="13.75" stroke-miterlimit="8" fill="none"/><rect x="964" y="853" width="386" height="137" stroke="#3E9288" stroke-width="13.75" stroke-miterlimit="8" fill="none"/><text fill="#4D4D4D" font-family="Yu Gothic Medium,Yu Gothic Medium_MSFontService,sans-serif" font-weight="500" font-size="92" transform="matrix(1 0 0 1 1019.37 953)">入力層</text><path d="M1027.5 1188.5C1027.5 1116.7 1085.7 1058.5 1157.5 1058.5 1229.3 1058.5 1287.5 1116.7 1287.5 1188.5 1287.5 1260.3 1229.3 1318.5 1157.5 1318.5 1085.7 1318.5 1027.5 1260.3 1027.5 1188.5Z" stroke="#3E9288" stroke-width="9.16667" stroke-miterlimit="8" fill="none" fill-rule="evenodd"/><path d="M1027.5 1963.5C1027.5 1891.7 1085.7 1833.5 1157.5 1833.5 1229.3 1833.5 1287.5 1891.7 1287.5 1963.5 1287.5 2035.3 1229.3 2093.5 1157.5 2093.5 1085.7 2093.5 1027.5 2035.3 1027.5 1963.5Z" stroke="#3E9288" stroke-width="9.16667" stroke-miterlimit="8" fill="none" fill-rule="evenodd"/><text fill="#4D4D4D" font-family="Segoe UI,Segoe UI_MSFontService,sans-serif" font-weight="400" font-size="128" transform="matrix(6.12323e-17 1 -1 6.12323e-17 1145.17 1683)">…</text><path d="M1027.5 1496.5C1027.5 1424.7 1085.7 1366.5 1157.5 1366.5 1229.3 1366.5 1287.5 1424.7 1287.5 1496.5 1287.5 1568.3 1229.3 1626.5 1157.5 1626.5 1085.7 1626.5 1027.5 1568.3 1027.5 1496.5Z" stroke="#3E9288" stroke-width="9.16667" stroke-miterlimit="8" fill="none" fill-rule="evenodd"/><rect x="1574" y="914" width="386" height="1351" stroke="#3E9288" stroke-width="13.75" stroke-miterlimit="8" fill="none"/><rect x="1574" y="777" width="386" height="137" stroke="#3E9288" stroke-width="13.75" stroke-miterlimit="8" fill="none"/><text fill="#4D4D4D" font-family="Yu Gothic Medium,Yu Gothic Medium_MSFontService,sans-serif" font-weight="500" font-size="92" transform="matrix(1 0 0 1 1629.37 876)">中間層</text><path d="M1637.5 1111.5C1637.5 1039.7 1695.7 981.5 1767.5 981.5 1839.3 981.5 1897.5 1039.7 1897.5 1111.5 1897.5 1183.3 1839.3 1241.5 1767.5 1241.5 1695.7 1241.5 1637.5 1183.3 1637.5 1111.5Z" stroke="#3E9288" stroke-width="9.16667" stroke-miterlimit="8" fill="none" fill-rule="evenodd"/><path d="M1637.5 2093.5C1637.5 2021.7 1695.7 1963.5 1767.5 1963.5 1839.3 1963.5 1897.5 2021.7 1897.5 2093.5 1897.5 2165.3 1839.3 2223.5 1767.5 2223.5 1695.7 2223.5 1637.5 2165.3 1637.5 2093.5Z" stroke="#3E9288" stroke-width="9.16667" stroke-miterlimit="8" fill="none" fill-rule="evenodd"/><text fill="#4D4D4D" font-family="Segoe UI,Segoe UI_MSFontService,sans-serif" font-weight="400" font-size="128" transform="matrix(6.12323e-17 1 -1 6.12323e-17 1755.17 1655)">……</text><path d="M1637.5 1420.5C1637.5 1348.7 1695.7 1290.5 1767.5 1290.5 1839.3 1290.5 1897.5 1348.7 1897.5 1420.5 1897.5 1492.3 1839.3 1550.5 1767.5 1550.5 1695.7 1550.5 1637.5 1492.3 1637.5 1420.5Z" stroke="#3E9288" stroke-width="9.16667" stroke-miterlimit="8" fill="none" fill-rule="evenodd"/><rect x="2180" y="914" width="387" height="1351" stroke="#3E9288" stroke-width="13.75" stroke-miterlimit="8" fill="none"/><rect x="2180" y="777" width="387" height="137" stroke="#3E9288" stroke-width="13.75" stroke-miterlimit="8" fill="none"/><text fill="#4D4D4D" font-family="Yu Gothic Medium,Yu Gothic Medium_MSFontService,sans-serif" font-weight="500" font-size="92" transform="matrix(1 0 0 1 2235.9 876)">中間層</text><path d="M2243.5 1111.5C2243.5 1039.7 2301.7 981.5 2373.5 981.5 2445.3 981.5 2503.5 1039.7 2503.5 1111.5 2503.5 1183.3 2445.3 1241.5 2373.5 1241.5 2301.7 1241.5 2243.5 1183.3 2243.5 1111.5Z" stroke="#3E9288" stroke-width="9.16667" stroke-miterlimit="8" fill="none" fill-rule="evenodd"/><path d="M2243.5 2093.5C2243.5 2021.7 2301.7 1963.5 2373.5 1963.5 2445.3 1963.5 2503.5 2021.7 2503.5 2093.5 2503.5 2165.3 2445.3 2223.5 2373.5 2223.5 2301.7 2223.5 2243.5 2165.3 2243.5 2093.5Z" stroke="#3E9288" stroke-width="9.16667" stroke-miterlimit="8" fill="none" fill-rule="evenodd"/><text fill="#4D4D4D" font-family="Segoe UI,Segoe UI_MSFontService,sans-serif" font-weight="400" font-size="128" transform="matrix(6.12323e-17 1 -1 6.12323e-17 2361.69 1655)">……</text><path d="M2243.5 1420.5C2243.5 1348.7 2301.7 1290.5 2373.5 1290.5 2445.3 1290.5 2503.5 1348.7 2503.5 1420.5 2503.5 1492.3 2445.3 1550.5 2373.5 1550.5 2301.7 1550.5 2243.5 1492.3 2243.5 1420.5Z" stroke="#3E9288" stroke-width="9.16667" stroke-miterlimit="8" fill="none" fill-rule="evenodd"/><rect x="3079" y="990" width="386" height="1171" stroke="#3E9288" stroke-width="13.75" stroke-miterlimit="8" fill="none"/><rect x="3079" y="853" width="386" height="137" stroke="#3E9288" stroke-width="13.75" stroke-miterlimit="8" fill="none"/><text fill="#4D4D4D" font-family="Yu Gothic Medium,Yu Gothic Medium_MSFontService,sans-serif" font-weight="500" font-size="92" transform="matrix(1 0 0 1 3134.65 953)">出力</text><text fill="#4D4D4D" font-family="Yu Gothic Medium,Yu Gothic Medium_MSFontService,sans-serif" font-weight="500" font-size="92" transform="matrix(1 0 0 1 3317.98 953)">層</text><path d="M3142.5 1188.5C3142.5 1116.7 3200.7 1058.5 3272.5 1058.5 3344.3 1058.5 3402.5 1116.7 3402.5 1188.5 3402.5 1260.3 3344.3 1318.5 3272.5 1318.5 3200.7 1318.5 3142.5 1260.3 3142.5 1188.5Z" stroke="#3E9288" stroke-width="9.16667" stroke-miterlimit="8" fill="none" fill-rule="evenodd"/><path d="M3142.5 1963.5C3142.5 1891.7 3200.7 1833.5 3272.5 1833.5 3344.3 1833.5 3402.5 1891.7 3402.5 1963.5 3402.5 2035.3 3344.3 2093.5 3272.5 2093.5 3200.7 2093.5 3142.5 2035.3 3142.5 1963.5Z" stroke="#3E9288" stroke-width="9.16667" stroke-miterlimit="8" fill="none" fill-rule="evenodd"/><text fill="#4D4D4D" font-family="Segoe UI,Segoe UI_MSFontService,sans-serif" font-weight="400" font-size="128" transform="matrix(6.12323e-17 1 -1 6.12323e-17 3260.44 1683)">…</text><path d="M3142.5 1496.5C3142.5 1424.7 3200.7 1366.5 3272.5 1366.5 3344.3 1366.5 3402.5 1424.7 3402.5 1496.5 3402.5 1568.3 3344.3 1626.5 3272.5 1626.5 3200.7 1626.5 3142.5 1568.3 3142.5 1496.5Z" stroke="#3E9288" stroke-width="9.16667" stroke-miterlimit="8" fill="none" fill-rule="evenodd"/><text fill="#4D4D4D" font-family="Segoe UI,Segoe UI_MSFontService,sans-serif" font-weight="400" font-size="128" transform="matrix(1 0 0 1 2791.06 1536)">…</text><path d="M1157.5 1058.5 1157.5 1318.34" stroke="#3E9288" stroke-width="9.16667" stroke-miterlimit="8" fill="none" fill-rule="evenodd"/><path d="M1157.5 1366.5 1157.5 1626.34" stroke="#3E9288" stroke-width="9.16667" stroke-miterlimit="8" fill="none" fill-rule="evenodd"/><path d="M1157.5 1833.5 1157.5 2093.34" stroke="#3E9288" stroke-width="9.16667" stroke-miterlimit="8" fill="none" fill-rule="evenodd"/><path d="M1764.5 981.5 1764.5 1241.34" stroke="#3E9288" stroke-width="9.16667" stroke-miterlimit="8" fill="none" fill-rule="evenodd"/><path d="M1764.5 1290.5 1764.5 1550.34" stroke="#3E9288" stroke-width="9.16667" stroke-miterlimit="8" fill="none" fill-rule="evenodd"/><path d="M1764.5 1963.5 1764.5 2223.34" stroke="#3E9288" stroke-width="9.16667" stroke-miterlimit="8" fill="none" fill-rule="evenodd"/><path d="M2379.5 978.5 2379.5 1238.34" stroke="#3E9288" stroke-width="9.16667" stroke-miterlimit="8" fill="none" fill-rule="evenodd"/><path d="M2381.5 1290.5 2381.5 1550.34" stroke="#3E9288" stroke-width="9.16667" stroke-miterlimit="8" fill="none" fill-rule="evenodd"/><path d="M2379.5 1963.5 2379.5 2223.34" stroke="#3E9288" stroke-width="9.16667" stroke-miterlimit="8" fill="none" fill-rule="evenodd"/><path d="M3274.5 1058.5 3274.5 1318.34" stroke="#3E9288" stroke-width="9.16667" stroke-miterlimit="8" fill="none" fill-rule="evenodd"/><path d="M3274.5 1366.5 3274.5 1626.34" stroke="#3E9288" stroke-width="9.16667" stroke-miterlimit="8" fill="none" fill-rule="evenodd"/><path d="M3274.5 1833.5 3274.5 2093.34" stroke="#3E9288" stroke-width="9.16667" stroke-miterlimit="8" fill="none" fill-rule="evenodd"/><path d="M1098.5 1180.92 1126 1180.92 1126 1190.08 1098.5 1190.08ZM1135.17 1180.92 1162.67 1180.92 1162.67 1190.08 1135.17 1190.08ZM1171.83 1180.92 1199.33 1180.92 1199.33 1190.08 1171.83 1190.08ZM1199.4 1171.75 1226.9 1185.5 1199.4 1199.25Z" fill="#C03936"/><path d="M1098.5 1486.92 1126 1486.92 1126 1496.08 1098.5 1496.08ZM1135.17 1486.92 1162.67 1486.92 1162.67 1496.08 1135.17 1496.08ZM1171.83 1486.92 1199.33 1486.92 1199.33 1496.08 1171.83 1496.08ZM1199.4 1477.75 1226.9 1491.5 1199.4 1505.25Z" fill="#C03936"/><path d="M1098.5 1967.92 1126 1967.92 1126 1977.08 1098.5 1977.08ZM1135.17 1967.92 1162.67 1967.92 1162.67 1977.08 1135.17 1977.08ZM1171.83 1967.92 1199.33 1967.92 1199.33 1977.08 1171.83 1977.08ZM1199.4 1958.75 1226.9 1972.5 1199.4 1986.25Z" fill="#C03936"/><path d="M1710.5 1092.92 1738 1092.92 1738 1102.08 1710.5 1102.08ZM1747.17 1092.92 1774.67 1092.92 1774.67 1102.08 1747.17 1102.08ZM1783.83 1092.92 1811.33 1092.92 1811.33 1102.08 1783.83 1102.08ZM1811.4 1083.75 1838.9 1097.5 1811.4 1111.25Z" fill="#C03936"/><path d="M1710.5 1398.92 1738 1398.92 1738 1408.08 1710.5 1408.08ZM1747.17 1398.92 1774.67 1398.92 1774.67 1408.08 1747.17 1408.08ZM1783.83 1398.92 1811.33 1398.92 1811.33 1408.08 1783.83 1408.08ZM1811.4 1389.75 1838.9 1403.5 1811.4 1417.25Z" fill="#C03936"/><path d="M1708.5 2088.92 1736 2088.92 1736 2098.08 1708.5 2098.08ZM1745.17 2088.92 1772.67 2088.92 1772.67 2098.08 1745.17 2098.08ZM1781.83 2088.92 1809.33 2088.92 1809.33 2098.08 1781.83 2098.08ZM1809.4 2079.75 1836.9 2093.5 1809.4 2107.25Z" fill="#C03936"/><path d="M2315.5 1092.92 2343 1092.92 2343 1102.08 2315.5 1102.08ZM2352.17 1092.92 2379.67 1092.92 2379.67 1102.08 2352.17 1102.08ZM2388.83 1092.92 2416.33 1092.92 2416.33 1102.08 2388.83 1102.08ZM2416.4 1083.75 2443.9 1097.5 2416.4 1111.25Z" fill="#C03936"/><path d="M2315.5 1398.92 2343 1398.92 2343 1408.08 2315.5 1408.08ZM2352.17 1398.92 2379.67 1398.92 2379.67 1408.08 2352.17 1408.08ZM2388.83 1398.92 2416.33 1398.92 2416.33 1408.08 2388.83 1408.08ZM2416.4 1389.75 2443.9 1403.5 2416.4 1417.25Z" fill="#C03936"/><path d="M2313.5 2088.92 2341 2088.92 2341 2098.08 2313.5 2098.08ZM2350.17 2088.92 2377.67 2088.92 2377.67 2098.08 2350.17 2098.08ZM2386.83 2088.92 2414.33 2088.92 2414.33 2098.08 2386.83 2098.08ZM2414.4 2079.75 2441.9 2093.5 2414.4 2107.25Z" fill="#C03936"/><path d="M3213.5 1180.92 3241 1180.92 3241 1190.08 3213.5 1190.08ZM3250.17 1180.92 3277.67 1180.92 3277.67 1190.08 3250.17 1190.08ZM3286.83 1180.92 3314.33 1180.92 3314.33 1190.08 3286.83 1190.08ZM3314.4 1171.75 3341.9 1185.5 3314.4 1199.25Z" fill="#C03936"/><path d="M3213.5 1486.92 3241 1486.92 3241 1496.08 3213.5 1496.08ZM3250.17 1486.92 3277.67 1486.92 3277.67 1496.08 3250.17 1496.08ZM3286.83 1486.92 3314.33 1486.92 3314.33 1496.08 3286.83 1496.08ZM3314.4 1477.75 3341.9 1491.5 3314.4 1505.25Z" fill="#C03936"/><path d="M3213.5 1967.92 3241 1967.92 3241 1977.08 3213.5 1977.08ZM3250.17 1967.92 3277.67 1967.92 3277.67 1977.08 3250.17 1977.08ZM3286.83 1967.92 3314.33 1967.92 3314.33 1977.08 3286.83 1977.08ZM3314.4 1958.75 3341.9 1972.5 3314.4 1986.25Z" fill="#C03936"/><path d="M1.46581-6.71692 318.039 62.3676 315.107 75.8014-1.46581 6.71692ZM314.253 47.4679 350.157 76.4136 305.458 87.7694Z" fill="#3E3E3E" transform="matrix(1 0 0 -1 1287 1187.41)"/><path d="M1290.8 1182.27 1612.3 1395.33 1604.71 1406.79 1283.2 1193.73ZM1614.17 1380.07 1637.16 1420.05 1591.38 1414.45Z" fill="#3E3E3E"/><path d="M1293.41 1185.52 1631.17 2058.64 1618.34 2063.6 1280.59 1190.48ZM1641.51 2047.27 1637.16 2093.18 1603.04 2062.15Z" fill="#3E3E3E"/><path d="M5.0853-4.62659 332.11 354.821 321.939 364.075-5.0853 4.62659ZM337.654 340.482 350.157 384.874 307.142 368.242Z" fill="#3E3E3E" transform="matrix(1 0 0 -1 1287 1495.87)"/><path d="M1.46581-6.71692 318.039 62.3676 315.107 75.8014-1.46581 6.71692ZM314.253 47.4679 350.157 76.4136 305.458 87.7694Z" fill="#3E3E3E" transform="matrix(1 0 0 -1 1287 1496.41)"/><path d="M1292.93 1492.52 1625.69 2059.6 1613.83 2066.55 1281.07 1499.48ZM1634.07 2046.71 1637.16 2092.72 1598.49 2067.58Z" fill="#3E3E3E"/><path d="M6.35887-2.61351 343.332 817.268 330.614 822.495-6.35887 2.61351ZM353.436 805.681 350.04 851.675 315.282 821.362Z" fill="#3E3E3E" transform="matrix(1 0 0 -1 1287 1962.68)"/><path d="M5.77908-3.72396 337.199 510.595 325.641 518.043-5.77908 3.72396ZM345.033 497.368 350.04 543.214 310.359 519.712Z" fill="#3E3E3E" transform="matrix(1 0 0 -1 1287 1963.21)"/><path d="M1289.39 1956.55 1607.21 2074.51 1602.42 2087.41 1284.61 1969.45ZM1605.54 2059.23 1637.04 2092.92 1591.19 2097.9Z" fill="#3E3E3E"/><path d="M1897 1104.12 2209.31 1104.13 2209.31 1117.88 1897 1117.88ZM2202.43 1090.38 2243.68 1111 2202.43 1131.63Z" fill="#3E3E3E"/><path d="M1897 1413.12 2209.31 1413.13 2209.31 1426.88 1897 1426.88ZM2202.43 1399.38 2243.68 1420 2202.43 1440.63Z" fill="#3E3E3E"/><path d="M1897 2086.12 2209.31 2086.13 2209.31 2099.88 1897 2099.88ZM2202.43 2072.38 2243.68 2093 2202.43 2113.63Z" fill="#3E3E3E"/><path d="M1901.57 1105.86 2222.57 1391.47 2213.43 1401.75 1892.43 1116.14ZM2226.57 1376.63 2243.68 1419.46 2199.15 1407.45Z" fill="#3E3E3E"/><path d="M1903.48 1108.71 2238.72 2057.89 2225.75 2062.47 1890.52 1113.29ZM2249.39 2046.83 2243.68 2092.6 2210.5 2060.57Z" fill="#3E3E3E"/><path d="M4.56998-5.13623 325.569 280.474 316.429 290.747-4.56998 5.13623ZM329.573 265.632 346.68 308.461 302.153 296.449Z" fill="#3E3E3E" transform="matrix(1 0 0 -1 1897 1419.46)"/><path d="M1903.11 1416.85 2234.05 2059.43 2221.83 2065.72 1890.89 1423.15ZM2243.13 2047.02 2243.68 2093.14 2206.46 2065.91Z" fill="#3E3E3E"/><path d="M6.48257-2.28952 341.716 946.894 328.75 951.473-6.48257 2.28952ZM352.391 935.832 346.68 981.596 313.496 949.569Z" fill="#3E3E3E" transform="matrix(1 0 0 -1 1897 2092.6)"/><path d="M6.11202-3.14783 337.053 639.427 324.829 645.723-6.11202 3.14783ZM346.13 627.02 346.68 673.136 309.457 645.907Z" fill="#3E3E3E" transform="matrix(1 0 0 -1 1897 2093.14)"/><path d="M2928 1181.12 3107.71 1181.13 3107.71 1194.88 2928 1194.88ZM3100.83 1167.38 3142.08 1188 3100.83 1208.63Z" fill="#3E3E3E"/><path d="M3.5668-5.87738 188.264 106.21 181.131 117.965-3.5668 5.87738ZM189.52 90.8883 214.084 129.921 168.12 126.153Z" fill="#3E3E3E" transform="matrix(1 0 0 -1 2928 1317.92)"/><path d="M5.34508-4.32386 203.523 240.661 192.833 249.308-5.34508 4.32386ZM209.89 226.668 219.798 271.71 177.819 252.611Z" fill="#3E3E3E" transform="matrix(1 0 0 -1 2922 1459.71)"/><path d="M2939.36 1231.7 3126.23 1464.72 3115.5 1473.33 2928.64 1240.3ZM3132.66 1450.76 3142.37 1495.84 3100.47 1476.56Z" fill="#3E3E3E"/><path d="M2931 1491.13 3110.71 1491.13 3110.71 1504.88 2931 1504.88ZM3103.83 1477.38 3145.08 1498 3103.83 1518.63Z" fill="#3E3E3E"/><path d="M5.55678-4.04819 199.4 262.032 188.286 270.128-5.55678 4.04819ZM206.465 248.379 214.084 293.864 173.125 272.668Z" fill="#3E3E3E" transform="matrix(1 0 0 -1 2928 1789.86)"/><path d="M2939.65 1659.08 3128.52 1930.98 3117.23 1938.82 2928.35 1666.92ZM3135.89 1917.48 3142.49 1963.13 3102.02 1941.02Z" fill="#3E3E3E"/><path d="M2934 1957.12 3113.71 1957.13 3113.71 1970.88 2934 1970.87ZM3106.83 1943.38 3148.08 1964 3106.83 1984.63Z" fill="#3E3E3E"/><path d="M2939.09 1728.38 3124.47 1932.48 3114.29 1941.72 2928.91 1737.62ZM3130.02 1918.15 3142.49 1962.55 3099.49 1945.88Z" fill="#3E3E3E"/></g></svg>