<svg width="1678" height="1041" xmlns="http://www.w3.org/2000/svg" xmlns:xlink="http://www.w3.org/1999/xlink" xml:space="preserve" overflow="hidden"><g transform="translate(-943 -861)"><path d="M1698.5 1378C1698.5 1331.33 1736.11 1293.5 1782.5 1293.5 1828.89 1293.5 1866.5 1331.33 1866.5 1378 1866.5 1424.67 1828.89 1462.5 1782.5 1462.5 1736.11 1462.5 1698.5 1424.67 1698.5 1378Z" stroke="#4D4D4D" stroke-width="9.16667" stroke-miterlimit="8" fill="none" fill-rule="evenodd"/><path d="M6.875-7.8115e-06 6.87532 283.251-6.87468 283.251-6.875 7.8115e-06ZM20.6253 276.376 0.000360892 317.626-20.6247 276.376Z" fill="#3E3E3E" transform="matrix(1 0 0 -1 1782 1292.63)"/><path d="M1866 1370.13 2151.53 1370.13 2151.53 1383.88 1866 1383.88ZM2144.66 1356.38 2185.91 1377 2144.66 1397.63Z" fill="#3E3E3E"/><path d="M1788.88 1462 1788.88 1750.47 1775.13 1750.47 1775.12 1462ZM1802.63 1743.59 1782 1784.84 1761.38 1743.59Z" fill="#3E3E3E"/><path d="M7.41561e-06-6.875 300.208-6.87468 300.208 6.87532-7.41561e-06 6.875ZM293.333-20.6247 334.583 0.000360892 293.333 20.6253Z" fill="#3E3E3E" transform="matrix(-1 0 0 1 1697.58 1377)"/><path d="M4.83718-4.88542 315.378 302.589 305.703 312.36-4.83718 4.88542ZM320.167 287.981 334.968 331.66 291.144 317.293Z" fill="#3E3E3E" transform="matrix(1 0 0 -1 1842 1317.66)"/><path d="M1846.94 1432.22 2150.51 1746.48 2140.62 1756.03 1837.06 1441.78ZM2155.62 1731.98 2169.44 1775.98 2125.95 1760.64Z" fill="#3E3E3E"/><path d="M4.7136-5.00476 329.332 300.729 319.905 310.739-4.7136 5.00476ZM333.755 286.006 349.643 329.302 305.473 316.035Z" fill="#3E3E3E" transform="matrix(-1 0 0 1 1722.64 1437)"/><path d="M1717.87 1322.61 1398 1014.79 1407.54 1004.88 1727.41 1312.71ZM1393.42 1029.46 1378 986 1422.02 999.742Z" fill="#3E3E3E"/><path d="M1891.36 1303.97C1893.69 1303.97 1895.49 1304.61 1896.76 1305.9 1898.03 1307.18 1898.66 1308.8 1898.66 1310.74 1898.66 1311.93 1898.53 1313.17 1898.27 1314.45L1895.95 1325.32C1895.74 1326.58 1895.56 1327.81 1895.42 1328.99 1895.28 1330.18 1895.21 1331.24 1895.21 1332.17 1895.21 1333.07 1895.27 1333.81 1895.38 1334.38 1895.5 1334.95 1895.66 1335.23 1895.85 1335.23 1896.51 1335.23 1897.37 1334.92 1898.43 1334.3 1899.49 1333.69 1900.63 1332.83 1901.85 1331.74 1903.08 1330.65 1904.3 1329.36 1905.53 1327.89 1906.75 1326.42 1907.85 1324.82 1908.84 1323.11 1909.83 1321.4 1910.62 1319.59 1911.23 1317.68 1911.83 1315.76 1912.14 1313.83 1912.14 1311.88 1912.14 1310.93 1911.95 1310.2 1911.59 1309.67 1911.22 1309.15 1910.64 1308.89 1909.86 1308.89 1908.98 1308.89 1908.16 1309.22 1907.41 1309.87 1906.67 1310.52 1905.9 1311.4 1905.12 1312.49L1902.62 1310.49C1904.12 1308.43 1905.79 1306.82 1907.63 1305.68 1909.47 1304.54 1911.52 1303.97 1913.78 1303.97 1916.01 1303.97 1917.59 1304.55 1918.52 1305.7 1919.44 1306.85 1919.91 1308.39 1919.91 1310.32 1919.91 1311.43 1919.69 1312.72 1919.27 1314.18 1918.84 1315.64 1918.22 1317.18 1917.41 1318.8 1916.6 1320.42 1915.65 1322.08 1914.56 1323.79 1913.47 1325.5 1912.26 1327.16 1910.93 1328.76 1909.59 1330.37 1908.18 1331.88 1906.67 1333.31 1905.16 1334.73 1903.59 1335.97 1901.96 1337.03 1900.33 1338.09 1898.68 1338.93 1897.01 1339.54 1895.33 1340.16 1893.65 1340.47 1891.96 1340.47 1890.7 1340.47 1889.67 1340.3 1888.86 1339.95 1888.05 1339.61 1887.47 1339.12 1887.1 1338.49 1886.73 1337.86 1886.49 1337.13 1886.37 1336.28 1886.25 1335.44 1886.19 1334.52 1886.19 1333.52 1886.19 1332.14 1886.27 1330.69 1886.44 1329.15 1886.6 1327.62 1886.82 1326.08 1887.08 1324.54L1889.25 1314.45C1889.4 1313.83 1889.52 1313.27 1889.61 1312.76 1889.71 1312.25 1889.75 1311.84 1889.75 1311.53 1889.75 1310.82 1889.6 1310.25 1889.31 1309.83 1889.01 1309.42 1888.4 1309.21 1887.47 1309.21 1886 1309.21 1883.9 1310.46 1881.16 1312.95L1878.95 1310.46C1880.07 1309.06 1881.74 1307.62 1883.96 1306.16 1886.18 1304.7 1888.65 1303.97 1891.36 1303.97Z" fill="#4D4D4D" fill-rule="evenodd"/><text fill="#000000" fill-opacity="0" font-family="Arial,Arial_MSFontService,sans-serif" font-size="36.5" x="1878.95" y="1335.91">𝒗</text><path d="M1947.57 1324.07 1991.49 1324.07 1991.49 1328.82 1947.57 1328.82ZM1947.57 1309.28 1991.49 1309.28 1991.49 1314.02 1947.57 1314.02Z" fill="#4D4D4D" fill-rule="evenodd"/><text fill="#000000" fill-opacity="0" font-family="Arial,Arial_MSFontService,sans-serif" font-size="19.5332" x="1947.57" y="1326.37">=</text><path d="M2045.62 1288.39 2046.58 1291.14C2041.02 1292.97 2036.9 1296.54 2034.23 1301.85 2031.56 1307.16 2030.22 1313.83 2030.22 1321.86 2030.22 1330.18 2031.56 1337.04 2034.23 1342.43 2036.9 1347.83 2040.98 1351.44 2046.47 1353.27L2045.62 1356.01C2038.66 1354.18 2033.32 1350.24 2029.61 1344.2 2025.91 1338.15 2024.05 1330.82 2024.05 1322.22 2024.05 1313.64 2025.91 1306.32 2029.63 1300.25 2033.35 1294.18 2038.68 1290.22 2045.62 1288.39Z" fill="#4D4D4D" fill-rule="evenodd"/><text fill="#000000" fill-opacity="0" font-family="Arial,Arial_MSFontService,sans-serif" font-size="67.6177" x="2024.05" y="1347.56">(</text><path d="M2068.21 1293.71C2066.57 1293.71 2065.2 1294.19 2064.09 1295.17 2062.99 1296.14 2062.1 1297.54 2061.42 1299.37 2060.74 1301.2 2060.26 1303.43 2059.98 1306.06 2059.69 1308.68 2059.55 1311.65 2059.55 1314.95 2059.55 1322.7 2060.27 1328.38 2061.71 1332.01 2063.14 1335.63 2065.37 1337.44 2068.39 1337.44 2071.27 1337.44 2073.4 1335.74 2074.79 1332.33 2076.18 1328.92 2076.87 1323.64 2076.87 1316.48 2076.87 1311.02 2076.52 1306.59 2075.8 1303.2 2075.09 1299.82 2074.1 1297.39 2072.83 1295.92 2071.56 1294.44 2070.02 1293.71 2068.21 1293.71ZM2068.39 1290.68C2073.59 1290.68 2077.47 1292.68 2080.01 1296.7 2082.55 1300.72 2083.82 1306.79 2083.82 1314.91 2083.82 1323.33 2082.46 1329.69 2079.74 1334 2077.02 1338.31 2073.05 1340.47 2067.82 1340.47 2062.69 1340.47 2058.87 1338.45 2056.36 1334.41 2053.85 1330.37 2052.6 1324.24 2052.6 1316.02 2052.6 1311.65 2052.99 1307.87 2053.76 1304.68 2054.53 1301.5 2055.61 1298.87 2057 1296.79 2058.39 1294.71 2060.06 1293.17 2062.01 1292.17 2063.96 1291.17 2066.08 1290.68 2068.39 1290.68Z" fill="#4D4D4D" fill-rule="evenodd"/><text fill="#000000" fill-opacity="0" font-family="Arial,Arial_MSFontService,sans-serif" font-size="49.7954" x="2052.6" y="1334.25">0</text><path d="M2093.45 1331.63 2099.69 1331.63C2100.03 1333.29 2100.19 1334.93 2100.19 1336.55 2100.19 1338.21 2099.91 1339.73 2099.34 1341.11 2098.77 1342.49 2097.86 1343.86 2096.61 1345.23 2095.36 1346.6 2093.64 1348.1 2091.46 1349.74L2089.53 1347.56C2090.75 1346.42 2091.62 1345.4 2092.17 1344.48 2092.72 1343.57 2093.11 1342.53 2093.35 1341.36 2093.59 1340.2 2093.7 1338.74 2093.7 1336.98 2093.7 1335.17 2093.62 1333.39 2093.45 1331.63Z" fill="#4D4D4D" fill-rule="evenodd"/><text fill="#000000" fill-opacity="0" font-family="Arial,Arial_MSFontService,sans-serif" font-size="18.1074" x="2089.53" y="1347.48">,</text><path d="M2123.78 1293.71C2122.15 1293.71 2120.77 1294.19 2119.67 1295.17 2118.56 1296.14 2117.67 1297.54 2116.99 1299.37 2116.32 1301.2 2115.84 1303.43 2115.55 1306.06 2115.27 1308.68 2115.12 1311.65 2115.12 1314.95 2115.12 1322.7 2115.84 1328.38 2117.28 1332.01 2118.72 1335.63 2120.95 1337.44 2123.96 1337.44 2126.84 1337.44 2128.97 1335.74 2130.36 1332.33 2131.75 1328.92 2132.45 1323.64 2132.45 1316.48 2132.45 1311.02 2132.09 1306.59 2131.38 1303.2 2130.66 1299.82 2129.67 1297.39 2128.4 1295.92 2127.13 1294.44 2125.59 1293.71 2123.78 1293.71ZM2123.96 1290.68C2129.17 1290.68 2133.04 1292.68 2135.58 1296.7 2138.13 1300.72 2139.4 1306.79 2139.4 1314.91 2139.4 1323.33 2138.04 1329.69 2135.32 1334 2132.59 1338.31 2128.62 1340.47 2123.39 1340.47 2118.26 1340.47 2114.44 1338.45 2111.93 1334.41 2109.43 1330.37 2108.17 1324.24 2108.17 1316.02 2108.17 1311.65 2108.56 1307.87 2109.33 1304.68 2110.1 1301.5 2111.18 1298.87 2112.57 1296.79 2113.96 1294.71 2115.63 1293.17 2117.58 1292.17 2119.53 1291.17 2121.66 1290.68 2123.96 1290.68Z" fill="#4D4D4D" fill-rule="evenodd"/><text fill="#000000" fill-opacity="0" font-family="Arial,Arial_MSFontService,sans-serif" font-size="49.7954" x="2108.17" y="1334.25">0</text><path d="M2146.57 1288.39C2153.51 1290.22 2158.84 1294.18 2162.55 1300.25 2166.27 1306.32 2168.13 1313.64 2168.13 1322.22 2168.13 1330.82 2166.28 1338.15 2162.57 1344.2 2158.87 1350.24 2153.53 1354.18 2146.57 1356.01L2145.71 1353.27C2151.2 1351.44 2155.28 1347.83 2157.96 1342.43 2160.63 1337.04 2161.97 1330.18 2161.97 1321.86 2161.97 1313.83 2160.64 1307.16 2157.97 1301.85 2155.31 1296.54 2151.19 1292.97 2145.61 1291.14Z" fill="#4D4D4D" fill-rule="evenodd"/><text fill="#000000" fill-opacity="0" font-family="Arial,Arial_MSFontService,sans-serif" font-size="67.6177" x="2145.61" y="1347.56">)</text><path d="M2214.13 1362.02C2216.46 1362.02 2218.26 1362.66 2219.53 1363.94 2220.8 1365.23 2221.44 1366.84 2221.44 1368.79 2221.44 1369.98 2221.31 1371.22 2221.04 1372.5L2218.73 1383.37C2218.51 1384.63 2218.34 1385.85 2218.19 1387.04 2218.05 1388.23 2217.98 1389.29 2217.98 1390.21 2217.98 1391.12 2218.04 1391.85 2218.16 1392.42 2218.28 1392.99 2218.43 1393.28 2218.62 1393.28 2219.29 1393.28 2220.15 1392.97 2221.21 1392.35 2222.26 1391.74 2223.4 1390.88 2224.63 1389.79 2225.85 1388.69 2227.07 1387.41 2228.3 1385.94 2229.52 1384.46 2230.63 1382.87 2231.61 1381.16 2232.6 1379.45 2233.4 1377.64 2234 1375.73 2234.61 1373.81 2234.91 1371.88 2234.91 1369.93 2234.91 1368.98 2234.73 1368.25 2234.36 1367.72 2233.99 1367.2 2233.41 1366.94 2232.63 1366.94 2231.75 1366.94 2230.94 1367.27 2230.19 1367.92 2229.44 1368.57 2228.67 1369.45 2227.89 1370.54L2225.39 1368.54C2226.89 1366.48 2228.56 1364.87 2230.4 1363.73 2232.24 1362.59 2234.29 1362.02 2236.55 1362.02 2238.78 1362.02 2240.36 1362.6 2241.29 1363.75 2242.22 1364.9 2242.68 1366.44 2242.68 1368.36 2242.68 1369.48 2242.47 1370.77 2242.04 1372.23 2241.61 1373.69 2240.99 1375.23 2240.19 1376.85 2239.38 1378.46 2238.43 1380.13 2237.33 1381.84 2236.24 1383.55 2235.03 1385.21 2233.7 1386.81 2232.37 1388.41 2230.95 1389.93 2229.44 1391.36 2227.93 1392.78 2226.36 1394.02 2224.73 1395.08 2223.11 1396.14 2221.45 1396.98 2219.78 1397.59 2218.1 1398.21 2216.42 1398.52 2214.74 1398.52 2213.48 1398.52 2212.44 1398.35 2211.63 1398 2210.83 1397.66 2210.24 1397.17 2209.87 1396.54 2209.5 1395.91 2209.26 1395.18 2209.14 1394.33 2209.02 1393.49 2208.96 1392.57 2208.96 1391.57 2208.96 1390.19 2209.04 1388.74 2209.21 1387.2 2209.38 1385.67 2209.59 1384.13 2209.85 1382.59L2212.03 1372.5C2212.17 1371.88 2212.29 1371.32 2212.38 1370.81 2212.48 1370.3 2212.53 1369.89 2212.53 1369.58 2212.53 1368.86 2212.38 1368.3 2212.08 1367.88 2211.78 1367.47 2211.17 1367.26 2210.24 1367.26 2208.77 1367.26 2206.67 1368.51 2203.94 1371L2201.73 1368.51C2202.84 1367.11 2204.51 1365.67 2206.73 1364.21 2208.96 1362.75 2211.42 1362.02 2214.13 1362.02Z" fill="#4D4D4D" fill-rule="evenodd"/><text fill="#000000" fill-opacity="0" font-family="Arial,Arial_MSFontService,sans-serif" font-size="36.5" x="2201.73" y="1393.96">𝒗</text><path d="M2270.35 1382.12 2314.26 1382.12 2314.26 1386.86 2270.35 1386.86ZM2270.35 1367.33 2314.26 1367.33 2314.26 1372.07 2270.35 1372.07Z" fill="#4D4D4D" fill-rule="evenodd"/><text fill="#000000" fill-opacity="0" font-family="Arial,Arial_MSFontService,sans-serif" font-size="19.5332" x="2270.35" y="1384.42">=</text><path d="M2368.39 1346.44 2369.35 1349.19C2363.79 1351.02 2359.68 1354.59 2357 1359.9 2354.33 1365.21 2352.99 1371.88 2352.99 1379.91 2352.99 1388.23 2354.33 1395.09 2357 1400.48 2359.68 1405.87 2363.76 1409.49 2369.25 1411.32L2368.39 1414.06C2361.43 1412.23 2356.09 1408.29 2352.39 1402.24 2348.68 1396.2 2346.83 1388.87 2346.83 1380.27 2346.83 1371.69 2348.68 1364.37 2352.4 1358.29 2356.12 1352.22 2361.45 1348.27 2368.39 1346.44Z" fill="#4D4D4D" fill-rule="evenodd"/><text fill="#000000" fill-opacity="0" font-family="Arial,Arial_MSFontService,sans-serif" font-size="67.6177" x="2346.83" y="1405.61">(</text><path d="M2393.8 1348.72 2395.76 1348.72C2395.62 1351.01 2395.55 1354.17 2395.55 1358.21L2395.55 1388.65C2395.55 1390.02 2395.62 1391.06 2395.78 1391.77 2395.93 1392.47 2396.21 1393.04 2396.6 1393.48 2396.99 1393.92 2397.55 1394.26 2398.29 1394.51 2399.03 1394.76 2399.95 1394.95 2401.07 1395.08 2402.19 1395.21 2403.66 1395.3 2405.49 1395.35L2405.49 1397.95 2379.15 1397.95 2379.15 1395.35C2381.79 1395.23 2383.67 1395.07 2384.8 1394.87 2385.93 1394.66 2386.79 1394.36 2387.38 1393.96 2387.98 1393.55 2388.41 1392.98 2388.69 1392.25 2388.96 1391.51 2389.1 1390.31 2389.1 1388.65L2389.1 1359.74C2389.1 1358.79 2388.93 1358.09 2388.6 1357.65 2388.26 1357.21 2387.78 1356.99 2387.13 1356.99 2386.37 1356.99 2385.29 1357.39 2383.89 1358.17 2382.49 1358.95 2380.75 1360.04 2378.69 1361.41L2377.12 1358.67Z" fill="#4D4D4D" fill-rule="evenodd"/><text fill="#000000" fill-opacity="0" font-family="Arial,Arial_MSFontService,sans-serif" font-size="49.2251" x="2377.12" y="1391.8">1</text><path d="M2416.23 1389.68 2422.47 1389.68C2422.8 1391.34 2422.96 1392.98 2422.96 1394.6 2422.96 1396.26 2422.68 1397.78 2422.11 1399.16 2421.54 1400.54 2420.63 1401.91 2419.38 1403.28 2418.13 1404.64 2416.42 1406.15 2414.23 1407.79L2412.31 1405.61C2413.52 1404.47 2414.4 1403.44 2414.94 1402.53 2415.49 1401.61 2415.88 1400.58 2416.12 1399.41 2416.36 1398.25 2416.48 1396.79 2416.48 1395.03 2416.48 1393.22 2416.39 1391.44 2416.23 1389.68Z" fill="#4D4D4D" fill-rule="evenodd"/><text fill="#000000" fill-opacity="0" font-family="Arial,Arial_MSFontService,sans-serif" font-size="18.1074" x="2412.31" y="1405.52">,</text><path d="M2446.56 1351.75C2444.92 1351.75 2443.55 1352.24 2442.44 1353.22 2441.34 1354.19 2440.44 1355.59 2439.77 1357.42 2439.09 1359.25 2438.61 1361.48 2438.32 1364.1 2438.04 1366.73 2437.9 1369.7 2437.9 1373 2437.9 1380.74 2438.61 1386.43 2440.05 1390.05 2441.49 1393.68 2443.72 1395.49 2446.74 1395.49 2449.61 1395.49 2451.74 1393.79 2453.13 1390.38 2454.52 1386.96 2455.22 1381.68 2455.22 1374.53 2455.22 1369.07 2454.86 1364.64 2454.15 1361.25 2453.44 1357.87 2452.44 1355.44 2451.17 1353.96 2449.9 1352.49 2448.36 1351.75 2446.56 1351.75ZM2446.74 1348.72C2451.94 1348.72 2455.81 1350.73 2458.36 1354.75 2460.9 1358.76 2462.17 1364.84 2462.17 1372.96 2462.17 1381.37 2460.81 1387.74 2458.09 1392.05 2455.37 1396.36 2451.39 1398.52 2446.17 1398.52 2441.03 1398.52 2437.21 1396.5 2434.71 1392.46 2432.2 1388.42 2430.95 1382.29 2430.95 1374.07 2430.95 1369.7 2431.33 1365.92 2432.1 1362.73 2432.88 1359.55 2433.96 1356.92 2435.35 1354.84 2436.74 1352.76 2438.41 1351.22 2440.36 1350.22 2442.3 1349.22 2444.43 1348.72 2446.74 1348.72Z" fill="#4D4D4D" fill-rule="evenodd"/><text fill="#000000" fill-opacity="0" font-family="Arial,Arial_MSFontService,sans-serif" font-size="49.7954" x="2430.95" y="1392.3">0</text><path d="M2469.34 1346.44C2476.28 1348.27 2481.61 1352.22 2485.33 1358.29 2489.05 1364.37 2490.91 1371.69 2490.91 1380.27 2490.91 1388.87 2489.05 1396.2 2485.35 1402.24 2481.64 1408.29 2476.3 1412.23 2469.34 1414.06L2468.49 1411.32C2473.97 1409.49 2478.06 1405.87 2480.73 1400.48 2483.4 1395.09 2484.74 1388.23 2484.74 1379.91 2484.74 1371.88 2483.41 1365.21 2480.75 1359.9 2478.09 1354.59 2473.96 1351.02 2468.38 1349.19Z" fill="#4D4D4D" fill-rule="evenodd"/><text fill="#000000" fill-opacity="0" font-family="Arial,Arial_MSFontService,sans-serif" font-size="67.6177" x="2468.38" y="1405.61">)</text><path d="M2168.06 913.008C2170.39 913.008 2172.19 913.65 2173.46 914.933 2174.73 916.216 2175.37 917.832 2175.37 919.78 2175.37 920.969 2175.24 922.204 2174.97 923.487L2172.66 934.359C2172.44 935.618 2172.27 936.842 2172.12 938.03 2171.98 939.219 2171.91 940.276 2171.91 941.203 2171.91 942.106 2171.97 942.842 2172.09 943.413 2172.21 943.983 2172.36 944.268 2172.55 944.268 2173.22 944.268 2174.08 943.959 2175.13 943.341 2176.19 942.724 2177.33 941.868 2178.56 940.775 2179.78 939.682 2181 938.399 2182.23 936.925 2183.45 935.452 2184.56 933.86 2185.54 932.149 2186.53 930.438 2187.32 928.626 2187.93 926.713 2188.54 924.8 2188.84 922.87 2188.84 920.921 2188.84 919.971 2188.66 919.234 2188.29 918.711 2187.92 918.188 2187.34 917.927 2186.56 917.927 2185.68 917.927 2184.87 918.254 2184.12 918.907 2183.37 919.561 2182.6 920.434 2181.82 921.527L2179.32 919.531C2180.82 917.464 2182.49 915.859 2184.33 914.719 2186.17 913.578 2188.22 913.008 2190.48 913.008 2192.71 913.008 2194.29 913.584 2195.22 914.737 2196.15 915.889 2196.61 917.428 2196.61 919.353 2196.61 920.47 2196.4 921.759 2195.97 923.22 2195.54 924.682 2194.92 926.22 2194.12 927.836 2193.31 929.452 2192.36 931.115 2191.26 932.826 2190.17 934.537 2188.96 936.195 2187.63 937.799 2186.3 939.403 2184.88 940.918 2183.37 942.343 2181.86 943.769 2180.29 945.011 2178.66 946.068 2177.04 947.126 2175.38 947.963 2173.71 948.581 2172.03 949.199 2170.35 949.508 2168.67 949.508 2167.41 949.508 2166.37 949.336 2165.56 948.991 2164.76 948.647 2164.17 948.159 2163.8 947.53 2163.43 946.9 2163.19 946.163 2163.07 945.32 2162.95 944.476 2162.89 943.555 2162.89 942.557 2162.89 941.179 2162.97 939.724 2163.14 938.191 2163.31 936.658 2163.52 935.119 2163.78 933.575L2165.96 923.487C2166.1 922.87 2166.22 922.305 2166.31 921.794 2166.41 921.283 2166.46 920.873 2166.46 920.565 2166.46 919.852 2166.31 919.287 2166.01 918.871 2165.71 918.456 2165.1 918.248 2164.17 918.248 2162.7 918.248 2160.6 919.495 2157.86 921.99L2155.65 919.495C2156.77 918.093 2158.44 916.661 2160.66 915.2 2162.88 913.739 2165.35 913.008 2168.06 913.008Z" fill="#4D4D4D" fill-rule="evenodd"/><text fill="#000000" fill-opacity="0" font-family="Arial,Arial_MSFontService,sans-serif" font-size="36.5" x="2155.65" y="944.945">𝒗</text><path d="M2224.28 933.111 2268.19 933.111 2268.19 937.852 2224.28 937.852ZM2224.28 918.319 2268.19 918.319 2268.19 923.06 2224.28 923.06Z" fill="#4D4D4D" fill-rule="evenodd"/><text fill="#000000" fill-opacity="0" font-family="Arial,Arial_MSFontService,sans-serif" font-size="19.5332" x="2224.28" y="935.411">=</text><path d="M2322.32 897.431 2323.28 900.176C2317.72 902.006 2313.6 905.576 2310.93 910.887 2308.26 916.198 2306.92 922.87 2306.92 930.901 2306.92 939.219 2308.26 946.074 2310.93 951.468 2313.6 956.863 2317.69 960.475 2323.18 962.304L2322.32 965.049C2315.36 963.219 2310.02 959.28 2306.32 953.233 2302.61 947.185 2300.75 939.86 2300.75 931.258 2300.75 922.68 2302.61 915.355 2306.33 909.283 2310.05 903.212 2315.38 899.261 2322.32 897.431Z" fill="#4D4D4D" fill-rule="evenodd"/><text fill="#000000" fill-opacity="0" font-family="Arial,Arial_MSFontService,sans-serif" font-size="67.6177" x="2300.75" y="956.597">(</text><path d="M2347.73 899.713 2349.69 899.713C2349.55 901.994 2349.48 905.154 2349.48 909.194L2349.48 939.634C2349.48 941.013 2349.55 942.052 2349.71 942.753 2349.86 943.454 2350.14 944.025 2350.53 944.464 2350.92 944.904 2351.48 945.248 2352.22 945.498 2352.96 945.747 2353.88 945.938 2355 946.068 2356.12 946.199 2357.59 946.288 2359.42 946.336L2359.42 948.938 2333.08 948.938 2333.08 946.336C2335.72 946.217 2337.6 946.056 2338.73 945.854 2339.86 945.652 2340.72 945.349 2341.31 944.945 2341.91 944.541 2342.34 943.971 2342.61 943.234 2342.89 942.498 2343.02 941.298 2343.02 939.634L2343.02 910.727C2343.02 909.776 2342.86 909.081 2342.53 908.641 2342.19 908.202 2341.71 907.982 2341.06 907.982 2340.3 907.982 2339.22 908.374 2337.82 909.158 2336.42 909.943 2334.68 911.024 2332.62 912.402L2331.05 909.657Z" fill="#4D4D4D" fill-rule="evenodd"/><text fill="#000000" fill-opacity="0" font-family="Arial,Arial_MSFontService,sans-serif" font-size="49.2251" x="2331.05" y="942.784">1</text><path d="M2370.16 940.668 2376.39 940.668C2376.73 942.331 2376.89 943.971 2376.89 945.587 2376.89 947.25 2376.61 948.771 2376.04 950.15 2375.47 951.528 2374.56 952.9 2373.31 954.266 2372.06 955.633 2370.35 957.136 2368.16 958.776L2366.24 956.601C2367.45 955.461 2368.33 954.433 2368.87 953.518 2369.42 952.603 2369.81 951.563 2370.05 950.399 2370.29 949.235 2370.41 947.773 2370.41 946.015 2370.41 944.209 2370.32 942.427 2370.16 940.668Z" fill="#4D4D4D" fill-rule="evenodd"/><text fill="#000000" fill-opacity="0" font-family="Arial,Arial_MSFontService,sans-serif" font-size="18.1074" x="2366.24" y="956.512">,</text><path d="M2403.3 899.713 2405.26 899.713C2405.12 901.994 2405.05 905.154 2405.05 909.194L2405.05 939.634C2405.05 941.013 2405.13 942.052 2405.28 942.753 2405.44 943.454 2405.71 944.025 2406.1 944.464 2406.49 944.904 2407.06 945.248 2407.79 945.498 2408.53 945.747 2409.46 945.938 2410.57 946.068 2411.69 946.199 2413.16 946.288 2414.99 946.336L2414.99 948.938 2388.65 948.938 2388.65 946.336C2391.29 946.217 2393.17 946.056 2394.3 945.854 2395.43 945.652 2396.29 945.349 2396.89 944.945 2397.48 944.541 2397.91 943.971 2398.19 943.234 2398.46 942.498 2398.6 941.298 2398.6 939.634L2398.6 910.727C2398.6 909.776 2398.43 909.081 2398.1 908.641 2397.77 908.202 2397.28 907.982 2396.64 907.982 2395.88 907.982 2394.8 908.374 2393.39 909.158 2391.99 909.943 2390.26 911.024 2388.19 912.402L2386.62 909.657Z" fill="#4D4D4D" fill-rule="evenodd"/><text fill="#000000" fill-opacity="0" font-family="Arial,Arial_MSFontService,sans-serif" font-size="49.2251" x="2386.62" y="942.784">1</text><path d="M2423.27 897.431C2430.21 899.261 2435.54 903.212 2439.26 909.283 2442.98 915.355 2444.84 922.68 2444.84 931.258 2444.84 939.86 2442.98 947.185 2439.27 953.233 2435.57 959.28 2430.23 963.219 2423.27 965.049L2422.42 962.304C2427.9 960.475 2431.99 956.863 2434.66 951.468 2437.33 946.074 2438.67 939.219 2438.67 930.901 2438.67 922.87 2437.34 916.198 2434.68 910.887 2432.02 905.576 2427.89 902.006 2422.31 900.176Z" fill="#4D4D4D" fill-rule="evenodd"/><text fill="#000000" fill-opacity="0" font-family="Arial,Arial_MSFontService,sans-serif" font-size="67.6177" x="2422.31" y="956.597">)</text><path d="M1615.28 915.085C1617.61 915.085 1619.41 915.726 1620.68 917.01 1621.96 918.293 1622.59 919.909 1622.59 921.857 1622.59 923.045 1622.46 924.281 1622.2 925.564L1619.88 936.436C1619.67 937.695 1619.49 938.919 1619.35 940.107 1619.21 941.295 1619.13 942.353 1619.13 943.28 1619.13 944.183 1619.19 944.919 1619.31 945.49 1619.43 946.06 1619.59 946.345 1619.78 946.345 1620.44 946.345 1621.3 946.036 1622.36 945.418 1623.42 944.8 1624.56 943.945 1625.78 942.852 1627.01 941.759 1628.23 940.476 1629.45 939.002 1630.68 937.529 1631.78 935.937 1632.77 934.226 1633.75 932.515 1634.55 930.703 1635.16 928.79 1635.76 926.877 1636.06 924.946 1636.06 922.998 1636.06 922.047 1635.88 921.311 1635.51 920.788 1635.14 920.265 1634.57 920.004 1633.78 920.004 1632.9 920.004 1632.09 920.331 1631.34 920.984 1630.59 921.638 1629.83 922.511 1629.04 923.604L1626.55 921.608C1628.04 919.54 1629.71 917.936 1631.56 916.796 1633.4 915.655 1635.45 915.085 1637.7 915.085 1639.94 915.085 1641.52 915.661 1642.45 916.814 1643.37 917.966 1643.84 919.505 1643.84 921.43 1643.84 922.546 1643.62 923.836 1643.19 925.297 1642.77 926.758 1642.15 928.297 1641.34 929.913 1640.53 931.529 1639.58 933.192 1638.49 934.903 1637.4 936.614 1636.18 938.272 1634.85 939.876 1633.52 941.48 1632.1 942.995 1630.59 944.42 1629.08 945.846 1627.52 947.088 1625.89 948.145 1624.26 949.203 1622.61 950.04 1620.93 950.658 1619.26 951.276 1617.58 951.585 1615.89 951.585 1614.63 951.585 1613.6 951.413 1612.79 951.068 1611.98 950.723 1611.39 950.236 1611.02 949.607 1610.66 948.977 1610.41 948.24 1610.29 947.397 1610.18 946.553 1610.12 945.632 1610.12 944.634 1610.12 943.256 1610.2 941.8 1610.37 940.268 1610.53 938.735 1610.75 937.196 1611.01 935.652L1613.18 925.564C1613.32 924.946 1613.44 924.382 1613.54 923.871 1613.63 923.36 1613.68 922.95 1613.68 922.641 1613.68 921.929 1613.53 921.364 1613.23 920.948 1612.94 920.533 1612.33 920.325 1611.4 920.325 1609.93 920.325 1607.82 921.572 1605.09 924.067L1602.88 921.572C1604 920.17 1605.67 918.738 1607.89 917.277 1610.11 915.816 1612.58 915.085 1615.28 915.085Z" fill="#4D4D4D" fill-rule="evenodd"/><text fill="#000000" fill-opacity="0" font-family="Arial,Arial_MSFontService,sans-serif" font-size="36.5" x="1602.88" y="947.022">𝒗</text><path d="M1671.5 935.188 1715.42 935.188 1715.42 939.929 1671.5 939.929ZM1671.5 920.396 1715.42 920.396 1715.42 925.137 1671.5 925.137Z" fill="#4D4D4D" fill-rule="evenodd"/><text fill="#000000" fill-opacity="0" font-family="Arial,Arial_MSFontService,sans-serif" font-size="19.5332" x="1671.5" y="937.487">=</text><path d="M1769.55 899.508 1770.51 902.253C1764.95 904.083 1760.83 907.653 1758.16 912.964 1755.48 918.275 1754.15 924.946 1754.15 932.978 1754.15 941.295 1755.48 948.151 1758.16 953.545 1760.83 958.94 1764.91 962.551 1770.4 964.381L1769.55 967.126C1762.58 965.296 1757.25 961.357 1753.54 955.31 1749.83 949.262 1747.98 941.937 1747.98 933.335 1747.98 924.756 1749.84 917.431 1753.56 911.36 1757.28 905.289 1762.61 901.338 1769.55 899.508Z" fill="#4D4D4D" fill-rule="evenodd"/><text fill="#000000" fill-opacity="0" font-family="Arial,Arial_MSFontService,sans-serif" font-size="67.6177" x="1747.98" y="958.674">(</text><path d="M1792.14 904.819C1790.5 904.819 1789.13 905.306 1788.02 906.281 1786.92 907.255 1786.03 908.657 1785.35 910.487 1784.67 912.316 1784.19 914.544 1783.91 917.17 1783.62 919.796 1783.48 922.76 1783.48 926.063 1783.48 933.81 1784.2 939.495 1785.63 943.119 1787.07 946.743 1789.3 948.555 1792.32 948.555 1795.19 948.555 1797.33 946.85 1798.72 943.44 1800.11 940.03 1800.8 934.749 1800.8 927.596 1800.8 922.131 1800.44 917.705 1799.73 914.318 1799.02 910.932 1798.03 908.503 1796.76 907.029 1795.48 905.556 1793.95 904.819 1792.14 904.819ZM1792.32 901.789C1797.52 901.789 1801.39 903.797 1803.94 907.813 1806.48 911.829 1807.75 917.901 1807.75 926.028 1807.75 934.44 1806.39 940.802 1803.67 945.115 1800.95 949.428 1796.97 951.585 1791.75 951.585 1786.61 951.585 1782.79 949.565 1780.29 945.525 1777.78 941.486 1776.53 935.355 1776.53 927.133 1776.53 922.76 1776.91 918.982 1777.69 915.798 1778.46 912.613 1779.54 909.982 1780.93 907.902 1782.32 905.823 1783.99 904.285 1785.94 903.286 1787.89 902.288 1790.01 901.789 1792.32 901.789Z" fill="#4D4D4D" fill-rule="evenodd"/><text fill="#000000" fill-opacity="0" font-family="Arial,Arial_MSFontService,sans-serif" font-size="49.7954" x="1776.53" y="945.36">0</text><path d="M1817.38 942.745 1823.62 942.745C1823.95 944.408 1824.12 946.048 1824.12 947.664 1824.12 949.327 1823.83 950.848 1823.26 952.226 1822.69 953.605 1821.78 954.977 1820.54 956.343 1819.29 957.71 1817.57 959.213 1815.39 960.852L1813.46 958.678C1814.67 957.537 1815.55 956.51 1816.1 955.595 1816.65 954.68 1817.04 953.64 1817.28 952.476 1817.51 951.312 1817.63 949.85 1817.63 948.092 1817.63 946.286 1817.55 944.503 1817.38 942.745Z" fill="#4D4D4D" fill-rule="evenodd"/><text fill="#000000" fill-opacity="0" font-family="Arial,Arial_MSFontService,sans-serif" font-size="18.1074" x="1813.46" y="958.589">,</text><path d="M1850.53 901.789 1852.49 901.789C1852.35 904.071 1852.27 907.231 1852.27 911.271L1852.27 941.711C1852.27 943.09 1852.35 944.129 1852.51 944.83 1852.66 945.531 1852.93 946.102 1853.33 946.541 1853.72 946.981 1854.28 947.325 1855.02 947.575 1855.76 947.824 1856.68 948.014 1857.8 948.145 1858.92 948.276 1860.39 948.365 1862.22 948.412L1862.22 951.015 1835.88 951.015 1835.88 948.412C1838.52 948.294 1840.4 948.133 1841.53 947.931 1842.66 947.729 1843.52 947.426 1844.11 947.022 1844.71 946.618 1845.14 946.048 1845.41 945.311 1845.69 944.575 1845.82 943.375 1845.82 941.711L1845.82 912.804C1845.82 911.853 1845.66 911.158 1845.32 910.718 1844.99 910.279 1844.5 910.059 1843.86 910.059 1843.1 910.059 1842.02 910.451 1840.62 911.235 1839.22 912.019 1837.48 913.101 1835.41 914.479L1833.85 911.734Z" fill="#4D4D4D" fill-rule="evenodd"/><text fill="#000000" fill-opacity="0" font-family="Arial,Arial_MSFontService,sans-serif" font-size="49.2251" x="1833.85" y="944.861">1</text><path d="M1870.5 899.508C1877.43 901.338 1882.76 905.289 1886.48 911.36 1890.2 917.431 1892.06 924.756 1892.06 933.335 1892.06 941.937 1890.21 949.262 1886.5 955.31 1882.79 961.357 1877.46 965.296 1870.5 967.126L1869.64 964.381C1875.13 962.551 1879.21 958.94 1881.88 953.545 1884.56 948.151 1885.89 941.295 1885.89 932.978 1885.89 924.946 1884.56 918.275 1881.9 912.964 1879.24 907.653 1875.12 904.083 1869.53 902.253Z" fill="#4D4D4D" fill-rule="evenodd"/><text fill="#000000" fill-opacity="0" font-family="Arial,Arial_MSFontService,sans-serif" font-size="67.6177" x="1869.53" y="958.674">)</text><path d="M1022.5 915.085C1024.82 915.085 1026.62 915.726 1027.9 917.01 1029.17 918.293 1029.8 919.909 1029.8 921.857 1029.8 923.045 1029.67 924.281 1029.41 925.564L1027.09 936.436C1026.88 937.695 1026.7 938.919 1026.56 940.107 1026.42 941.295 1026.35 942.353 1026.35 943.28 1026.35 944.183 1026.41 944.919 1026.52 945.49 1026.64 946.06 1026.8 946.345 1026.99 946.345 1027.65 946.345 1028.51 946.036 1029.57 945.418 1030.63 944.8 1031.77 943.945 1032.99 942.852 1034.22 941.759 1035.44 940.476 1036.66 939.002 1037.89 937.529 1038.99 935.937 1039.98 934.226 1040.97 932.515 1041.76 930.703 1042.37 928.79 1042.97 926.877 1043.28 924.946 1043.28 922.998 1043.28 922.047 1043.09 921.311 1042.72 920.788 1042.36 920.265 1041.78 920.004 1041 920.004 1040.12 920.004 1039.3 920.331 1038.55 920.984 1037.81 921.638 1037.04 922.511 1036.25 923.604L1033.76 921.608C1035.26 919.54 1036.93 917.936 1038.77 916.796 1040.61 915.655 1042.66 915.085 1044.92 915.085 1047.15 915.085 1048.73 915.661 1049.66 916.814 1050.58 917.966 1051.05 919.505 1051.05 921.43 1051.05 922.546 1050.83 923.836 1050.41 925.297 1049.98 926.758 1049.36 928.297 1048.55 929.913 1047.74 931.529 1046.79 933.192 1045.7 934.903 1044.61 936.614 1043.4 938.272 1042.06 939.876 1040.73 941.48 1039.31 942.995 1037.81 944.42 1036.3 945.846 1034.73 947.088 1033.1 948.145 1031.47 949.203 1029.82 950.04 1028.15 950.658 1026.47 951.276 1024.79 951.585 1023.1 951.585 1021.84 951.585 1020.81 951.413 1020 951.068 1019.19 950.723 1018.6 950.236 1018.24 949.607 1017.87 948.977 1017.62 948.24 1017.51 947.397 1017.39 946.553 1017.33 945.632 1017.33 944.634 1017.33 943.256 1017.41 941.8 1017.58 940.268 1017.74 938.735 1017.96 937.196 1018.22 935.652L1020.39 925.564C1020.54 924.946 1020.65 924.382 1020.75 923.871 1020.84 923.36 1020.89 922.95 1020.89 922.641 1020.89 921.929 1020.74 921.364 1020.45 920.948 1020.15 920.533 1019.54 920.325 1018.61 920.325 1017.14 920.325 1015.03 921.572 1012.3 924.067L1010.09 921.572C1011.21 920.17 1012.88 918.738 1015.1 917.277 1017.32 915.816 1019.79 915.085 1022.5 915.085Z" fill="#4D4D4D" fill-rule="evenodd"/><text fill="#000000" fill-opacity="0" font-family="Arial,Arial_MSFontService,sans-serif" font-size="36.5" x="1010.09" y="947.022">𝒗</text><path d="M1078.71 935.188 1122.63 935.188 1122.63 939.929 1078.71 939.929ZM1078.71 920.396 1122.63 920.396 1122.63 925.137 1078.71 925.137Z" fill="#4D4D4D" fill-rule="evenodd"/><text fill="#000000" fill-opacity="0" font-family="Arial,Arial_MSFontService,sans-serif" font-size="19.5332" x="1078.71" y="937.487">=</text><path d="M1176.76 899.508 1177.72 902.253C1172.16 904.083 1168.04 907.653 1165.37 912.964 1162.69 918.275 1161.36 924.946 1161.36 932.978 1161.36 941.295 1162.69 948.151 1165.37 953.545 1168.04 958.94 1172.12 962.551 1177.61 964.381L1176.76 967.126C1169.79 965.296 1164.46 961.357 1160.75 955.31 1157.05 949.262 1155.19 941.937 1155.19 933.335 1155.19 924.756 1157.05 917.431 1160.77 911.36 1164.49 905.289 1169.82 901.338 1176.76 899.508Z" fill="#4D4D4D" fill-rule="evenodd"/><text fill="#000000" fill-opacity="0" font-family="Arial,Arial_MSFontService,sans-serif" font-size="67.6177" x="1155.19" y="958.674">(</text><path d="M1184.45 927.774 1228.37 927.774 1228.37 932.515 1184.45 932.515Z" fill="#4D4D4D" fill-rule="evenodd"/><text fill="#000000" fill-opacity="0" font-family="Arial,Arial_MSFontService,sans-serif" font-size="4.74072" x="1184.45" y="931.922">−</text><path d="M1257.17 901.789 1259.13 901.789C1258.98 904.071 1258.91 907.231 1258.91 911.271L1258.91 941.711C1258.91 943.09 1258.99 944.129 1259.15 944.83 1259.3 945.531 1259.57 946.102 1259.96 946.541 1260.36 946.981 1260.92 947.325 1261.66 947.575 1262.39 947.824 1263.32 948.014 1264.44 948.145 1265.56 948.276 1267.03 948.365 1268.86 948.412L1268.86 951.015 1242.52 951.015 1242.52 948.412C1245.15 948.294 1247.04 948.133 1248.17 947.931 1249.3 947.729 1250.16 947.426 1250.75 947.022 1251.34 946.618 1251.78 946.048 1252.05 945.311 1252.33 944.575 1252.46 943.375 1252.46 941.711L1252.46 912.804C1252.46 911.853 1252.3 911.158 1251.96 910.718 1251.63 910.279 1251.14 910.059 1250.5 910.059 1249.74 910.059 1248.66 910.451 1247.26 911.235 1245.86 912.019 1244.12 913.101 1242.05 914.479L1240.49 911.734Z" fill="#4D4D4D" fill-rule="evenodd"/><text fill="#000000" fill-opacity="0" font-family="Arial,Arial_MSFontService,sans-serif" font-size="49.2251" x="1240.49" y="944.861">1</text><path d="M1279.59 942.745 1285.83 942.745C1286.16 944.408 1286.33 946.048 1286.33 947.664 1286.33 949.327 1286.05 950.848 1285.48 952.226 1284.9 953.605 1284 954.977 1282.75 956.343 1281.5 957.71 1279.78 959.213 1277.6 960.852L1275.67 958.678C1276.88 957.537 1277.76 956.51 1278.31 955.595 1278.86 954.68 1279.25 953.64 1279.49 952.476 1279.72 951.312 1279.84 949.85 1279.84 948.092 1279.84 946.286 1279.76 944.503 1279.59 942.745Z" fill="#4D4D4D" fill-rule="evenodd"/><text fill="#000000" fill-opacity="0" font-family="Arial,Arial_MSFontService,sans-serif" font-size="18.1074" x="1275.67" y="958.589">,</text><path d="M1312.74 901.789 1314.7 901.789C1314.56 904.071 1314.49 907.231 1314.49 911.271L1314.49 941.711C1314.49 943.09 1314.56 944.129 1314.72 944.83 1314.87 945.531 1315.15 946.102 1315.54 946.541 1315.93 946.981 1316.49 947.325 1317.23 947.575 1317.97 947.824 1318.89 948.014 1320.01 948.145 1321.13 948.276 1322.6 948.365 1324.43 948.412L1324.43 951.015 1298.09 951.015 1298.09 948.412C1300.73 948.294 1302.61 948.133 1303.74 947.931 1304.87 947.729 1305.73 947.426 1306.32 947.022 1306.92 946.618 1307.35 946.048 1307.62 945.311 1307.9 944.575 1308.03 943.375 1308.03 941.711L1308.03 912.804C1308.03 911.853 1307.87 911.158 1307.54 910.718 1307.2 910.279 1306.72 910.059 1306.07 910.059 1305.31 910.059 1304.23 910.451 1302.83 911.235 1301.43 912.019 1299.69 913.101 1297.63 914.479L1296.06 911.734Z" fill="#4D4D4D" fill-rule="evenodd"/><text fill="#000000" fill-opacity="0" font-family="Arial,Arial_MSFontService,sans-serif" font-size="49.2251" x="1296.06" y="944.861">1</text><path d="M1332.71 899.508C1339.65 901.338 1344.97 905.289 1348.69 911.36 1352.41 917.431 1354.27 924.756 1354.27 933.335 1354.27 941.937 1352.42 949.262 1348.71 955.31 1345 961.357 1339.67 965.296 1332.71 967.126L1331.85 964.381C1337.34 962.551 1341.42 958.94 1344.1 953.545 1346.77 948.151 1348.11 941.295 1348.11 932.978 1348.11 924.946 1346.78 918.275 1344.11 912.964 1341.45 907.653 1337.33 904.083 1331.74 902.253Z" fill="#4D4D4D" fill-rule="evenodd"/><text fill="#000000" fill-opacity="0" font-family="Arial,Arial_MSFontService,sans-serif" font-size="67.6177" x="1331.74" y="958.674">)</text><path d="M1017.51 1362.02C1019.84 1362.02 1021.64 1362.66 1022.91 1363.94 1024.18 1365.23 1024.82 1366.84 1024.82 1368.79 1024.82 1369.98 1024.69 1371.22 1024.42 1372.5L1022.11 1383.37C1021.89 1384.63 1021.72 1385.85 1021.57 1387.04 1021.43 1388.23 1021.36 1389.29 1021.36 1390.21 1021.36 1391.12 1021.42 1391.85 1021.54 1392.42 1021.66 1392.99 1021.81 1393.28 1022 1393.28 1022.67 1393.28 1023.53 1392.97 1024.58 1392.35 1025.64 1391.74 1026.78 1390.88 1028.01 1389.79 1029.23 1388.69 1030.45 1387.41 1031.68 1385.94 1032.9 1384.46 1034.01 1382.87 1034.99 1381.16 1035.98 1379.45 1036.78 1377.64 1037.38 1375.73 1037.99 1373.81 1038.29 1371.88 1038.29 1369.93 1038.29 1368.98 1038.11 1368.25 1037.74 1367.72 1037.37 1367.2 1036.79 1366.94 1036.01 1366.94 1035.13 1366.94 1034.32 1367.27 1033.57 1367.92 1032.82 1368.57 1032.05 1369.45 1031.27 1370.54L1028.77 1368.54C1030.27 1366.48 1031.94 1364.87 1033.78 1363.73 1035.62 1362.59 1037.67 1362.02 1039.93 1362.02 1042.16 1362.02 1043.74 1362.6 1044.67 1363.75 1045.6 1364.9 1046.06 1366.44 1046.06 1368.36 1046.06 1369.48 1045.85 1370.77 1045.42 1372.23 1044.99 1373.69 1044.37 1375.23 1043.57 1376.85 1042.76 1378.46 1041.81 1380.13 1040.71 1381.84 1039.62 1383.55 1038.41 1385.21 1037.08 1386.81 1035.75 1388.41 1034.33 1389.93 1032.82 1391.36 1031.31 1392.78 1029.74 1394.02 1028.11 1395.08 1026.49 1396.14 1024.83 1396.98 1023.16 1397.59 1021.48 1398.21 1019.8 1398.52 1018.12 1398.52 1016.86 1398.52 1015.82 1398.35 1015.01 1398 1014.21 1397.66 1013.62 1397.17 1013.25 1396.54 1012.88 1395.91 1012.64 1395.18 1012.52 1394.33 1012.4 1393.49 1012.34 1392.57 1012.34 1391.57 1012.34 1390.19 1012.42 1388.74 1012.59 1387.2 1012.76 1385.67 1012.97 1384.13 1013.23 1382.59L1015.41 1372.5C1015.55 1371.88 1015.67 1371.32 1015.76 1370.81 1015.86 1370.3 1015.91 1369.89 1015.91 1369.58 1015.91 1368.86 1015.76 1368.3 1015.46 1367.88 1015.16 1367.47 1014.55 1367.26 1013.62 1367.26 1012.15 1367.26 1010.05 1368.51 1007.31 1371L1005.1 1368.51C1006.22 1367.11 1007.89 1365.67 1010.11 1364.21 1012.33 1362.75 1014.8 1362.02 1017.51 1362.02Z" fill="#4D4D4D" fill-rule="evenodd"/><text fill="#000000" fill-opacity="0" font-family="Arial,Arial_MSFontService,sans-serif" font-size="36.5" x="1005.1" y="1393.96">𝒗</text><path d="M1073.73 1382.12 1117.64 1382.12 1117.64 1386.86 1073.73 1386.86ZM1073.73 1367.33 1117.64 1367.33 1117.64 1372.07 1073.73 1372.07Z" fill="#4D4D4D" fill-rule="evenodd"/><text fill="#000000" fill-opacity="0" font-family="Arial,Arial_MSFontService,sans-serif" font-size="19.5332" x="1073.73" y="1384.42">=</text><path d="M1171.77 1346.44 1172.73 1349.19C1167.17 1351.02 1163.05 1354.59 1160.38 1359.9 1157.71 1365.21 1156.37 1371.88 1156.37 1379.91 1156.37 1388.23 1157.71 1395.09 1160.38 1400.48 1163.05 1405.87 1167.14 1409.49 1172.63 1411.32L1171.77 1414.06C1164.81 1412.23 1159.47 1408.29 1155.77 1402.24 1152.06 1396.2 1150.2 1388.87 1150.2 1380.27 1150.2 1371.69 1152.06 1364.37 1155.78 1358.29 1159.5 1352.22 1164.83 1348.27 1171.77 1346.44Z" fill="#4D4D4D" fill-rule="evenodd"/><text fill="#000000" fill-opacity="0" font-family="Arial,Arial_MSFontService,sans-serif" font-size="67.6177" x="1150.2" y="1405.61">(</text><path d="M1179.46 1374.71 1223.38 1374.71 1223.38 1379.45 1179.46 1379.45Z" fill="#4D4D4D" fill-rule="evenodd"/><text fill="#000000" fill-opacity="0" font-family="Arial,Arial_MSFontService,sans-serif" font-size="4.74072" x="1179.46" y="1378.86">−</text><path d="M1252.18 1348.72 1254.14 1348.72C1254 1351.01 1253.93 1354.17 1253.93 1358.21L1253.93 1388.65C1253.93 1390.02 1254 1391.06 1254.16 1391.77 1254.31 1392.47 1254.59 1393.04 1254.98 1393.48 1255.37 1393.92 1255.93 1394.26 1256.67 1394.51 1257.41 1394.76 1258.33 1394.95 1259.45 1395.08 1260.57 1395.21 1262.04 1395.3 1263.87 1395.35L1263.87 1397.95 1237.53 1397.95 1237.53 1395.35C1240.17 1395.23 1242.05 1395.07 1243.18 1394.87 1244.31 1394.66 1245.17 1394.36 1245.76 1393.96 1246.36 1393.55 1246.79 1392.98 1247.06 1392.25 1247.34 1391.51 1247.47 1390.31 1247.47 1388.65L1247.47 1359.74C1247.47 1358.79 1247.31 1358.09 1246.98 1357.65 1246.64 1357.21 1246.16 1356.99 1245.51 1356.99 1244.75 1356.99 1243.67 1357.39 1242.27 1358.17 1240.87 1358.95 1239.13 1360.04 1237.07 1361.41L1235.5 1358.67Z" fill="#4D4D4D" fill-rule="evenodd"/><text fill="#000000" fill-opacity="0" font-family="Arial,Arial_MSFontService,sans-serif" font-size="49.2251" x="1235.5" y="1391.8">1</text><path d="M1274.61 1389.68 1280.84 1389.68C1281.18 1391.34 1281.34 1392.98 1281.34 1394.6 1281.34 1396.26 1281.06 1397.78 1280.49 1399.16 1279.92 1400.54 1279.01 1401.91 1277.76 1403.28 1276.51 1404.64 1274.8 1406.15 1272.61 1407.79L1270.69 1405.61C1271.9 1404.47 1272.78 1403.44 1273.32 1402.53 1273.87 1401.61 1274.26 1400.58 1274.5 1399.41 1274.74 1398.25 1274.86 1396.79 1274.86 1395.03 1274.86 1393.22 1274.77 1391.44 1274.61 1389.68Z" fill="#4D4D4D" fill-rule="evenodd"/><text fill="#000000" fill-opacity="0" font-family="Arial,Arial_MSFontService,sans-serif" font-size="18.1074" x="1270.69" y="1405.52">,</text><path d="M1304.94 1351.75C1303.3 1351.75 1301.92 1352.24 1300.82 1353.22 1299.71 1354.19 1298.82 1355.59 1298.15 1357.42 1297.47 1359.25 1296.99 1361.48 1296.7 1364.1 1296.42 1366.73 1296.28 1369.7 1296.28 1373 1296.28 1380.74 1296.99 1386.43 1298.43 1390.05 1299.87 1393.68 1302.1 1395.49 1305.12 1395.49 1307.99 1395.49 1310.12 1393.79 1311.51 1390.38 1312.9 1386.96 1313.6 1381.68 1313.6 1374.53 1313.6 1369.07 1313.24 1364.64 1312.53 1361.25 1311.82 1357.87 1310.82 1355.44 1309.55 1353.96 1308.28 1352.49 1306.74 1351.75 1304.94 1351.75ZM1305.12 1348.72C1310.32 1348.72 1314.19 1350.73 1316.74 1354.75 1319.28 1358.76 1320.55 1364.84 1320.55 1372.96 1320.55 1381.37 1319.19 1387.74 1316.47 1392.05 1313.75 1396.36 1309.77 1398.52 1304.54 1398.52 1299.41 1398.52 1295.59 1396.5 1293.09 1392.46 1290.58 1388.42 1289.32 1382.29 1289.32 1374.07 1289.32 1369.7 1289.71 1365.92 1290.48 1362.73 1291.26 1359.55 1292.34 1356.92 1293.73 1354.84 1295.12 1352.76 1296.79 1351.22 1298.73 1350.22 1300.68 1349.22 1302.81 1348.72 1305.12 1348.72Z" fill="#4D4D4D" fill-rule="evenodd"/><text fill="#000000" fill-opacity="0" font-family="Arial,Arial_MSFontService,sans-serif" font-size="49.7954" x="1289.32" y="1392.3">0</text><path d="M1327.72 1346.44C1334.66 1348.27 1339.99 1352.22 1343.71 1358.29 1347.43 1364.37 1349.29 1371.69 1349.29 1380.27 1349.29 1388.87 1347.43 1396.2 1343.72 1402.24 1340.02 1408.29 1334.68 1412.23 1327.72 1414.06L1326.86 1411.32C1332.35 1409.49 1336.44 1405.87 1339.11 1400.48 1341.78 1395.09 1343.12 1388.23 1343.12 1379.91 1343.12 1371.88 1341.79 1365.21 1339.13 1359.9 1336.47 1354.59 1332.34 1351.02 1326.76 1349.19Z" fill="#4D4D4D" fill-rule="evenodd"/><text fill="#000000" fill-opacity="0" font-family="Arial,Arial_MSFontService,sans-serif" font-size="67.6177" x="1326.76" y="1405.61">)</text><path d="M1023.15 1826.56C1025.48 1826.56 1027.28 1827.2 1028.55 1828.48 1029.82 1829.76 1030.45 1831.38 1030.45 1833.33 1030.45 1834.52 1030.32 1835.75 1030.06 1837.04L1027.74 1847.91C1027.53 1849.17 1027.35 1850.39 1027.21 1851.58 1027.07 1852.77 1027 1853.82 1027 1854.75 1027 1855.65 1027.06 1856.39 1027.17 1856.96 1027.29 1857.53 1027.45 1857.82 1027.64 1857.82 1028.3 1857.82 1029.16 1857.51 1030.22 1856.89 1031.28 1856.27 1032.42 1855.42 1033.64 1854.32 1034.87 1853.23 1036.09 1851.95 1037.32 1850.47 1038.54 1849 1039.64 1847.41 1040.63 1845.7 1041.62 1843.99 1042.41 1842.17 1043.02 1840.26 1043.62 1838.35 1043.93 1836.42 1043.93 1834.47 1043.93 1833.52 1043.74 1832.78 1043.37 1832.26 1043.01 1831.74 1042.43 1831.47 1041.65 1831.47 1040.77 1831.47 1039.95 1831.8 1039.2 1832.46 1038.46 1833.11 1037.69 1833.98 1036.91 1835.08L1034.41 1833.08C1035.91 1831.01 1037.58 1829.41 1039.42 1828.27 1041.26 1827.13 1043.31 1826.56 1045.57 1826.56 1047.8 1826.56 1049.38 1827.13 1050.31 1828.28 1051.23 1829.44 1051.7 1830.98 1051.7 1832.9 1051.7 1834.02 1051.48 1835.31 1051.06 1836.77 1050.63 1838.23 1050.01 1839.77 1049.2 1841.38 1048.39 1843 1047.44 1844.66 1046.35 1846.37 1045.26 1848.09 1044.05 1849.74 1042.72 1851.35 1041.38 1852.95 1039.96 1854.47 1038.46 1855.89 1036.95 1857.32 1035.38 1858.56 1033.75 1859.62 1032.12 1860.67 1030.47 1861.51 1028.8 1862.13 1027.12 1862.75 1025.44 1863.06 1023.75 1863.06 1022.49 1863.06 1021.46 1862.88 1020.65 1862.54 1019.84 1862.19 1019.26 1861.71 1018.89 1861.08 1018.52 1860.45 1018.28 1859.71 1018.16 1858.87 1018.04 1858.02 1017.98 1857.1 1017.98 1856.11 1017.98 1854.73 1018.06 1853.27 1018.23 1851.74 1018.39 1850.21 1018.61 1848.67 1018.87 1847.12L1021.04 1837.04C1021.19 1836.42 1021.31 1835.85 1021.4 1835.34 1021.5 1834.83 1021.54 1834.42 1021.54 1834.11 1021.54 1833.4 1021.39 1832.84 1021.1 1832.42 1020.8 1832 1020.19 1831.8 1019.26 1831.8 1017.79 1831.8 1015.69 1833.04 1012.95 1835.54L1010.74 1833.04C1011.86 1831.64 1013.53 1830.21 1015.75 1828.75 1017.97 1827.29 1020.44 1826.56 1023.15 1826.56Z" fill="#4D4D4D" fill-rule="evenodd"/><text fill="#000000" fill-opacity="0" font-family="Arial,Arial_MSFontService,sans-serif" font-size="36.5" x="1010.74" y="1858.49">𝒗</text><path d="M1079.36 1846.66 1123.28 1846.66 1123.28 1851.4 1079.36 1851.4ZM1079.36 1831.87 1123.28 1831.87 1123.28 1836.61 1079.36 1836.61Z" fill="#4D4D4D" fill-rule="evenodd"/><text fill="#000000" fill-opacity="0" font-family="Arial,Arial_MSFontService,sans-serif" font-size="19.5332" x="1079.36" y="1848.96">=</text><path d="M1177.41 1810.98 1178.37 1813.72C1172.81 1815.55 1168.69 1819.12 1166.02 1824.44 1163.35 1829.75 1162.01 1836.42 1162.01 1844.45 1162.01 1852.77 1163.35 1859.62 1166.02 1865.02 1168.69 1870.41 1172.77 1874.02 1178.26 1875.85L1177.41 1878.6C1170.44 1876.77 1165.11 1872.83 1161.4 1866.78 1157.7 1860.73 1155.84 1853.41 1155.84 1844.81 1155.84 1836.23 1157.7 1828.9 1161.42 1822.83 1165.14 1816.76 1170.47 1812.81 1177.41 1810.98Z" fill="#4D4D4D" fill-rule="evenodd"/><text fill="#000000" fill-opacity="0" font-family="Arial,Arial_MSFontService,sans-serif" font-size="67.6177" x="1155.84" y="1870.14">(</text><path d="M1185.1 1839.25 1229.02 1839.25 1229.02 1843.99 1185.1 1843.99Z" fill="#4D4D4D" fill-rule="evenodd"/><text fill="#000000" fill-opacity="0" font-family="Arial,Arial_MSFontService,sans-serif" font-size="4.74072" x="1185.1" y="1843.39">−</text><path d="M1257.82 1813.26 1259.78 1813.26C1259.64 1815.54 1259.56 1818.7 1259.56 1822.74L1259.56 1853.18C1259.56 1854.56 1259.64 1855.6 1259.8 1856.3 1259.95 1857 1260.22 1857.57 1260.62 1858.01 1261.01 1858.45 1261.57 1858.8 1262.31 1859.05 1263.05 1859.3 1263.97 1859.49 1265.09 1859.62 1266.21 1859.75 1267.68 1859.84 1269.51 1859.88L1269.51 1862.49 1243.17 1862.49 1243.17 1859.88C1245.81 1859.76 1247.69 1859.6 1248.82 1859.4 1249.95 1859.2 1250.81 1858.9 1251.4 1858.49 1252 1858.09 1252.43 1857.52 1252.7 1856.78 1252.98 1856.05 1253.11 1854.85 1253.11 1853.18L1253.11 1824.27C1253.11 1823.32 1252.95 1822.63 1252.61 1822.19 1252.28 1821.75 1251.79 1821.53 1251.15 1821.53 1250.39 1821.53 1249.31 1821.92 1247.91 1822.71 1246.51 1823.49 1244.77 1824.57 1242.7 1825.95L1241.14 1823.21Z" fill="#4D4D4D" fill-rule="evenodd"/><text fill="#000000" fill-opacity="0" font-family="Arial,Arial_MSFontService,sans-serif" font-size="49.2251" x="1241.14" y="1856.33">1</text><path d="M1280.24 1854.22 1286.48 1854.22C1286.81 1855.88 1286.98 1857.52 1286.98 1859.14 1286.98 1860.8 1286.7 1862.32 1286.13 1863.7 1285.56 1865.08 1284.65 1866.45 1283.4 1867.81 1282.15 1869.18 1280.43 1870.68 1278.25 1872.32L1276.32 1870.15C1277.54 1869.01 1278.41 1867.98 1278.96 1867.07 1279.51 1866.15 1279.9 1865.11 1280.14 1863.95 1280.38 1862.78 1280.49 1861.32 1280.49 1859.56 1280.49 1857.76 1280.41 1855.97 1280.24 1854.22Z" fill="#4D4D4D" fill-rule="evenodd"/><text fill="#000000" fill-opacity="0" font-family="Arial,Arial_MSFontService,sans-serif" font-size="18.1074" x="1276.32" y="1870.06">,</text><path d="M1307.89 1839.25 1351.8 1839.25 1351.8 1843.99 1307.89 1843.99Z" fill="#4D4D4D" fill-rule="evenodd"/><text fill="#000000" fill-opacity="0" font-family="Arial,Arial_MSFontService,sans-serif" font-size="4.74072" x="1307.89" y="1843.39">−</text><path d="M1380.6 1813.26 1382.57 1813.26C1382.42 1815.54 1382.35 1818.7 1382.35 1822.74L1382.35 1853.18C1382.35 1854.56 1382.43 1855.6 1382.58 1856.3 1382.74 1857 1383.01 1857.57 1383.4 1858.01 1383.8 1858.45 1384.36 1858.8 1385.1 1859.05 1385.83 1859.3 1386.76 1859.49 1387.88 1859.62 1388.99 1859.75 1390.47 1859.84 1392.3 1859.88L1392.3 1862.49 1365.96 1862.49 1365.96 1859.88C1368.59 1859.76 1370.48 1859.6 1371.6 1859.4 1372.73 1859.2 1373.59 1858.9 1374.19 1858.49 1374.78 1858.09 1375.22 1857.52 1375.49 1856.78 1375.76 1856.05 1375.9 1854.85 1375.9 1853.18L1375.9 1824.27C1375.9 1823.32 1375.73 1822.63 1375.4 1822.19 1375.07 1821.75 1374.58 1821.53 1373.94 1821.53 1373.18 1821.53 1372.1 1821.92 1370.7 1822.71 1369.29 1823.49 1367.56 1824.57 1365.49 1825.95L1363.92 1823.21Z" fill="#4D4D4D" fill-rule="evenodd"/><text fill="#000000" fill-opacity="0" font-family="Arial,Arial_MSFontService,sans-serif" font-size="49.2251" x="1363.92" y="1856.33">1</text><path d="M1400.57 1810.98C1407.51 1812.81 1412.84 1816.76 1416.56 1822.83 1420.28 1828.9 1422.14 1836.23 1422.14 1844.81 1422.14 1853.41 1420.28 1860.73 1416.58 1866.78 1412.87 1872.83 1407.54 1876.77 1400.57 1878.6L1399.72 1875.85C1405.21 1874.02 1409.29 1870.41 1411.96 1865.02 1414.63 1859.62 1415.97 1852.77 1415.97 1844.45 1415.97 1836.42 1414.64 1829.75 1411.98 1824.44 1409.32 1819.12 1405.19 1815.55 1399.61 1813.72Z" fill="#4D4D4D" fill-rule="evenodd"/><text fill="#000000" fill-opacity="0" font-family="Arial,Arial_MSFontService,sans-serif" font-size="67.6177" x="1399.61" y="1870.14">)</text><path d="M1604.05 1831.42C1606.38 1831.42 1608.18 1832.07 1609.45 1833.35 1610.72 1834.63 1611.36 1836.25 1611.36 1838.2 1611.36 1839.39 1611.23 1840.62 1610.97 1841.9L1608.65 1852.78C1608.44 1854.04 1608.26 1855.26 1608.12 1856.45 1607.97 1857.64 1607.9 1858.69 1607.9 1859.62 1607.9 1860.52 1607.96 1861.26 1608.08 1861.83 1608.2 1862.4 1608.35 1862.69 1608.54 1862.69 1609.21 1862.69 1610.07 1862.38 1611.13 1861.76 1612.18 1861.14 1613.33 1860.29 1614.55 1859.19 1615.77 1858.1 1617 1856.82 1618.22 1855.34 1619.44 1853.87 1620.55 1852.28 1621.54 1850.57 1622.52 1848.86 1623.32 1847.04 1623.92 1845.13 1624.53 1843.22 1624.83 1841.29 1624.83 1839.34 1624.83 1838.39 1624.65 1837.65 1624.28 1837.13 1623.91 1836.61 1623.34 1836.34 1622.55 1836.34 1621.67 1836.34 1620.86 1836.67 1620.11 1837.32 1619.36 1837.98 1618.59 1838.85 1617.81 1839.94L1615.32 1837.95C1616.81 1835.88 1618.48 1834.28 1620.32 1833.14 1622.17 1832 1624.21 1831.42 1626.47 1831.42 1628.71 1831.42 1630.29 1832 1631.21 1833.15 1632.14 1834.31 1632.6 1835.84 1632.6 1837.77 1632.6 1838.89 1632.39 1840.18 1631.96 1841.64 1631.53 1843.1 1630.92 1844.64 1630.11 1846.25 1629.3 1847.87 1628.35 1849.53 1627.26 1851.24 1626.16 1852.95 1624.95 1854.61 1623.62 1856.22 1622.29 1857.82 1620.87 1859.33 1619.36 1860.76 1617.85 1862.19 1616.28 1863.43 1614.66 1864.49 1613.03 1865.54 1611.38 1866.38 1609.7 1867 1608.03 1867.62 1606.34 1867.92 1604.66 1867.92 1603.4 1867.92 1602.36 1867.75 1601.56 1867.41 1600.75 1867.06 1600.16 1866.58 1599.79 1865.95 1599.42 1865.32 1599.18 1864.58 1599.06 1863.74 1598.94 1862.89 1598.88 1861.97 1598.88 1860.97 1598.88 1859.6 1598.97 1858.14 1599.13 1856.61 1599.3 1855.08 1599.51 1853.54 1599.77 1851.99L1601.95 1841.9C1602.09 1841.29 1602.21 1840.72 1602.31 1840.21 1602.4 1839.7 1602.45 1839.29 1602.45 1838.98 1602.45 1838.27 1602.3 1837.7 1602 1837.29 1601.71 1836.87 1601.09 1836.66 1600.17 1836.66 1598.69 1836.66 1596.59 1837.91 1593.86 1840.41L1591.65 1837.91C1592.76 1836.51 1594.43 1835.08 1596.66 1833.62 1598.88 1832.16 1601.34 1831.42 1604.05 1831.42Z" fill="#4D4D4D" fill-rule="evenodd"/><text fill="#000000" fill-opacity="0" font-family="Arial,Arial_MSFontService,sans-serif" font-size="36.5" x="1591.65" y="1863.36">𝒗</text><path d="M1660.27 1851.53 1704.18 1851.53 1704.18 1856.27 1660.27 1856.27ZM1660.27 1836.74 1704.18 1836.74 1704.18 1841.48 1660.27 1841.48Z" fill="#4D4D4D" fill-rule="evenodd"/><text fill="#000000" fill-opacity="0" font-family="Arial,Arial_MSFontService,sans-serif" font-size="19.5332" x="1660.27" y="1853.83">=</text><path d="M1758.31 1815.85 1759.27 1818.59C1753.71 1820.42 1749.6 1823.99 1746.92 1829.3 1744.25 1834.62 1742.91 1841.29 1742.91 1849.32 1742.91 1857.64 1744.25 1864.49 1746.92 1869.89 1749.6 1875.28 1753.68 1878.89 1759.17 1880.72L1758.31 1883.47C1751.35 1881.64 1746.02 1877.7 1742.31 1871.65 1738.6 1865.6 1736.75 1858.28 1736.75 1849.67 1736.75 1841.1 1738.61 1833.77 1742.33 1827.7 1746.04 1821.63 1751.37 1817.68 1758.31 1815.85Z" fill="#4D4D4D" fill-rule="evenodd"/><text fill="#000000" fill-opacity="0" font-family="Arial,Arial_MSFontService,sans-serif" font-size="67.6177" x="1736.75" y="1875.01">(</text><path d="M1780.91 1821.16C1779.27 1821.16 1777.89 1821.65 1776.79 1822.62 1775.68 1823.59 1774.79 1825 1774.12 1826.83 1773.44 1828.66 1772.96 1830.88 1772.67 1833.51 1772.39 1836.14 1772.24 1839.1 1772.24 1842.4 1772.24 1850.15 1772.96 1855.84 1774.4 1859.46 1775.84 1863.08 1778.07 1864.9 1781.08 1864.9 1783.96 1864.9 1786.09 1863.19 1787.48 1859.78 1788.87 1856.37 1789.57 1851.09 1789.57 1843.94 1789.57 1838.47 1789.21 1834.04 1788.5 1830.66 1787.79 1827.27 1786.79 1824.84 1785.52 1823.37 1784.25 1821.9 1782.71 1821.16 1780.91 1821.16ZM1781.08 1818.13C1786.29 1818.13 1790.16 1820.14 1792.7 1824.15 1795.25 1828.17 1796.52 1834.24 1796.52 1842.37 1796.52 1850.78 1795.16 1857.14 1792.44 1861.46 1789.72 1865.77 1785.74 1867.92 1780.51 1867.92 1775.38 1867.92 1771.56 1865.91 1769.05 1861.87 1766.55 1857.83 1765.29 1851.69 1765.29 1843.47 1765.29 1839.1 1765.68 1835.32 1766.45 1832.14 1767.22 1828.95 1768.31 1826.32 1769.7 1824.24 1771.09 1822.16 1772.76 1820.62 1774.7 1819.63 1776.65 1818.63 1778.78 1818.13 1781.08 1818.13Z" fill="#4D4D4D" fill-rule="evenodd"/><text fill="#000000" fill-opacity="0" font-family="Arial,Arial_MSFontService,sans-serif" font-size="49.7954" x="1765.29" y="1861.7">0</text><path d="M1806.15 1859.09 1812.39 1859.09C1812.72 1860.75 1812.89 1862.39 1812.89 1864 1812.89 1865.67 1812.6 1867.19 1812.03 1868.57 1811.46 1869.94 1810.55 1871.32 1809.3 1872.68 1808.06 1874.05 1806.34 1875.55 1804.15 1877.19L1802.23 1875.02C1803.44 1873.88 1804.32 1872.85 1804.87 1871.93 1805.41 1871.02 1805.8 1869.98 1806.04 1868.82 1806.28 1867.65 1806.4 1866.19 1806.4 1864.43 1806.4 1862.63 1806.32 1860.84 1806.15 1859.09Z" fill="#4D4D4D" fill-rule="evenodd"/><text fill="#000000" fill-opacity="0" font-family="Arial,Arial_MSFontService,sans-serif" font-size="18.1074" x="1802.23" y="1874.93">,</text><path d="M1833.79 1844.11 1877.71 1844.11 1877.71 1848.86 1833.79 1848.86Z" fill="#4D4D4D" fill-rule="evenodd"/><text fill="#000000" fill-opacity="0" font-family="Arial,Arial_MSFontService,sans-serif" font-size="4.74072" x="1833.79" y="1848.26">−</text><path d="M1906.51 1818.13 1908.47 1818.13C1908.33 1820.41 1908.26 1823.57 1908.26 1827.61L1908.26 1858.05C1908.26 1859.43 1908.33 1860.47 1908.49 1861.17 1908.64 1861.87 1908.92 1862.44 1909.31 1862.88 1909.7 1863.32 1910.26 1863.67 1911 1863.91 1911.74 1864.16 1912.66 1864.35 1913.78 1864.49 1914.9 1864.62 1916.37 1864.71 1918.2 1864.75L1918.2 1867.35 1891.86 1867.35 1891.86 1864.75C1894.5 1864.63 1896.38 1864.47 1897.51 1864.27 1898.64 1864.07 1899.5 1863.77 1900.09 1863.36 1900.69 1862.96 1901.12 1862.39 1901.39 1861.65 1901.67 1860.91 1901.8 1859.71 1901.8 1858.05L1901.8 1829.14C1901.8 1828.19 1901.64 1827.5 1901.31 1827.06 1900.97 1826.62 1900.49 1826.4 1899.84 1826.4 1899.08 1826.4 1898 1826.79 1896.6 1827.58 1895.2 1828.36 1893.46 1829.44 1891.4 1830.82L1889.83 1828.07Z" fill="#4D4D4D" fill-rule="evenodd"/><text fill="#000000" fill-opacity="0" font-family="Arial,Arial_MSFontService,sans-serif" font-size="49.2251" x="1889.83" y="1861.2">1</text><path d="M1926.48 1815.85C1933.42 1817.68 1938.75 1821.63 1942.46 1827.7 1946.18 1833.77 1948.04 1841.1 1948.04 1849.67 1948.04 1858.28 1946.19 1865.6 1942.48 1871.65 1938.77 1877.7 1933.44 1881.64 1926.48 1883.47L1925.62 1880.72C1931.11 1878.89 1935.19 1875.28 1937.87 1869.89 1940.54 1864.49 1941.88 1857.64 1941.88 1849.32 1941.88 1841.29 1940.55 1834.62 1937.88 1829.3 1935.22 1823.99 1931.1 1820.42 1925.52 1818.59Z" fill="#4D4D4D" fill-rule="evenodd"/><text fill="#000000" fill-opacity="0" font-family="Arial,Arial_MSFontService,sans-serif" font-size="67.6177" x="1925.52" y="1875.01">)</text><path d="M2176.09 1831.82C2178.42 1831.82 2180.22 1832.46 2181.49 1833.75 2182.76 1835.03 2183.4 1836.65 2183.4 1838.6 2183.4 1839.78 2183.27 1841.02 2183.01 1842.3L2180.69 1853.17C2180.48 1854.43 2180.3 1855.66 2180.15 1856.85 2180.01 1858.03 2179.94 1859.09 2179.94 1860.02 2179.94 1860.92 2180 1861.66 2180.12 1862.23 2180.24 1862.8 2180.39 1863.08 2180.58 1863.08 2181.25 1863.08 2182.11 1862.77 2183.17 1862.16 2184.22 1861.54 2185.36 1860.68 2186.59 1859.59 2187.81 1858.5 2189.04 1857.21 2190.26 1855.74 2191.48 1854.27 2192.59 1852.68 2193.57 1850.96 2194.56 1849.25 2195.36 1847.44 2195.96 1845.53 2196.57 1843.62 2196.87 1841.68 2196.87 1839.74 2196.87 1838.79 2196.69 1838.05 2196.32 1837.53 2195.95 1837 2195.37 1836.74 2194.59 1836.74 2193.71 1836.74 2192.9 1837.07 2192.15 1837.72 2191.4 1838.38 2190.63 1839.25 2189.85 1840.34L2187.35 1838.35C2188.85 1836.28 2190.52 1834.67 2192.36 1833.53 2194.2 1832.39 2196.25 1831.82 2198.51 1831.82 2200.75 1831.82 2202.33 1832.4 2203.25 1833.55 2204.18 1834.7 2204.64 1836.24 2204.64 1838.17 2204.64 1839.28 2204.43 1840.57 2204 1842.04 2203.57 1843.5 2202.96 1845.04 2202.15 1846.65 2201.34 1848.27 2200.39 1849.93 2199.3 1851.64 2198.2 1853.35 2196.99 1855.01 2195.66 1856.61 2194.33 1858.22 2192.91 1859.73 2191.4 1861.16 2189.89 1862.58 2188.32 1863.83 2186.7 1864.88 2185.07 1865.94 2183.42 1866.78 2181.74 1867.4 2180.07 1868.01 2178.38 1868.32 2176.7 1868.32 2175.44 1868.32 2174.4 1868.15 2173.6 1867.81 2172.79 1867.46 2172.2 1866.97 2171.83 1866.34 2171.46 1865.72 2171.22 1864.98 2171.1 1864.14 2170.98 1863.29 2170.92 1862.37 2170.92 1861.37 2170.92 1859.99 2171.01 1858.54 2171.17 1857.01 2171.34 1855.47 2171.55 1853.93 2171.81 1852.39L2173.99 1842.3C2174.13 1841.68 2174.25 1841.12 2174.34 1840.61 2174.44 1840.1 2174.49 1839.69 2174.49 1839.38 2174.49 1838.67 2174.34 1838.1 2174.04 1837.69 2173.74 1837.27 2173.13 1837.06 2172.21 1837.06 2170.73 1837.06 2168.63 1838.31 2165.9 1840.81L2163.69 1838.31C2164.8 1836.91 2166.47 1835.48 2168.69 1834.02 2170.92 1832.55 2173.38 1831.82 2176.09 1831.82Z" fill="#4D4D4D" fill-rule="evenodd"/><text fill="#000000" fill-opacity="0" font-family="Arial,Arial_MSFontService,sans-serif" font-size="36.5" x="2163.69" y="1863.76">𝒗</text><path d="M2232.31 1851.93 2276.22 1851.93 2276.22 1856.67 2232.31 1856.67ZM2232.31 1837.13 2276.22 1837.13 2276.22 1841.88 2232.31 1841.88Z" fill="#4D4D4D" fill-rule="evenodd"/><text fill="#000000" fill-opacity="0" font-family="Arial,Arial_MSFontService,sans-serif" font-size="19.5332" x="2232.31" y="1854.23">=</text><path d="M2330.35 1816.25 2331.31 1818.99C2325.75 1820.82 2321.64 1824.39 2318.96 1829.7 2316.29 1835.01 2314.95 1841.68 2314.95 1849.72 2314.95 1858.03 2316.29 1864.89 2318.96 1870.28 2321.64 1875.68 2325.72 1879.29 2331.21 1881.12L2330.35 1883.86C2323.39 1882.03 2318.05 1878.1 2314.35 1872.05 2310.64 1866 2308.79 1858.68 2308.79 1850.07 2308.79 1841.49 2310.65 1834.17 2314.37 1828.1 2318.08 1822.03 2323.41 1818.08 2330.35 1816.25Z" fill="#4D4D4D" fill-rule="evenodd"/><text fill="#000000" fill-opacity="0" font-family="Arial,Arial_MSFontService,sans-serif" font-size="67.6177" x="2308.79" y="1875.41">(</text><path d="M2355.76 1818.53 2357.72 1818.53C2357.58 1820.81 2357.51 1823.97 2357.51 1828.01L2357.51 1858.45C2357.51 1859.83 2357.59 1860.87 2357.74 1861.57 2357.89 1862.27 2358.17 1862.84 2358.56 1863.28 2358.95 1863.72 2359.52 1864.06 2360.25 1864.31 2360.99 1864.56 2361.92 1864.75 2363.03 1864.88 2364.15 1865.01 2365.62 1865.1 2367.45 1865.15L2367.45 1867.75 2341.11 1867.75 2341.11 1865.15C2343.75 1865.03 2345.63 1864.87 2346.76 1864.67 2347.89 1864.47 2348.75 1864.16 2349.35 1863.76 2349.94 1863.36 2350.37 1862.79 2350.65 1862.05 2350.92 1861.31 2351.06 1860.11 2351.06 1858.45L2351.06 1829.54C2351.06 1828.59 2350.89 1827.9 2350.56 1827.46 2350.22 1827.02 2349.74 1826.8 2349.1 1826.8 2348.34 1826.8 2347.25 1827.19 2345.85 1827.97 2344.45 1828.76 2342.72 1829.84 2340.65 1831.22L2339.08 1828.47Z" fill="#4D4D4D" fill-rule="evenodd"/><text fill="#000000" fill-opacity="0" font-family="Arial,Arial_MSFontService,sans-serif" font-size="49.2251" x="2339.08" y="1861.6">1</text><path d="M2378.19 1859.48 2384.43 1859.48C2384.76 1861.15 2384.93 1862.79 2384.93 1864.4 2384.93 1866.07 2384.64 1867.59 2384.07 1868.96 2383.5 1870.34 2382.59 1871.72 2381.34 1873.08 2380.1 1874.45 2378.38 1875.95 2376.19 1877.59L2374.27 1875.42C2375.48 1874.28 2376.36 1873.25 2376.91 1872.33 2377.45 1871.42 2377.84 1870.38 2378.08 1869.21 2378.32 1868.05 2378.44 1866.59 2378.44 1864.83 2378.44 1863.02 2378.35 1861.24 2378.19 1859.48Z" fill="#4D4D4D" fill-rule="evenodd"/><text fill="#000000" fill-opacity="0" font-family="Arial,Arial_MSFontService,sans-serif" font-size="18.1074" x="2374.27" y="1875.33">,</text><path d="M2405.83 1844.51 2449.75 1844.51 2449.75 1849.25 2405.83 1849.25Z" fill="#4D4D4D" fill-rule="evenodd"/><text fill="#000000" fill-opacity="0" font-family="Arial,Arial_MSFontService,sans-serif" font-size="4.74072" x="2405.83" y="1848.66">−</text><path d="M2478.55 1818.53 2480.51 1818.53C2480.37 1820.81 2480.3 1823.97 2480.3 1828.01L2480.3 1858.45C2480.3 1859.83 2480.37 1860.87 2480.53 1861.57 2480.68 1862.27 2480.96 1862.84 2481.35 1863.28 2481.74 1863.72 2482.3 1864.06 2483.04 1864.31 2483.78 1864.56 2484.7 1864.75 2485.82 1864.88 2486.94 1865.01 2488.41 1865.1 2490.24 1865.15L2490.24 1867.75 2463.9 1867.75 2463.9 1865.15C2466.54 1865.03 2468.42 1864.87 2469.55 1864.67 2470.68 1864.47 2471.54 1864.16 2472.13 1863.76 2472.73 1863.36 2473.16 1862.79 2473.43 1862.05 2473.71 1861.31 2473.84 1860.11 2473.84 1858.45L2473.84 1829.54C2473.84 1828.59 2473.68 1827.9 2473.35 1827.46 2473.01 1827.02 2472.53 1826.8 2471.88 1826.8 2471.12 1826.8 2470.04 1827.19 2468.64 1827.97 2467.24 1828.76 2465.5 1829.84 2463.44 1831.22L2461.87 1828.47Z" fill="#4D4D4D" fill-rule="evenodd"/><text fill="#000000" fill-opacity="0" font-family="Arial,Arial_MSFontService,sans-serif" font-size="49.2251" x="2461.87" y="1861.6">1</text><path d="M2498.52 1816.25C2505.46 1818.08 2510.78 1822.03 2514.5 1828.1 2518.22 1834.17 2520.08 1841.49 2520.08 1850.07 2520.08 1858.68 2518.23 1866 2514.52 1872.05 2510.81 1878.1 2505.48 1882.03 2498.52 1883.86L2497.66 1881.12C2503.15 1879.29 2507.23 1875.68 2509.91 1870.28 2512.58 1864.89 2513.92 1858.03 2513.92 1849.72 2513.92 1841.68 2512.58 1835.01 2509.92 1829.7 2507.26 1824.39 2503.14 1820.82 2497.55 1818.99Z" fill="#4D4D4D" fill-rule="evenodd"/><text fill="#000000" fill-opacity="0" font-family="Arial,Arial_MSFontService,sans-serif" font-size="67.6177" x="2497.55" y="1875.41">)</text></g></svg>