<svg width="4006" height="706" xmlns="http://www.w3.org/2000/svg" xmlns:xlink="http://www.w3.org/1999/xlink" xml:space="preserve" overflow="hidden"><g transform="translate(-197 -961)"><path d="M1004 1243.5 1144 1243.5 1144 1185 1261 1302 1144 1419 1144 1360.5 1004 1360.5Z" fill="#3E9288" fill-rule="evenodd"/><path d="M3131 1243.5 3272 1243.5 3272 1185 3389 1302 3272 1419 3272 1360.5 3131 1360.5Z" fill="#3E9288" fill-rule="evenodd"/><rect x="204" y="968" width="488" height="483" stroke="#3E9288" stroke-width="13.75" stroke-miterlimit="8" fill="#3E9288"/><path d="M418.071 987.745 423.664 987.745 421.435 997.755 433.755 997.755 432.864 1001.85 420.544 1001.85 416.937 1017.57C416.234 1020.63 415.788 1022.82 415.599 1024.16 415.41 1025.5 415.316 1026.57 415.316 1027.38 415.316 1030.73 416.707 1032.41 419.49 1032.41 420.679 1032.41 421.942 1031.95 423.279 1031.05 424.617 1030.14 426.204 1028.6 428.041 1026.41L430.392 1028.84C428.041 1031.68 425.778 1033.77 423.603 1035.12 421.428 1036.47 419.152 1037.15 416.775 1037.15 411.128 1037.15 408.304 1034.3 408.304 1028.6 408.304 1026.79 408.534 1024.88 408.993 1022.88L413.775 1001.85 406.967 1001.85 407.575 999.052C409.169 999.025 410.378 998.903 411.202 998.687 412.026 998.471 412.715 998.174 413.269 997.796 413.823 997.417 414.329 996.877 414.789 996.175 415.248 995.472 415.694 994.574 416.126 993.479 416.558 992.385 417.207 990.474 418.071 987.745Z" fill="#F8F8F8" fill-rule="evenodd"/><text fill="#000000" fill-opacity="0" font-family="Arial,Arial_MSFontService,sans-serif" font-size="49.4028" x="406.967" y="1030.97">­ЮЉА</text><path d="M451.329 1017.66C449.939 1017.66 448.778 1018.02 447.845 1018.75 446.911 1019.47 446.172 1020.53 445.626 1021.93 445.08 1023.33 444.692 1025.04 444.464 1027.06 444.236 1029.07 444.121 1031.36 444.121 1033.92 444.121 1036.88 444.265 1039.44 444.553 1041.59 444.841 1043.75 445.288 1045.52 445.894 1046.91 446.499 1048.3 447.259 1049.32 448.172 1049.98 449.086 1050.63 450.178 1050.96 451.449 1050.96 452.64 1050.96 453.682 1050.65 454.576 1050.04 455.47 1049.42 456.209 1048.46 456.795 1047.16 457.381 1045.86 457.823 1044.21 458.12 1042.22 458.418 1040.22 458.567 1037.86 458.567 1035.14 458.567 1032.09 458.403 1029.46 458.076 1027.25 457.748 1025.05 457.286 1023.24 456.691 1021.82 456.095 1020.4 455.345 1019.35 454.442 1018.67 453.539 1018 452.501 1017.66 451.329 1017.66ZM451.449 1014.77C453.812 1014.77 455.832 1015.21 457.51 1016.1 459.188 1016.98 460.558 1018.24 461.62 1019.88 462.683 1021.52 463.462 1023.52 463.958 1025.88 464.455 1028.24 464.703 1030.91 464.703 1033.89 464.703 1040.51 463.531 1045.5 461.188 1048.89 458.845 1052.28 455.45 1053.97 451.002 1053.97 446.594 1053.97 443.317 1052.37 441.173 1049.17 439.028 1045.98 437.956 1041.13 437.956 1034.64 437.956 1031.24 438.289 1028.3 438.954 1025.82 439.619 1023.34 440.552 1021.28 441.754 1019.64 442.955 1018 444.38 1016.78 446.028 1015.98 447.676 1015.17 449.483 1014.77 451.449 1014.77Z" fill="#F8F8F8" fill-rule="evenodd"/><text fill="#000000" fill-opacity="0" font-family="Arial,Arial_MSFontService,sans-serif" font-size="39.1973" x="437.956" y="1049.07">0</text><rect x="310" y="1075" width="488" height="482" stroke="#3E9288" stroke-width="13.75" stroke-miterlimit="8" fill="#3E9288"/><path d="M399.414 1094.25 405.007 1094.25 402.778 1104.26 415.098 1104.26 414.206 1108.35 401.886 1108.35 398.279 1124.07C397.577 1127.13 397.131 1129.32 396.942 1130.66 396.753 1132 396.658 1133.07 396.658 1133.88 396.658 1137.23 398.049 1138.91 400.832 1138.91 402.021 1138.91 403.284 1138.45 404.622 1137.55 405.959 1136.64 407.546 1135.1 409.384 1132.91L411.734 1135.34C409.384 1138.18 407.121 1140.27 404.946 1141.62 402.771 1142.97 400.495 1143.65 398.117 1143.65 392.47 1143.65 389.647 1140.8 389.647 1135.1 389.647 1133.29 389.876 1131.38 390.336 1129.38L395.118 1108.35 388.309 1108.35 388.917 1105.55C390.511 1105.53 391.72 1105.4 392.544 1105.19 393.368 1104.97 394.057 1104.68 394.611 1104.3 395.165 1103.92 395.672 1103.38 396.131 1102.68 396.59 1101.97 397.036 1101.07 397.468 1099.98 397.901 1098.89 398.549 1096.97 399.414 1094.25Z" fill="#F8F8F8" fill-rule="evenodd"/><text fill="#000000" fill-opacity="0" font-family="Arial,Arial_MSFontService,sans-serif" font-size="49.4028" x="388.309" y="1137.47">­ЮЉА</text><path d="M432.672 1124.16C431.282 1124.16 430.12 1124.52 429.187 1125.25 428.254 1125.97 427.514 1127.04 426.968 1128.44 426.422 1129.84 426.035 1131.54 425.806 1133.56 425.578 1135.57 425.464 1137.86 425.464 1140.42 425.464 1143.38 425.608 1145.94 425.896 1148.09 426.184 1150.25 426.63 1152.02 427.236 1153.41 427.842 1154.8 428.601 1155.82 429.515 1156.48 430.428 1157.13 431.52 1157.46 432.791 1157.46 433.982 1157.46 435.025 1157.15 435.918 1156.54 436.812 1155.92 437.552 1154.96 438.137 1153.66 438.723 1152.36 439.165 1150.72 439.463 1148.72 439.761 1146.72 439.91 1144.37 439.91 1141.65 439.91 1138.59 439.746 1135.96 439.418 1133.75 439.091 1131.55 438.629 1129.74 438.033 1128.32 437.438 1126.9 436.688 1125.85 435.784 1125.17 434.881 1124.5 433.843 1124.16 432.672 1124.16ZM432.791 1121.27C435.154 1121.27 437.174 1121.71 438.852 1122.6 440.53 1123.48 441.9 1124.74 442.963 1126.38 444.025 1128.02 444.804 1130.02 445.301 1132.38 445.797 1134.75 446.045 1137.42 446.045 1140.39 446.045 1147.01 444.874 1152.01 442.531 1155.39 440.188 1158.78 436.792 1160.47 432.344 1160.47 427.936 1160.47 424.66 1158.87 422.515 1155.67 420.371 1152.48 419.298 1147.63 419.298 1141.14 419.298 1137.74 419.631 1134.8 420.296 1132.32 420.961 1129.84 421.895 1127.78 423.096 1126.14 424.297 1124.5 425.722 1123.28 427.37 1122.48 429.018 1121.67 430.825 1121.27 432.791 1121.27Z" fill="#F8F8F8" fill-rule="evenodd"/><text fill="#000000" fill-opacity="0" font-family="Arial,Arial_MSFontService,sans-serif" font-size="39.1973" x="419.298" y="1155.57">0</text><path d="M499.831 1093.23 505.586 1093.23 505.586 1116.58 527.673 1116.58 527.673 1121.97 505.586 1121.97 505.586 1145.31 499.831 1145.31 499.831 1121.97 477.744 1121.97 477.744 1116.58 499.831 1116.58Z" fill="#F8F8F8" fill-rule="evenodd"/><text fill="#000000" fill-opacity="0" font-family="Arial,Arial_MSFontService,sans-serif" font-size="52.0776" x="477.744" y="1138.8">+</text><path d="M575.217 1087.03C580.242 1087.03 584.038 1088.13 586.605 1090.34 589.172 1092.54 590.455 1095.73 590.455 1099.92 590.455 1101.35 590.313 1102.67 590.029 1103.87 589.746 1105.07 589.3 1106.26 588.692 1107.44 588.084 1108.61 587.267 1109.88 586.24 1111.23 585.213 1112.58 584.079 1113.95 582.836 1115.34 581.593 1116.73 579.445 1119.05 576.392 1122.29 571.258 1127.72 567.489 1132.46 565.085 1136.52L580.364 1136.52C581.688 1136.52 582.755 1136.44 583.565 1136.27 584.376 1136.11 585.024 1135.84 585.511 1135.46 585.997 1135.08 586.382 1134.59 586.666 1133.98 586.949 1133.38 587.307 1132.44 587.74 1131.17L591.184 1131.17 590.495 1143 557.141 1143 557.141 1141.06C558.303 1138.22 559.87 1135.31 561.843 1132.34 563.815 1129.37 566.611 1125.87 570.232 1121.85 573.366 1118.39 575.622 1115.77 577 1113.98 578.513 1112.04 579.641 1110.36 580.384 1108.94 581.127 1107.52 581.661 1106.18 581.985 1104.93 582.309 1103.67 582.471 1102.41 582.471 1101.14 582.471 1099.11 582.147 1097.32 581.498 1095.77 580.85 1094.21 579.857 1092.99 578.52 1092.1 577.182 1091.21 575.5 1090.76 573.474 1090.76 568.422 1090.76 565.017 1093.57 563.261 1099.19L558.357 1099.19 558.357 1091.41C561.627 1089.87 564.686 1088.75 567.537 1088.07 570.387 1087.38 572.947 1087.03 575.217 1087.03Z" fill="#F8F8F8" fill-rule="evenodd"/><text fill="#000000" fill-opacity="0" font-family="Arial,Arial_MSFontService,sans-serif" font-size="55.9683" x="557.141" y="1136">2</text><path d="M606.987 1084.28 625.062 1084.28 625.062 1087.4 613.715 1087.4 613.715 1158.44 625.062 1158.44 625.062 1161.56 606.987 1161.56Z" fill="#F8F8F8" fill-rule="evenodd"/><text fill="#000000" fill-opacity="0" font-family="Arial,Arial_MSFontService,sans-serif" font-size="77.2856" x="606.987" y="1151.9">[</text><path d="M647.507 1085.05 649.858 1085.05 642.887 1113.13 643.374 1113.29C645.94 1109.89 648.365 1107.42 650.648 1105.9 652.931 1104.37 655.235 1103.61 657.558 1103.61 660.071 1103.61 662.003 1104.33 663.354 1105.78 664.704 1107.22 665.38 1109.23 665.38 1111.79 665.38 1113.5 664.988 1115.91 664.205 1119.05L661.57 1129.67C660.841 1132.61 660.476 1134.69 660.476 1135.91 660.476 1136.99 660.652 1137.77 661.003 1138.26 661.354 1138.75 661.908 1138.99 662.665 1138.99 663.475 1138.99 664.34 1138.66 665.258 1138 666.177 1137.33 667.474 1136.07 669.149 1134.21L671.459 1136.48C668.865 1139.2 666.738 1141.08 665.076 1142.11 663.414 1143.14 661.543 1143.65 659.463 1143.65 657.707 1143.65 656.309 1143.03 655.268 1141.78 654.228 1140.54 653.708 1138.93 653.708 1136.96 653.708 1135.21 654.154 1132.63 655.045 1129.22L656.788 1122.21C657.409 1119.7 657.828 1117.81 658.044 1116.56 658.261 1115.3 658.369 1114.32 658.369 1113.62 658.369 1111.7 658.058 1110.34 657.437 1109.55 656.815 1108.75 655.802 1108.35 654.397 1108.35 653.289 1108.35 652.06 1108.81 650.709 1109.73 649.358 1110.65 647.94 1112.04 646.454 1113.92 644.968 1115.8 643.786 1117.6 642.907 1119.31 642.029 1121.03 641.334 1123.07 640.82 1125.45L637.132 1143 630.121 1143 640.537 1096.68C641.185 1093.79 641.509 1091.79 641.509 1090.68 641.509 1089.54 641.165 1088.75 640.476 1088.29 639.787 1087.83 638.551 1087.57 636.768 1087.52L637.254 1085.41Z" fill="#F8F8F8" fill-rule="evenodd"/><text fill="#000000" fill-opacity="0" font-family="Arial,Arial_MSFontService,sans-serif" font-size="58.6025" x="630.121" y="1136.32">Рёј</text><path d="M675.389 1084.28 693.465 1084.28 693.465 1161.56 675.389 1161.56 675.389 1158.44 686.737 1158.44 686.737 1087.4 675.389 1087.4Z" fill="#F8F8F8" fill-rule="evenodd"/><text fill="#000000" fill-opacity="0" font-family="Arial,Arial_MSFontService,sans-serif" font-size="77.2856" x="675.389" y="1151.9">]</text><rect x="411" y="1178" width="488" height="482" stroke="#3E9288" stroke-width="13.75" stroke-miterlimit="8" fill="#3E9288"/><text fill="#F8F8F8" font-family="Segoe UI,Segoe UI_MSFontService,sans-serif" font-weight="400" font-size="83" transform="matrix(1 0 0 1 625.078 1246)">Рђд</text><text fill="#F8F8F8" font-family="Segoe UI,Segoe UI_MSFontService,sans-serif" font-weight="400" font-size="83" transform="matrix(1 0 0 1 483.567 1441)">10 x 10</text><text fill="#F8F8F8" font-family="Yu Gothic Medium,Yu Gothic Medium_MSFontService,sans-serif" font-weight="500" font-size="83" transform="matrix(1 0 0 1 744.817 1441)">сЂ«</text><text fill="#F8F8F8" font-family="Yu Gothic Medium,Yu Gothic Medium_MSFontService,sans-serif" font-weight="500" font-size="83" transform="matrix(1 0 0 1 572.942 1540)">жбежђЪ</text><rect x="3501" y="968" width="488" height="483" stroke="#3E9288" stroke-width="13.75" stroke-miterlimit="8" fill="#3E9288"/><path d="M3590.87 987.745 3596.46 987.745 3594.23 997.755 3606.55 997.755 3605.66 1001.85 3593.34 1001.85 3589.73 1017.57C3589.03 1020.63 3588.58 1022.82 3588.39 1024.16 3588.2 1025.5 3588.11 1026.57 3588.11 1027.38 3588.11 1030.73 3589.5 1032.41 3592.28 1032.41 3593.47 1032.41 3594.74 1031.95 3596.07 1031.05 3597.41 1030.14 3599 1028.6 3600.84 1026.41L3603.19 1028.84C3600.84 1031.68 3598.57 1033.77 3596.4 1035.12 3594.22 1036.47 3591.95 1037.15 3589.57 1037.15 3583.92 1037.15 3581.1 1034.3 3581.1 1028.6 3581.1 1026.79 3581.33 1024.88 3581.79 1022.88L3586.57 1001.85 3579.76 1001.85 3580.37 999.052C3581.96 999.025 3583.17 998.903 3584 998.687 3584.82 998.471 3585.51 998.174 3586.06 997.796 3586.62 997.417 3587.12 996.877 3587.58 996.175 3588.04 995.472 3588.49 994.574 3588.92 993.479 3589.35 992.385 3590 990.474 3590.87 987.745Z" fill="#F8F8F8" fill-rule="evenodd"/><text fill="#000000" fill-opacity="0" font-family="Arial,Arial_MSFontService,sans-serif" font-size="49.4028" x="3579.76" y="1030.97">­ЮЉА</text><path d="M3624.12 1017.66C3622.73 1017.66 3621.57 1018.02 3620.64 1018.75 3619.71 1019.47 3618.97 1020.53 3618.42 1021.93 3617.87 1023.33 3617.49 1025.04 3617.26 1027.06 3617.03 1029.07 3616.92 1031.36 3616.92 1033.92 3616.92 1036.88 3617.06 1039.44 3617.35 1041.59 3617.64 1043.75 3618.08 1045.52 3618.69 1046.91 3619.29 1048.3 3620.05 1049.32 3620.97 1049.98 3621.88 1050.63 3622.97 1050.96 3624.24 1050.96 3625.43 1050.96 3626.48 1050.65 3627.37 1050.04 3628.26 1049.42 3629 1048.46 3629.59 1047.16 3630.18 1045.86 3630.62 1044.21 3630.92 1042.22 3631.21 1040.22 3631.36 1037.86 3631.36 1035.14 3631.36 1032.09 3631.2 1029.46 3630.87 1027.25 3630.54 1025.05 3630.08 1023.24 3629.49 1021.82 3628.89 1020.4 3628.14 1019.35 3627.24 1018.67 3626.33 1018 3625.3 1017.66 3624.12 1017.66ZM3624.24 1014.77C3626.61 1014.77 3628.63 1015.21 3630.3 1016.1 3631.98 1016.98 3633.35 1018.24 3634.42 1019.88 3635.48 1021.52 3636.26 1023.52 3636.75 1025.88 3637.25 1028.24 3637.5 1030.91 3637.5 1033.89 3637.5 1040.51 3636.33 1045.5 3633.98 1048.89 3631.64 1052.28 3628.24 1053.97 3623.8 1053.97 3619.39 1053.97 3616.11 1052.37 3613.97 1049.17 3611.82 1045.98 3610.75 1041.13 3610.75 1034.64 3610.75 1031.24 3611.08 1028.3 3611.75 1025.82 3612.41 1023.34 3613.35 1021.28 3614.55 1019.64 3615.75 1018 3617.17 1016.78 3618.82 1015.98 3620.47 1015.17 3622.28 1014.77 3624.24 1014.77Z" fill="#F8F8F8" fill-rule="evenodd"/><text fill="#000000" fill-opacity="0" font-family="Arial,Arial_MSFontService,sans-serif" font-size="39.1973" x="3610.75" y="1049.07">0</text><path d="M3691.28 986.732 3697.04 986.732 3697.04 1010.08 3719.13 1010.08 3719.13 1015.47 3697.04 1015.47 3697.04 1038.81 3691.28 1038.81 3691.28 1015.47 3669.2 1015.47 3669.2 1010.08 3691.28 1010.08Z" fill="#F8F8F8" fill-rule="evenodd"/><text fill="#000000" fill-opacity="0" font-family="Arial,Arial_MSFontService,sans-serif" font-size="52.0776" x="3669.2" y="1032.3">+</text><path d="M3766.67 980.531C3771.69 980.531 3775.49 981.632 3778.06 983.834 3780.62 986.036 3781.91 989.231 3781.91 993.419 3781.91 994.851 3781.77 996.168 3781.48 997.37 3781.2 998.572 3780.75 999.761 3780.14 1000.94 3779.54 1002.11 3778.72 1003.37 3777.69 1004.73 3776.67 1006.08 3775.53 1007.45 3774.29 1008.84 3773.05 1010.23 3770.9 1012.55 3767.84 1015.79 3762.71 1021.22 3758.94 1025.96 3756.54 1030.01L3771.82 1030.01C3773.14 1030.01 3774.21 1029.93 3775.02 1029.77 3775.83 1029.61 3776.48 1029.34 3776.96 1028.96 3777.45 1028.58 3777.83 1028.09 3778.12 1027.48 3778.4 1026.87 3778.76 1025.94 3779.19 1024.67L3782.64 1024.67 3781.95 1036.5 3748.59 1036.5 3748.59 1034.55C3749.76 1031.72 3751.32 1028.81 3753.29 1025.84 3755.27 1022.87 3758.06 1019.37 3761.68 1015.34 3764.82 1011.89 3767.07 1009.26 3768.45 1007.48 3769.97 1005.54 3771.09 1003.85 3771.84 1002.44 3772.58 1001.02 3773.11 999.68 3773.44 998.424 3773.76 997.167 3773.92 995.904 3773.92 994.635 3773.92 992.608 3773.6 990.818 3772.95 989.265 3772.3 987.711 3771.31 986.489 3769.97 985.597 3768.63 984.705 3766.95 984.26 3764.93 984.26 3759.87 984.26 3756.47 987.069 3754.71 992.689L3749.81 992.689 3749.81 984.908C3753.08 983.368 3756.14 982.253 3758.99 981.564 3761.84 980.875 3764.4 980.531 3766.67 980.531Z" fill="#F8F8F8" fill-rule="evenodd"/><text fill="#000000" fill-opacity="0" font-family="Arial,Arial_MSFontService,sans-serif" font-size="55.9683" x="3748.59" y="1029.5">2</text><path d="M3798.44 977.775 3816.51 977.775 3816.51 980.896 3805.17 980.896 3805.17 1051.94 3816.51 1051.94 3816.51 1055.06 3798.44 1055.06Z" fill="#F8F8F8" fill-rule="evenodd"/><text fill="#000000" fill-opacity="0" font-family="Arial,Arial_MSFontService,sans-serif" font-size="77.2856" x="3798.44" y="1045.4">[</text><path d="M3830.21 978.505 3832.64 978.505 3832.64 1004.12 3832.8 1004.16C3834.91 1002.02 3836.58 1000.53 3837.8 999.68 3839.03 998.829 3840.25 998.187 3841.45 997.755 3842.65 997.323 3843.94 997.107 3845.32 997.107 3846.81 997.107 3848.13 997.282 3849.29 997.634 3850.46 997.985 3851.48 998.518 3852.35 999.234 3853.23 999.95 3853.95 1000.83 3854.5 1001.87 3855.06 1002.91 3855.47 1004.15 3855.74 1005.6 3856.01 1007.04 3856.14 1008.87 3856.14 1011.09L3856.14 1026.37C3856.14 1028.72 3856.24 1030.32 3856.45 1031.17 3856.65 1032.02 3857.01 1032.68 3857.54 1033.16 3858.07 1033.63 3859.13 1034.08 3860.72 1034.51L3860.72 1036.5 3844.76 1036.5 3844.76 1034.51C3845.81 1034.19 3846.57 1033.91 3847.02 1033.66 3847.48 1033.42 3847.87 1033.08 3848.18 1032.65 3848.49 1032.22 3848.73 1031.55 3848.91 1030.64 3849.08 1029.74 3849.17 1028.37 3849.17 1026.53L3849.17 1015.91C3849.17 1012.32 3848.99 1009.57 3848.63 1007.66 3848.26 1005.76 3847.54 1004.33 3846.48 1003.39 3845.41 1002.44 3843.92 1001.97 3842 1001.97 3840.92 1001.97 3839.95 1002.16 3839.08 1002.54 3838.22 1002.92 3837.22 1003.59 3836.08 1004.56 3834.95 1005.54 3834.09 1006.54 3833.51 1007.56 3832.93 1008.59 3832.64 1009.68 3832.64 1010.85L3832.64 1026.37C3832.64 1028.2 3832.68 1029.52 3832.78 1030.3 3832.87 1031.08 3833.06 1031.74 3833.33 1032.26 3833.6 1032.79 3834.01 1033.22 3834.56 1033.56 3835.12 1033.9 3835.97 1034.22 3837.14 1034.51L3837.14 1036.5 3821.09 1036.5 3821.09 1034.51C3822.28 1034.19 3823.13 1033.88 3823.64 1033.58 3824.15 1033.28 3824.55 1032.91 3824.84 1032.45 3825.12 1031.99 3825.33 1031.33 3825.46 1030.46 3825.6 1029.6 3825.67 1028.23 3825.67 1026.37L3825.67 992.446C3825.67 989.852 3825.65 988.042 3825.61 987.015 3825.57 985.989 3825.46 985.117 3825.28 984.401 3825.11 983.685 3824.86 983.125 3824.55 982.719 3824.24 982.314 3823.82 981.99 3823.3 981.747 3822.77 981.504 3821.82 981.26 3820.44 981.017L3820.44 978.91Z" fill="#F8F8F8" fill-rule="evenodd"/><text fill="#000000" fill-opacity="0" font-family="Arial,Arial_MSFontService,sans-serif" font-size="57.9946" x="3820.44" y="1029.25">h</text><path d="M3864.85 977.775 3882.92 977.775 3882.92 1055.06 3864.85 1055.06 3864.85 1051.94 3876.2 1051.94 3876.2 980.896 3864.85 980.896Z" fill="#F8F8F8" fill-rule="evenodd"/><text fill="#000000" fill-opacity="0" font-family="Arial,Arial_MSFontService,sans-serif" font-size="77.2856" x="3864.85" y="1045.4">]</text><rect x="3606" y="1075" width="488" height="482" stroke="#3E9288" stroke-width="13.75" stroke-miterlimit="8" fill="#3E9288"/><path d="M3695.67 1094.25 3701.26 1094.25 3699.04 1104.26 3711.36 1104.26 3710.46 1108.35 3698.14 1108.35 3694.54 1124.07C3693.83 1127.13 3693.39 1129.32 3693.2 1130.66 3693.01 1132 3692.92 1133.07 3692.92 1133.88 3692.92 1137.23 3694.31 1138.91 3697.09 1138.91 3698.28 1138.91 3699.54 1138.45 3700.88 1137.55 3702.22 1136.64 3703.8 1135.1 3705.64 1132.91L3707.99 1135.34C3705.64 1138.18 3703.38 1140.27 3701.2 1141.62 3699.03 1142.97 3696.75 1143.65 3694.38 1143.65 3688.73 1143.65 3685.91 1140.8 3685.91 1135.1 3685.91 1133.29 3686.13 1131.38 3686.59 1129.38L3691.38 1108.35 3684.57 1108.35 3685.18 1105.55C3686.77 1105.53 3687.98 1105.4 3688.8 1105.19 3689.63 1104.97 3690.32 1104.68 3690.87 1104.3 3691.42 1103.92 3691.93 1103.38 3692.39 1102.68 3692.85 1101.97 3693.29 1101.07 3693.73 1099.98 3694.16 1098.89 3694.81 1096.97 3695.67 1094.25Z" fill="#F8F8F8" fill-rule="evenodd"/><text fill="#000000" fill-opacity="0" font-family="Arial,Arial_MSFontService,sans-serif" font-size="49.4028" x="3684.57" y="1137.47">­ЮЉА</text><path d="M3728.93 1124.16C3727.54 1124.16 3726.38 1124.52 3725.45 1125.25 3724.51 1125.97 3723.77 1127.04 3723.23 1128.44 3722.68 1129.84 3722.29 1131.54 3722.06 1133.56 3721.84 1135.57 3721.72 1137.86 3721.72 1140.42 3721.72 1143.38 3721.87 1145.94 3722.15 1148.09 3722.44 1150.25 3722.89 1152.02 3723.49 1153.41 3724.1 1154.8 3724.86 1155.82 3725.77 1156.48 3726.69 1157.13 3727.78 1157.46 3729.05 1157.46 3730.24 1157.46 3731.28 1157.15 3732.18 1156.54 3733.07 1155.92 3733.81 1154.96 3734.4 1153.66 3734.98 1152.36 3735.42 1150.72 3735.72 1148.72 3736.02 1146.72 3736.17 1144.37 3736.17 1141.65 3736.17 1138.59 3736 1135.96 3735.68 1133.75 3735.35 1131.55 3734.89 1129.74 3734.29 1128.32 3733.7 1126.9 3732.95 1125.85 3732.04 1125.17 3731.14 1124.5 3730.1 1124.16 3728.93 1124.16ZM3729.05 1121.27C3731.41 1121.27 3733.43 1121.71 3735.11 1122.6 3736.79 1123.48 3738.16 1124.74 3739.22 1126.38 3740.28 1128.02 3741.06 1130.02 3741.56 1132.38 3742.06 1134.75 3742.3 1137.42 3742.3 1140.39 3742.3 1147.01 3741.13 1152.01 3738.79 1155.39 3736.45 1158.78 3733.05 1160.47 3728.6 1160.47 3724.19 1160.47 3720.92 1158.87 3718.77 1155.67 3716.63 1152.48 3715.56 1147.63 3715.56 1141.14 3715.56 1137.74 3715.89 1134.8 3716.55 1132.32 3717.22 1129.84 3718.15 1127.78 3719.35 1126.14 3720.56 1124.5 3721.98 1123.28 3723.63 1122.48 3725.28 1121.67 3727.08 1121.27 3729.05 1121.27Z" fill="#F8F8F8" fill-rule="evenodd"/><text fill="#000000" fill-opacity="0" font-family="Arial,Arial_MSFontService,sans-serif" font-size="39.1973" x="3715.56" y="1155.57">0</text><path d="M3796.09 1093.23 3801.84 1093.23 3801.84 1116.58 3823.93 1116.58 3823.93 1121.97 3801.84 1121.97 3801.84 1145.31 3796.09 1145.31 3796.09 1121.97 3774 1121.97 3774 1116.58 3796.09 1116.58Z" fill="#F8F8F8" fill-rule="evenodd"/><text fill="#000000" fill-opacity="0" font-family="Arial,Arial_MSFontService,sans-serif" font-size="52.0776" x="3774" y="1138.8">+</text><path d="M3873.83 1096.56 3857.98 1121.72 3857.98 1122.29 3873.83 1122.29 3873.83 1112.2C3873.83 1109.66 3873.87 1106.82 3873.95 1103.67 3874.03 1100.52 3874.12 1098.15 3874.23 1096.56ZM3875 1087.4 3880.8 1087.4 3880.8 1122.29 3881.65 1122.29C3883.21 1122.29 3884.34 1122.18 3885.01 1121.95 3885.69 1121.72 3886.25 1121.31 3886.69 1120.73 3887.14 1120.15 3887.55 1119.2 3887.93 1117.87L3891.01 1117.87 3890.52 1126.22 3880.8 1126.22 3880.8 1132.87C3880.8 1134.68 3880.86 1136 3880.98 1136.84 3881.1 1137.68 3881.3 1138.34 3881.59 1138.83 3881.87 1139.31 3882.29 1139.72 3882.84 1140.04 3883.4 1140.37 3884.3 1140.69 3885.54 1141.01L3885.54 1143 3869.08 1143 3869.08 1141.01C3870.76 1140.58 3871.88 1140.1 3872.45 1139.58 3873.02 1139.05 3873.39 1138.3 3873.56 1137.33 3873.74 1136.35 3873.83 1134.87 3873.83 1132.87L3873.83 1126.22 3851.29 1126.22 3851.29 1123.18Z" fill="#F8F8F8" fill-rule="evenodd"/><text fill="#000000" fill-opacity="0" font-family="Arial,Arial_MSFontService,sans-serif" font-size="55.6035" x="3851.29" y="1136.05">4</text><path d="M3903.25 1084.28 3921.32 1084.28 3921.32 1087.4 3909.97 1087.4 3909.97 1158.44 3921.32 1158.44 3921.32 1161.56 3903.25 1161.56Z" fill="#F8F8F8" fill-rule="evenodd"/><text fill="#000000" fill-opacity="0" font-family="Arial,Arial_MSFontService,sans-serif" font-size="77.2856" x="3903.25" y="1151.9">[</text><path d="M3943.77 1085.05 3946.12 1085.05 3939.15 1113.13 3939.63 1113.29C3942.2 1109.89 3944.62 1107.42 3946.91 1105.9 3949.19 1104.37 3951.49 1103.61 3953.82 1103.61 3956.33 1103.61 3958.26 1104.33 3959.61 1105.78 3960.96 1107.22 3961.64 1109.23 3961.64 1111.79 3961.64 1113.5 3961.25 1115.91 3960.46 1119.05L3957.83 1129.67C3957.1 1132.61 3956.73 1134.69 3956.73 1135.91 3956.73 1136.99 3956.91 1137.77 3957.26 1138.26 3957.61 1138.75 3958.17 1138.99 3958.92 1138.99 3959.73 1138.99 3960.6 1138.66 3961.52 1138 3962.44 1137.33 3963.73 1136.07 3965.41 1134.21L3967.72 1136.48C3965.12 1139.2 3963 1141.08 3961.33 1142.11 3959.67 1143.14 3957.8 1143.65 3955.72 1143.65 3953.97 1143.65 3952.57 1143.03 3951.53 1141.78 3950.49 1140.54 3949.97 1138.93 3949.97 1136.96 3949.97 1135.21 3950.41 1132.63 3951.3 1129.22L3953.05 1122.21C3953.67 1119.7 3954.09 1117.81 3954.3 1116.56 3954.52 1115.3 3954.63 1114.32 3954.63 1113.62 3954.63 1111.7 3954.32 1110.34 3953.7 1109.55 3953.07 1108.75 3952.06 1108.35 3950.66 1108.35 3949.55 1108.35 3948.32 1108.81 3946.97 1109.73 3945.62 1110.65 3944.2 1112.04 3942.71 1113.92 3941.23 1115.8 3940.04 1117.6 3939.17 1119.31 3938.29 1121.03 3937.59 1123.07 3937.08 1125.45L3933.39 1143 3926.38 1143 3936.8 1096.68C3937.44 1093.79 3937.77 1091.79 3937.77 1090.68 3937.77 1089.54 3937.42 1088.75 3936.73 1088.29 3936.05 1087.83 3934.81 1087.57 3933.03 1087.52L3933.51 1085.41Z" fill="#F8F8F8" fill-rule="evenodd"/><text fill="#000000" fill-opacity="0" font-family="Arial,Arial_MSFontService,sans-serif" font-size="58.6025" x="3926.38" y="1136.32">Рёј</text><path d="M3971.65 1084.28 3989.72 1084.28 3989.72 1161.56 3971.65 1161.56 3971.65 1158.44 3983 1158.44 3983 1087.4 3971.65 1087.4Z" fill="#F8F8F8" fill-rule="evenodd"/><text fill="#000000" fill-opacity="0" font-family="Arial,Arial_MSFontService,sans-serif" font-size="77.2856" x="3971.65" y="1151.9">]</text><rect x="3708" y="1178" width="488" height="482" stroke="#3E9288" stroke-width="13.75" stroke-miterlimit="8" fill="#3E9288"/><text fill="#F8F8F8" font-family="Segoe UI,Segoe UI_MSFontService,sans-serif" font-weight="400" font-size="83" transform="matrix(1 0 0 1 3921.34 1251)">Рђд</text><text fill="#F8F8F8" font-family="Segoe UI,Segoe UI_MSFontService,sans-serif" font-weight="400" font-size="83" transform="matrix(1 0 0 1 3779.83 1446)">10 x 10</text><text fill="#F8F8F8" font-family="Yu Gothic Medium,Yu Gothic Medium_MSFontService,sans-serif" font-weight="500" font-size="83" transform="matrix(1 0 0 1 4041.08 1446)">сЂ«</text><text fill="#F8F8F8" font-family="Yu Gothic Medium,Yu Gothic Medium_MSFontService,sans-serif" font-weight="500" font-size="83" transform="matrix(1 0 0 1 3869.2 1545)">жбежђЪ</text><path d="M1366 974 1854 1127.76 1854 1506.24 1366 1660Z" fill="#3E9288" fill-rule="evenodd"/><text fill="#F8F8F8" font-family="Segoe UI,Segoe UI_MSFontService,sans-serif" font-weight="400" font-size="83" transform="matrix(1 0 0 1 1511.8 1309)">CNN</text><text fill="#F8F8F8" font-family="Segoe UI,Segoe UI_MSFontService,sans-serif" font-weight="400" font-size="64" transform="matrix(1 0 0 1 1419.26 1388)">(</text><text fill="#F8F8F8" font-family="Yu Gothic Medium,Yu Gothic Medium_MSFontService,sans-serif" font-weight="500" font-size="64" transform="matrix(1 0 0 1 1438.74 1388)">сѓесЃ│сѓ│сЃ╝сЃђ</text><text fill="#F8F8F8" font-family="Segoe UI,Segoe UI_MSFontService,sans-serif" font-weight="400" font-size="64" transform="matrix(1 0 0 1 1759.57 1388)">)</text><rect x="1941" y="1132" width="532" height="368" fill="#C03936"/><text fill="#F8F8F8" font-family="Segoe UI,Segoe UI_MSFontService,sans-serif" font-weight="400" font-size="83" transform="matrix(1 0 0 1 2107.27 1347)">LSTM</text><path d="M3014 1662 2526 1508.24 2526 1130.76 3014 977Z" fill="#3E9288" fill-rule="evenodd"/><text fill="#F8F8F8" font-family="Segoe UI,Segoe UI_MSFontService,sans-serif" font-weight="400" font-size="83" transform="matrix(1 -2.44929e-16 2.44929e-16 1 2693.25 1312)">CNN</text><text fill="#F8F8F8" font-family="Segoe UI,Segoe UI_MSFontService,sans-serif" font-weight="400" font-size="64" transform="matrix(1 -2.44929e-16 2.44929e-16 1 2632.8 1391)">(</text><text fill="#F8F8F8" font-family="Yu Gothic Medium,Yu Gothic Medium_MSFontService,sans-serif" font-weight="500" font-size="64" transform="matrix(1 -2.44929e-16 2.44929e-16 1 2652.28 1391)">сЃЄ</text><text fill="#F8F8F8" font-family="Yu Gothic Medium,Yu Gothic Medium_MSFontService,sans-serif" font-weight="500" font-size="64" transform="matrix(1 -2.44929e-16 2.44929e-16 1 2716.45 1391)">сѓ│сЃ╝сЃђ</text><text fill="#F8F8F8" font-family="Segoe UI,Segoe UI_MSFontService,sans-serif" font-weight="400" font-size="64" transform="matrix(1 -2.44929e-16 2.44929e-16 1 2908.95 1391)">)</text></g></svg>