<svg width="3638" height="1440" xmlns="http://www.w3.org/2000/svg" xmlns:xlink="http://www.w3.org/1999/xlink" xml:space="preserve" overflow="hidden"><g transform="translate(-581 -663)"><path d="M1704 1805.5C1704 1799.7 1708.92 1795 1715 1795 1721.08 1795 1726 1799.7 1726 1805.5 1726 1811.3 1721.08 1816 1715 1816 1708.92 1816 1704 1811.3 1704 1805.5Z" fill="#C03936" fill-rule="evenodd"/><path d="M1730 1829.5C1730 1823.7 1734.93 1819 1741 1819 1747.08 1819 1752 1823.7 1752 1829.5 1752 1835.3 1747.08 1840 1741 1840 1734.93 1840 1730 1835.3 1730 1829.5Z" fill="#C03936" fill-rule="evenodd"/><path d="M1755 1853.5C1755 1847.7 1759.92 1843 1766 1843 1772.07 1843 1777 1847.7 1777 1853.5 1777 1859.3 1772.07 1864 1766 1864 1759.92 1864 1755 1859.3 1755 1853.5Z" fill="#C03936" fill-rule="evenodd"/><rect x="866.5" y="886.5" width="1128" height="1210" stroke="#3E9288" stroke-width="9.16667" stroke-miterlimit="8" fill="none"/><path d="M866.5 964.5 1994.89 964.5" stroke="#3E9288" stroke-width="9.16667" stroke-miterlimit="8" fill="none" fill-rule="evenodd"/><path d="M866.5 1043.5 1994.89 1043.5" stroke="#3E9288" stroke-width="9.16667" stroke-miterlimit="8" fill="none" fill-rule="evenodd"/><path d="M866.5 1225.5 1994.89 1225.5" stroke="#3E9288" stroke-width="9.16667" stroke-miterlimit="8" fill="none" fill-rule="evenodd"/><path d="M866.5 1307.5 1994.89 1307.5" stroke="#3E9288" stroke-width="9.16667" stroke-miterlimit="8" fill="none" fill-rule="evenodd"/><path d="M941.5 886.5 941.5 2095.85" stroke="#3E9288" stroke-width="9.16667" stroke-miterlimit="8" fill="none" fill-rule="evenodd"/><path d="M1020.5 886.5 1020.5 2095.85" stroke="#3E9288" stroke-width="9.16667" stroke-miterlimit="8" fill="none" fill-rule="evenodd"/><path d="M1257.5 886.5 1257.5 2095.85" stroke="#3E9288" stroke-width="9.16667" stroke-miterlimit="8" fill="none" fill-rule="evenodd"/><path d="M1488.5 886.5 1488.5 2095.85" stroke="#3E9288" stroke-width="9.16667" stroke-miterlimit="8" fill="none" fill-rule="evenodd"/><path d="M1181.5 886.5 1181.5 2095.85" stroke="#3E9288" stroke-width="9.16667" stroke-miterlimit="8" fill="none" fill-rule="evenodd"/><path d="M866.5 1563.5 1994.89 1563.5" stroke="#3E9288" stroke-width="9.16667" stroke-miterlimit="8" fill="none" fill-rule="evenodd"/><path d="M1065 1115.5C1065 1109.7 1069.92 1105 1076 1105 1082.07 1105 1087 1109.7 1087 1115.5 1087 1121.3 1082.07 1126 1076 1126 1069.92 1126 1065 1121.3 1065 1115.5Z" fill="#3E9288" fill-rule="evenodd"/><path d="M1090 1140C1090 1134.48 1095.15 1130 1101.5 1130 1107.85 1130 1113 1134.48 1113 1140 1113 1145.52 1107.85 1150 1101.5 1150 1095.15 1150 1090 1145.52 1090 1140Z" fill="#3E9288" fill-rule="evenodd"/><path d="M1116 1164.5C1116 1158.7 1120.93 1154 1127 1154 1133.08 1154 1138 1158.7 1138 1164.5 1138 1170.3 1133.08 1175 1127 1175 1120.93 1175 1116 1170.3 1116 1164.5Z" fill="#3E9288" fill-rule="evenodd"/><path d="M1336 1118C1336 1112.48 1340.93 1108 1347 1108 1353.08 1108 1358 1112.48 1358 1118 1358 1123.52 1353.08 1128 1347 1128 1340.93 1128 1336 1123.52 1336 1118Z" fill="#3E9288" fill-rule="evenodd"/><path d="M1361 1142.5C1361 1136.7 1365.92 1132 1372 1132 1378.07 1132 1383 1136.7 1383 1142.5 1383 1148.3 1378.07 1153 1372 1153 1365.92 1153 1361 1148.3 1361 1142.5Z" fill="#3E9288" fill-rule="evenodd"/><path d="M1387 1166.5C1387 1160.7 1391.92 1156 1398 1156 1404.08 1156 1409 1160.7 1409 1166.5 1409 1172.3 1404.08 1177 1398 1177 1391.92 1177 1387 1172.3 1387 1166.5Z" fill="#3E9288" fill-rule="evenodd"/><path d="M1065 1405.5C1065 1399.7 1069.92 1395 1076 1395 1082.07 1395 1087 1399.7 1087 1405.5 1087 1411.3 1082.07 1416 1076 1416 1069.92 1416 1065 1411.3 1065 1405.5Z" fill="#3E9288" fill-rule="evenodd"/><path d="M1090 1429.5C1090 1423.7 1095.15 1419 1101.5 1419 1107.85 1419 1113 1423.7 1113 1429.5 1113 1435.3 1107.85 1440 1101.5 1440 1095.15 1440 1090 1435.3 1090 1429.5Z" fill="#3E9288" fill-rule="evenodd"/><path d="M1116 1453.5C1116 1447.7 1120.93 1443 1127 1443 1133.08 1443 1138 1447.7 1138 1453.5 1138 1459.3 1133.08 1464 1127 1464 1120.93 1464 1116 1459.3 1116 1453.5Z" fill="#3E9288" fill-rule="evenodd"/><path d="M1329 1404.5C1329 1398.7 1333.92 1394 1340 1394 1346.07 1394 1351 1398.7 1351 1404.5 1351 1410.3 1346.07 1415 1340 1415 1333.92 1415 1329 1410.3 1329 1404.5Z" fill="#3E9288" fill-rule="evenodd"/><path d="M1355 1428.5C1355 1422.7 1359.93 1418 1366 1418 1372.08 1418 1377 1422.7 1377 1428.5 1377 1434.3 1372.08 1439 1366 1439 1359.93 1439 1355 1434.3 1355 1428.5Z" fill="#3E9288" fill-rule="evenodd"/><path d="M1380 1452.5C1380 1446.7 1384.93 1442 1391 1442 1397.08 1442 1402 1446.7 1402 1452.5 1402 1458.3 1397.08 1463 1391 1463 1384.93 1463 1380 1458.3 1380 1452.5Z" fill="#3E9288" fill-rule="evenodd"/><rect x="866.5" y="886.5" width="315" height="339" stroke="#C03936" stroke-width="9.16667" stroke-miterlimit="8" fill="none"/><rect x="1178.5" y="886.5" width="310" height="338" stroke="#C03936" stroke-width="9.16667" stroke-miterlimit="8" fill="none"/><rect x="866.5" y="1225.5" width="315" height="338" stroke="#C03936" stroke-width="9.16667" stroke-miterlimit="8" fill="none"/><rect x="1179.5" y="1225.5" width="309" height="338" stroke="#C03936" stroke-width="9.16667" stroke-miterlimit="8" fill="none"/><rect x="862.5" y="884.5" width="1132" height="1212" stroke="#C03936" stroke-width="9.16667" stroke-miterlimit="8" fill="none"/><path d="M889.417 843.917 1156.24 843.917 1156.24 853.084 889.417 853.083ZM894 862.25 866.5 848.5 894 834.75ZM1151.66 834.75 1179.16 848.5 1151.66 862.25Z" fill="#3E9288"/><text fill="#4D4D4D" font-family="Segoe UI,Segoe UI_MSFontService,sans-serif" font-weight="400" font-size="83" transform="matrix(1 0 0 1 975.124 804)">10</text><path d="M1201.42 843.917 1464.96 843.917 1464.96 853.084 1201.42 853.083ZM1206 862.25 1178.5 848.5 1206 834.75ZM1460.38 834.75 1487.88 848.5 1460.38 862.25Z" fill="#3E9288"/><text fill="#4D4D4D" font-family="Segoe UI,Segoe UI_MSFontService,sans-serif" font-weight="400" font-size="83" transform="matrix(1 0 0 1 1291.06 807)">10</text><path d="M4.58336 22.9166 4.58367 316.844-4.583 316.844-4.58331 22.9166ZM-13.75 27.5 0 0 13.75 27.5ZM13.7503 312.26 0.000360892 339.76-13.7497 312.26Z" fill="#3E9288" transform="matrix(1 0 0 -1 806.5 1233.26)"/><text fill="#4D4D4D" font-family="Segoe UI,Segoe UI_MSFontService,sans-serif" font-weight="400" font-size="83" transform="matrix(1 0 0 1 631.015 1073)">10</text><text fill="#4D4D4D" font-family="Segoe UI,Segoe UI_MSFontService,sans-serif" font-weight="400" font-size="83" transform="matrix(1 0 0 1 631.015 1431)">10</text><path d="M4.58336 22.9166 4.58367 316.844-4.583 316.844-4.58331 22.9166ZM-13.75 27.5 0 0 13.75 27.5ZM13.7503 312.26 0.000360892 339.76-13.7497 312.26Z" fill="#3E9288" transform="matrix(1 0 0 -1 806.5 1563.26)"/><path d="M2196 1345 2415.5 1345 2415.5 1223 2635 1467 2415.5 1711 2415.5 1589 2196 1589Z" fill="#3E9288" fill-rule="evenodd"/><text fill="#F8F8F8" font-family="Yu Gothic Medium,Yu Gothic Medium_MSFontService,sans-serif" font-weight="500" font-size="83" transform="matrix(1 0 0 1 2236.83 1495)">平均化</text><rect x="2767.5" y="862.5" width="1132" height="1212" stroke="#C03936" stroke-width="9.16667" stroke-miterlimit="8" fill="none"/><path d="M2771.5 1541.5 3899.89 1541.5" stroke="#C03936" stroke-width="9.16667" stroke-miterlimit="8" fill="none" fill-rule="evenodd"/><path d="M2771.5 1200.5 3899.89 1200.5" stroke="#C03936" stroke-width="9.16667" stroke-miterlimit="8" fill="none" fill-rule="evenodd"/><path d="M3084.5 862.5 3084.5 2074.63" stroke="#C03936" stroke-width="9.16667" stroke-miterlimit="8" fill="none" fill-rule="evenodd"/><path d="M3400.5 862.5 3400.5 2074.63" stroke="#C03936" stroke-width="9.16667" stroke-miterlimit="8" fill="none" fill-rule="evenodd"/><path d="M3613 1794.5C3613 1788.7 3617.93 1784 3624 1784 3630.08 1784 3635 1788.7 3635 1794.5 3635 1800.3 3630.08 1805 3624 1805 3617.93 1805 3613 1800.3 3613 1794.5Z" fill="#C03936" fill-rule="evenodd"/><path d="M3639 1819C3639 1813.48 3643.92 1809 3650 1809 3656.08 1809 3661 1813.48 3661 1819 3661 1824.52 3656.08 1829 3650 1829 3643.92 1829 3639 1824.52 3639 1819Z" fill="#C03936" fill-rule="evenodd"/><path d="M3664 1843.5C3664 1837.7 3668.92 1833 3675 1833 3681.08 1833 3686 1837.7 3686 1843.5 3686 1849.3 3681.08 1854 3675 1854 3668.92 1854 3664 1849.3 3664 1843.5Z" fill="#C03936" fill-rule="evenodd"/><path d="M2790.42 797.917 3876.45 797.917 3876.45 807.084 2790.42 807.083ZM2795 816.25 2767.5 802.5 2795 788.75ZM3871.86 788.751 3899.36 802.501 3871.86 816.251Z" fill="#C03936"/><text fill="#4D4D4D" font-family="Segoe UI,Segoe UI_MSFontService,sans-serif" font-weight="400" font-size="83" transform="matrix(1 0 0 1 3288.41 768)">48</text><path d="M4.58334 22.9158 4.58369 1189.21-4.58298 1189.21-4.58333 22.9158ZM-13.75 27.5 0 0 13.75 27.5ZM13.7504 1184.63 0.000360892 1212.13-13.7496 1184.63Z" fill="#C03936" transform="matrix(1 0 0 -1 4021.5 2074.63)"/><text fill="#4D4D4D" font-family="Segoe UI,Segoe UI_MSFontService,sans-serif" font-weight="400" font-size="83" transform="matrix(1 0 0 1 4079.87 1535)">5</text><text fill="#4D4D4D" font-family="Segoe UI,Segoe UI_MSFontService,sans-serif" font-weight="400" font-size="83" transform="matrix(1 0 0 1 4124.56 1535)">0</text></g></svg>