<svg width="4049" height="1767" xmlns="http://www.w3.org/2000/svg" xmlns:xlink="http://www.w3.org/1999/xlink" xml:space="preserve" overflow="hidden"><g transform="translate(-266 -416)"><rect x="389" y="506" width="26.9998" height="466" fill="#3E9288"/><text fill="#4D4D4D" font-family="Segoe UI,Segoe UI_MSFontService,sans-serif" font-weight="400" font-size="55" transform="matrix(-1.83697e-16 -1 1 -1.83697e-16 385.746 962)">48 x 50</text><text fill="#4D4D4D" font-family="Segoe UI,Segoe UI_MSFontService,sans-serif" font-weight="400" font-size="55" transform="matrix(1 0 0 1 387.686 487)">3</text><rect x="671" y="506" width="57.0001" height="466" fill="#3E9288"/><text fill="#4D4D4D" font-family="Segoe UI,Segoe UI_MSFontService,sans-serif" font-weight="400" font-size="55" transform="matrix(-1.83697e-16 -1 1 -1.83697e-16 667.977 962)">48 x 50</text><text fill="#4D4D4D" font-family="Segoe UI,Segoe UI_MSFontService,sans-serif" font-weight="400" font-size="55" transform="matrix(1 0 0 1 669.687 487)">1</text><text fill="#4D4D4D" font-family="Segoe UI,Segoe UI_MSFontService,sans-serif" font-weight="400" font-size="55" transform="matrix(1 0 0 1 699.478 487)">6</text><path d="M711.959 1023.5 711.958 1107.06 689.042 1107.06 689.042 1023.5ZM734.875 1095.6 700.5 1164.35 666.125 1095.6Z" fill="#4747C1"/><rect x="671" y="1284" width="57.0001" height="288" fill="#3E9288"/><text fill="#4D4D4D" font-family="Segoe UI,Segoe UI_MSFontService,sans-serif" font-weight="400" font-size="55" transform="matrix(-1.83697e-16 -1 1 -1.83697e-16 666.713 1565)">24 x 25</text><text fill="#4D4D4D" font-family="Segoe UI,Segoe UI_MSFontService,sans-serif" font-weight="400" font-size="55" transform="matrix(1 0 0 1 669.687 1266)">1</text><text fill="#4D4D4D" font-family="Segoe UI,Segoe UI_MSFontService,sans-serif" font-weight="400" font-size="55" transform="matrix(1 0 0 1 699.478 1266)">6</text><rect x="1023" y="1284" width="147" height="288" fill="#3E9288"/><text fill="#4D4D4D" font-family="Segoe UI,Segoe UI_MSFontService,sans-serif" font-weight="400" font-size="55" transform="matrix(-1.83697e-16 -1 1 -1.83697e-16 1018.48 1565)">24 x 25</text><text fill="#4D4D4D" font-family="Segoe UI,Segoe UI_MSFontService,sans-serif" font-weight="400" font-size="55" transform="matrix(1 0 0 1 1066.69 1266)">3</text><text fill="#4D4D4D" font-family="Segoe UI,Segoe UI_MSFontService,sans-serif" font-weight="400" font-size="55" transform="matrix(1 0 0 1 1096.48 1266)">2</text><rect x="1027" y="1864" width="147" height="171" fill="#3E9288"/><text fill="#4D4D4D" font-family="Segoe UI,Segoe UI_MSFontService,sans-serif" font-weight="400" font-size="55" transform="matrix(-1.83697e-16 -1 1 -1.83697e-16 1018.48 2028)">12</text><text fill="#4D4D4D" font-family="Segoe UI,Segoe UI_MSFontService,sans-serif" font-weight="400" font-size="37" transform="matrix(-1.83697e-16 -1 1 -1.83697e-16 1001.48 1968)">2</text><text fill="#4D4D4D" font-family="Segoe UI,Segoe UI_MSFontService,sans-serif" font-weight="400" font-size="55" transform="matrix(1 0 0 1 1070.92 1846)">3</text><text fill="#4D4D4D" font-family="Segoe UI,Segoe UI_MSFontService,sans-serif" font-weight="400" font-size="55" transform="matrix(1 0 0 1 1100.71 1846)">2</text><path d="M1241.5 1951.04 1446.72 1951.04 1446.72 1973.96 1241.5 1973.96ZM1435.26 1928.13 1504.01 1962.5 1435.26 1996.88Z" fill="#3E9288"/><text fill="#4D4D4D" font-family="Yu Gothic Medium,Yu Gothic Medium_MSFontService,sans-serif" font-weight="500" font-size="55" transform="matrix(1 0 0 1 1275.02 1908)">平滑化</text><rect x="1541" y="1866" width="541" height="171" fill="#C03936"/><text fill="#F8F8F8" font-family="Segoe UI,Segoe UI_MSFontService,sans-serif" font-weight="400" font-size="83" transform="matrix(1 0 0 1 1711.64 1982)">LSTM</text><path d="M2109.5 1951.04 2266.64 1951.04 2266.64 1973.96 2109.5 1973.96ZM2255.18 1928.13 2323.93 1962.5 2255.18 1996.88Z" fill="#3E9288"/><rect x="2407" y="1864" width="147" height="171" fill="#3E9288"/><text fill="#4D4D4D" font-family="Segoe UI,Segoe UI_MSFontService,sans-serif" font-weight="400" font-size="55" transform="matrix(-1.83697e-16 -1 1 -1.83697e-16 2398.22 2028)">12</text><text fill="#4D4D4D" font-family="Segoe UI,Segoe UI_MSFontService,sans-serif" font-weight="400" font-size="37" transform="matrix(-1.83697e-16 -1 1 -1.83697e-16 2381.22 1968)">2</text><text fill="#4D4D4D" font-family="Segoe UI,Segoe UI_MSFontService,sans-serif" font-weight="400" font-size="55" transform="matrix(1 0 0 1 2450.66 1846)">3</text><text fill="#4D4D4D" font-family="Segoe UI,Segoe UI_MSFontService,sans-serif" font-weight="400" font-size="55" transform="matrix(1 0 0 1 2480.45 1846)">2</text><rect x="2403" y="1285" width="147" height="287" fill="#3E9288"/><text fill="#4D4D4D" font-family="Segoe UI,Segoe UI_MSFontService,sans-serif" font-weight="400" font-size="55" transform="matrix(-1.83697e-16 -1 1 -1.83697e-16 2229.16 1559)">24 x 25</text><text fill="#4D4D4D" font-family="Segoe UI,Segoe UI_MSFontService,sans-serif" font-weight="400" font-size="55" transform="matrix(1 0 0 1 2372.91 1266)">6</text><text fill="#4D4D4D" font-family="Segoe UI,Segoe UI_MSFontService,sans-serif" font-weight="400" font-size="55" transform="matrix(1 0 0 1 2402.7 1266)">4</text><rect x="2256.5" y="1284.5" width="147" height="288" stroke="#3E9288" stroke-width="4.58333" stroke-miterlimit="8" stroke-dasharray="18.3333 13.75" fill="none"/><path d="M2469.04 1766.35 2469.04 1682.79 2491.96 1682.79 2491.96 1766.35ZM2446.13 1694.25 2480.5 1625.5 2514.88 1694.25Z" fill="#C03936"/><rect x="2838" y="1284" width="147" height="288" fill="#3E9288"/><text fill="#4D4D4D" font-family="Segoe UI,Segoe UI_MSFontService,sans-serif" font-weight="400" font-size="55" transform="matrix(-1.83697e-16 -1 1 -1.83697e-16 2833.31 1565)">24 x 25</text><text fill="#4D4D4D" font-family="Segoe UI,Segoe UI_MSFontService,sans-serif" font-weight="400" font-size="55" transform="matrix(1 0 0 1 2881.52 1266)">3</text><text fill="#4D4D4D" font-family="Segoe UI,Segoe UI_MSFontService,sans-serif" font-weight="400" font-size="55" transform="matrix(1 0 0 1 2911.31 1266)">2</text><rect x="2885" y="513" width="56" height="466" fill="#3E9288"/><text fill="#4D4D4D" font-family="Segoe UI,Segoe UI_MSFontService,sans-serif" font-weight="400" font-size="55" transform="matrix(-1.83697e-16 -1 1 -1.83697e-16 2810.98 971)">48 x 50</text><text fill="#4D4D4D" font-family="Segoe UI,Segoe UI_MSFontService,sans-serif" font-weight="400" font-size="55" transform="matrix(1 0 0 1 2854.58 487)">3</text><text fill="#4D4D4D" font-family="Segoe UI,Segoe UI_MSFontService,sans-serif" font-weight="400" font-size="55" transform="matrix(1 0 0 1 2884.37 487)">2</text><rect x="2828.5" y="516.5" width="56" height="463" stroke="#3E9288" stroke-width="4.58333" stroke-miterlimit="8" stroke-dasharray="18.3333 13.75" fill="none"/><rect x="3298" y="506" width="57" height="466" fill="#3E9288"/><text fill="#4D4D4D" font-family="Segoe UI,Segoe UI_MSFontService,sans-serif" font-weight="400" font-size="55" transform="matrix(-1.83697e-16 -1 1 -1.83697e-16 3295.19 962)">48 x 50</text><text fill="#4D4D4D" font-family="Segoe UI,Segoe UI_MSFontService,sans-serif" font-weight="400" font-size="55" transform="matrix(1 0 0 1 3296.89 487)">1</text><text fill="#4D4D4D" font-family="Segoe UI,Segoe UI_MSFontService,sans-serif" font-weight="400" font-size="55" transform="matrix(1 0 0 1 3326.69 487)">6</text><rect x="3703" y="506" width="27.0002" height="466" fill="#3E9288"/><text fill="#4D4D4D" font-family="Segoe UI,Segoe UI_MSFontService,sans-serif" font-weight="400" font-size="55" transform="matrix(-1.83697e-16 -1 1 -1.83697e-16 3699.55 962)">48 x 50</text><text fill="#4D4D4D" font-family="Segoe UI,Segoe UI_MSFontService,sans-serif" font-weight="400" font-size="55" transform="matrix(1 0 0 1 3701.49 487)">3</text><rect x="4064" y="538" width="26.9998" height="393" fill="#3E9288"/><text fill="#4D4D4D" font-family="Segoe UI,Segoe UI_MSFontService,sans-serif" font-weight="400" font-size="55" transform="matrix(-1.83697e-16 -1 1 -1.83697e-16 4056.24 926)">3</text><text fill="#4D4D4D" font-family="Segoe UI,Segoe UI_MSFontService,sans-serif" font-weight="400" font-size="55" transform="matrix(-1.83697e-16 -1 1 -1.83697e-16 4056.24 897)">8</text><text fill="#4D4D4D" font-family="Segoe UI,Segoe UI_MSFontService,sans-serif" font-weight="400" font-size="55" transform="matrix(-1.83697e-16 -1 1 -1.83697e-16 4056.24 852)">x 40</text><text fill="#4D4D4D" font-family="Segoe UI,Segoe UI_MSFontService,sans-serif" font-weight="400" font-size="55" transform="matrix(1 0 0 1 4062.36 488)">3</text><path d="M473 693.5 548.5 693.5 548.5 655 624 732 548.5 809 548.5 770.5 473 770.5Z" fill="#3E9288" fill-rule="evenodd"/><path d="M790 1387.5 865.5 1387.5 865.5 1349 941 1426 865.5 1503 865.5 1464.5 790 1464.5Z" fill="#3E9288" fill-rule="evenodd"/><path d="M1107.96 1630.5 1107.96 1714.06 1085.04 1714.06 1085.04 1630.5ZM1130.88 1702.6 1096.5 1771.35 1062.12 1702.6Z" fill="#4747C1"/><path d="M2609 1390.25 2684.5 1390.25 2684.5 1352 2760 1428.5 2684.5 1505 2684.5 1466.75 2609 1466.75Z" fill="#3E9288" fill-rule="evenodd"/><path d="M2900.04 1173.35 2900.04 1089.79 2922.96 1089.79 2922.96 1173.35ZM2877.13 1101.25 2911.5 1032.5 2945.88 1101.25Z" fill="#C03936"/><path d="M3036 696.5 3111.5 696.5 3111.5 658 3187 735 3111.5 812 3111.5 773.5 3036 773.5Z" fill="#3E9288" fill-rule="evenodd"/><path d="M3451 697.5 3526.5 697.5 3526.5 659 3602 736 3526.5 813 3526.5 774.5 3451 774.5Z" fill="#3E9288" fill-rule="evenodd"/><path d="M1254.5 1388 2096.5 1388 2096.5 1349.5 2173.5 1426.5 2096.5 1503.5 2096.5 1465 1254.5 1465Z" stroke="#3E9288" stroke-width="9.16667" stroke-miterlimit="8" fill="none" fill-rule="evenodd"/><path d="M816.5 697 2662.5 697 2662.5 658.5 2739.5 735.5 2662.5 812.5 2662.5 774 816.5 774Z" stroke="#3E9288" stroke-width="9.16667" stroke-miterlimit="8" fill="none" fill-rule="evenodd"/><text fill="#4D4D4D" font-family="Yu Gothic Medium,Yu Gothic Medium_MSFontService,sans-serif" font-weight="500" font-size="55" transform="matrix(1 0 0 1 2098.82 1906)">二次元</text><text fill="#4D4D4D" font-family="Yu Gothic Medium,Yu Gothic Medium_MSFontService,sans-serif" font-weight="500" font-size="55" transform="matrix(1 0 0 1 2263.82 1906)">化</text><path d="M3782.5 718.042 3939.64 718.042 3939.64 740.959 3782.5 740.958ZM3928.18 695.125 3996.93 729.5 3928.18 763.875Z" fill="#3E9288"/><text fill="#4D4D4D" font-family="Yu Gothic Medium,Yu Gothic Medium_MSFontService,sans-serif" font-weight="500" font-size="55" transform="matrix(1 0 0 1 3772.66 673)">切り取り</text><path d="M3184 1389.5 3259 1389.5 3259 1351 3334 1428 3259 1505 3259 1466.5 3184 1466.5Z" fill="#3E9288" fill-rule="evenodd"/><text fill="#4D4D4D" font-family="Yu Gothic Medium,Yu Gothic Medium_MSFontService,sans-serif" font-weight="500" font-size="64" transform="matrix(1 0 0 1 3367.32 1449)">畳み込み</text><text fill="#4D4D4D" font-family="Segoe UI,Segoe UI_MSFontService,sans-serif" font-weight="400" font-size="64" transform="matrix(1 0 0 1 3623.99 1449)">, </text><text fill="#4D4D4D" font-family="Yu Gothic Medium,Yu Gothic Medium_MSFontService,sans-serif" font-weight="500" font-size="64" transform="matrix(1 0 0 1 3655.5 1449)">バッチ正規化</text><text fill="#4D4D4D" font-family="Segoe UI,Segoe UI_MSFontService,sans-serif" font-weight="400" font-size="64" transform="matrix(1 0 0 1 4040.5 1449)">, tanh</text><path d="M3264.96 1597.5 3264.96 1681.06 3242.04 1681.06 3242.04 1597.5ZM3287.88 1669.6 3253.5 1738.35 3219.12 1669.6Z" fill="#4747C1"/><text fill="#4D4D4D" font-family="Segoe UI,Segoe UI_MSFontService,sans-serif" font-weight="400" font-size="64" transform="matrix(1 0 0 1 3372.35 1690)">2 x 2 Max Pooling</text><path d="M3242.04 1941.35 3242.04 1857.79 3264.96 1857.79 3264.96 1941.35ZM3219.13 1869.25 3253.5 1800.5 3287.88 1869.25Z" fill="#C03936"/><text fill="#4D4D4D" font-family="Segoe UI,Segoe UI_MSFontService,sans-serif" font-weight="400" font-size="64" transform="matrix(1 0 0 1 3373.73 1892)">2 x 2 </text><text fill="#4D4D4D" font-family="Yu Gothic Medium,Yu Gothic Medium_MSFontService,sans-serif" font-weight="500" font-size="64" transform="matrix(1 0 0 1 3524.98 1892)">逆畳み込み</text><path d="M3187.5 2056 3261 2056 3261 2017.5 3334.5 2094.5 3261 2171.5 3261 2133 3187.5 2133Z" stroke="#3E9288" stroke-width="9.16667" stroke-miterlimit="8" fill="none" fill-rule="evenodd"/><text fill="#4D4D4D" font-family="Yu Gothic Medium,Yu Gothic Medium_MSFontService,sans-serif" font-weight="500" font-size="64" transform="matrix(1 0 0 1 3367.32 2114)">コピー</text></g></svg>