<svg width="3440" height="1719" xmlns="http://www.w3.org/2000/svg" xmlns:xlink="http://www.w3.org/1999/xlink" xml:space="preserve" overflow="hidden"><g transform="translate(-507 -782)"><rect x="609" y="789" width="488" height="482" stroke="#3E9288" stroke-width="13.75" stroke-miterlimit="8" fill="#3E9288"/><path d="M834.29 808.313 839.883 808.313 837.654 818.323 849.974 818.323 849.082 822.416 836.762 822.416 833.155 838.141C832.453 841.194 832.007 843.389 831.818 844.727 831.628 846.064 831.534 847.138 831.534 847.949 831.534 851.299 832.925 852.974 835.708 852.974 836.897 852.974 838.16 852.521 839.498 851.616 840.835 850.711 842.422 849.164 844.26 846.976L846.61 849.408C844.26 852.244 841.997 854.338 839.822 855.689 837.647 857.04 835.371 857.716 832.993 857.716 827.346 857.716 824.523 854.865 824.523 849.164 824.523 847.354 824.752 845.449 825.212 843.45L829.994 822.416 823.185 822.416 823.793 819.62C825.387 819.593 826.596 819.471 827.42 819.255 828.244 819.039 828.933 818.742 829.487 818.364 830.041 817.985 830.548 817.445 831.007 816.742 831.466 816.04 831.912 815.142 832.344 814.047 832.777 812.953 833.425 811.042 834.29 808.313Z" fill="#F8F8F8" fill-rule="evenodd"/><text fill="#000000" fill-opacity="0" font-family="Arial,Arial_MSFontService,sans-serif" font-size="49.4028" x="823.185" y="851.54">𝑡</text><path d="M867.548 838.228C866.158 838.228 864.996 838.591 864.063 839.315 863.13 840.04 862.39 841.103 861.844 842.503 861.298 843.902 860.911 845.61 860.682 847.626 860.454 849.641 860.34 851.93 860.34 854.491 860.34 857.45 860.484 860.006 860.772 862.161 861.06 864.315 861.506 866.087 862.112 867.477 862.718 868.867 863.477 869.89 864.391 870.545 865.304 871.201 866.396 871.528 867.667 871.528 868.858 871.528 869.901 871.22 870.794 870.605 871.688 869.989 872.428 869.031 873.013 867.731 873.599 866.43 874.041 864.782 874.339 862.786 874.637 860.791 874.786 858.433 874.786 855.712 874.786 852.654 874.622 850.023 874.294 847.819 873.967 845.615 873.505 843.803 872.909 842.383 872.314 840.964 871.564 839.916 870.66 839.241 869.757 838.566 868.719 838.228 867.548 838.228ZM867.667 835.339C870.03 835.339 872.05 835.781 873.728 836.665 875.406 837.548 876.776 838.809 877.839 840.447 878.901 842.086 879.68 844.086 880.177 846.449 880.673 848.812 880.921 851.483 880.921 854.461 880.921 861.074 879.75 866.073 877.407 869.458 875.064 872.844 871.668 874.536 867.22 874.536 862.812 874.536 859.536 872.938 857.391 869.741 855.247 866.544 854.174 861.699 854.174 855.206 854.174 851.81 854.507 848.872 855.172 846.389 855.837 843.907 856.771 841.847 857.972 840.209 859.173 838.571 860.598 837.35 862.246 836.545 863.894 835.741 865.701 835.339 867.667 835.339Z" fill="#F8F8F8" fill-rule="evenodd"/><text fill="#000000" fill-opacity="0" font-family="Arial,Arial_MSFontService,sans-serif" font-size="39.1973" x="854.174" y="869.637">0</text><text fill="#F8F8F8" font-family="Yu Gothic Medium,Yu Gothic Medium_MSFontService,sans-serif" font-weight="500" font-size="83" transform="matrix(1 0 0 1 770.846 1052)">流速</text><text fill="#F8F8F8" font-family="Yu Gothic Medium,Yu Gothic Medium_MSFontService,sans-serif" font-weight="500" font-size="83" transform="matrix(1 0 0 1 770.846 1151)">圧力</text><path d="M1278 979.25 1419.5 979.25 1419.5 921 1536 1037.5 1419.5 1154 1419.5 1095.75 1278 1095.75Z" fill="#3E9288" fill-rule="evenodd"/><rect x="1717" y="904.5" width="845.5" height="361.5" fill="#3E9288"/><path d="M2562.5 904.5 2683 784 2683 1145.5 2562.5 1266Z" fill="#32756D" fill-rule="evenodd"/><path d="M1717 904.5 1837.5 784 2683 784 2562.5 904.5Z" fill="#64A79F" fill-rule="evenodd"/><text fill="#F8F8F8" font-family="Yu Gothic Medium,Yu Gothic Medium_MSFontService,sans-serif" font-weight="500" font-size="83" transform="matrix(1 0 0 1 1892.25 1064)">リカレント</text><text fill="#F8F8F8" font-family="Yu Gothic Medium,Yu Gothic Medium_MSFontService,sans-serif" font-weight="500" font-size="83" transform="matrix(1 0 0 1 2304.75 1064)">な</text><text fill="#F8F8F8" font-family="Yu Gothic Medium,Yu Gothic Medium_MSFontService,sans-serif" font-weight="500" font-size="83" transform="matrix(1 0 0 1 1892.25 1163)">重み成分</text><text fill="#F8F8F8" font-family="Yu Gothic Medium,Yu Gothic Medium_MSFontService,sans-serif" font-weight="500" font-size="83" transform="matrix(1 0 0 1 2222.25 1163)">なし</text><path d="M2864 979.25 3005.5 979.25 3005.5 921 3122 1037.5 3005.5 1154 3005.5 1095.75 2864 1095.75Z" fill="#3E9288" fill-rule="evenodd"/><path d="M1314 1919.5 1454 1919.5 1454 1861 1571 1978 1454 2095 1454 2036.5 1314 2036.5Z" fill="#3E9288" fill-rule="evenodd"/><rect x="1722" y="1857.5" width="845.501" height="361.5" fill="#C55A11"/><path d="M2567.5 1857.5 2688 1737 2688 2098.5 2567.5 2219Z" fill="#9E480E" fill-rule="evenodd"/><path d="M1722 1857.5 1842.5 1737 2688 1737 2567.5 1857.5Z" fill="#D07A40" fill-rule="evenodd"/><text fill="#F8F8F8" font-family="Yu Gothic Medium,Yu Gothic Medium_MSFontService,sans-serif" font-weight="500" font-size="83" transform="matrix(1 0 0 1 1896.83 2016)">リカレント</text><text fill="#F8F8F8" font-family="Yu Gothic Medium,Yu Gothic Medium_MSFontService,sans-serif" font-weight="500" font-size="83" transform="matrix(1 0 0 1 2309.33 2016)">な</text><text fill="#F8F8F8" font-family="Yu Gothic Medium,Yu Gothic Medium_MSFontService,sans-serif" font-weight="500" font-size="83" transform="matrix(1 0 0 1 1896.83 2115)">重み成分</text><text fill="#F8F8F8" font-family="Yu Gothic Medium,Yu Gothic Medium_MSFontService,sans-serif" font-weight="500" font-size="83" transform="matrix(1 0 0 1 2226.83 2115)">あり</text><path d="M2838 1919.5 2979 1919.5 2979 1861 3096 1978 2979 2095 2979 2036.5 2838 2036.5Z" fill="#3E9288" fill-rule="evenodd"/><rect x="3294" y="790" width="488" height="482" stroke="#3E9288" stroke-width="13.75" stroke-miterlimit="8" fill="#3E9288"/><path d="M3408.22 808.766 3413.81 808.766 3411.58 818.777 3423.9 818.777 3423.01 822.87 3410.69 822.87 3407.08 838.595C3406.38 841.648 3405.93 843.843 3405.74 845.18 3405.55 846.518 3405.46 847.592 3405.46 848.402 3405.46 851.753 3406.85 853.428 3409.63 853.428 3410.82 853.428 3412.09 852.975 3413.42 852.07 3414.76 851.165 3416.35 849.618 3418.19 847.43L3420.54 849.861C3418.19 852.698 3415.92 854.792 3413.75 856.143 3411.57 857.494 3409.3 858.169 3406.92 858.169 3401.27 858.169 3398.45 855.319 3398.45 849.618 3398.45 847.808 3398.68 845.903 3399.14 843.904L3403.92 822.87 3397.11 822.87 3397.72 820.074C3399.31 820.047 3400.52 819.925 3401.35 819.709 3402.17 819.493 3402.86 819.195 3403.41 818.817 3403.97 818.439 3404.47 817.899 3404.93 817.196 3405.39 816.494 3405.84 815.595 3406.27 814.501 3406.7 813.407 3407.35 811.495 3408.22 808.766Z" fill="#F8F8F8" fill-rule="evenodd"/><text fill="#000000" fill-opacity="0" font-family="Arial,Arial_MSFontService,sans-serif" font-size="49.4028" x="3397.11" y="851.994">𝑡</text><path d="M3441.47 838.682C3440.08 838.682 3438.92 839.044 3437.99 839.769 3437.06 840.494 3436.32 841.556 3435.77 842.956 3435.22 844.356 3434.84 846.064 3434.61 848.079 3434.38 850.095 3434.27 852.383 3434.27 854.945 3434.27 857.903 3434.41 860.46 3434.7 862.614 3434.99 864.769 3435.43 866.541 3436.04 867.931 3436.64 869.321 3437.4 870.344 3438.32 870.999 3439.23 871.654 3440.32 871.982 3441.59 871.982 3442.78 871.982 3443.83 871.674 3444.72 871.058 3445.61 870.443 3446.35 869.485 3446.94 868.184 3447.53 866.884 3447.97 865.235 3448.26 863.24 3448.56 861.244 3448.71 858.886 3448.71 856.166 3448.71 853.108 3448.55 850.477 3448.22 848.273 3447.89 846.069 3447.43 844.257 3446.84 842.837 3446.24 841.417 3445.49 840.37 3444.59 839.695 3443.68 839.02 3442.65 838.682 3441.47 838.682ZM3441.59 835.793C3443.96 835.793 3445.98 836.235 3447.65 837.118 3449.33 838.002 3450.7 839.263 3451.76 840.901 3452.83 842.539 3453.61 844.54 3454.1 846.903 3454.6 849.266 3454.85 851.936 3454.85 854.915 3454.85 861.527 3453.68 866.526 3451.33 869.912 3448.99 873.297 3445.59 874.99 3441.15 874.99 3436.74 874.99 3433.46 873.392 3431.32 870.195 3429.17 866.998 3428.1 862.153 3428.1 855.66 3428.1 852.264 3428.43 849.325 3429.1 846.843 3429.76 844.361 3430.7 842.301 3431.9 840.663 3433.1 839.025 3434.52 837.803 3436.17 836.999 3437.82 836.195 3439.63 835.793 3441.59 835.793Z" fill="#F8F8F8" fill-rule="evenodd"/><text fill="#000000" fill-opacity="0" font-family="Arial,Arial_MSFontService,sans-serif" font-size="39.1973" x="3428.1" y="870.09">0</text><path d="M3508.63 807.753 3514.39 807.753 3514.39 831.097 3536.48 831.097 3536.48 836.487 3514.39 836.487 3514.39 859.831 3508.63 859.831 3508.63 836.487 3486.55 836.487 3486.55 831.097 3508.63 831.097Z" fill="#F8F8F8" fill-rule="evenodd"/><text fill="#000000" fill-opacity="0" font-family="Arial,Arial_MSFontService,sans-serif" font-size="52.0776" x="3486.55" y="853.321">+</text><path d="M3585.4 810.509 3569.96 851.036 3598.16 851.036ZM3583.98 801.553 3589.98 801.553 3607.08 854.927 3607.08 857.521 3562.78 857.521 3562.78 854.927Z" fill="#F8F8F8" fill-rule="evenodd"/><text fill="#000000" fill-opacity="0" font-family="Arial,Arial_MSFontService,sans-serif" font-size="55.9683" x="3562.78" y="850.525">Δ</text><path d="M3615.86 802.201 3658.17 802.201 3655.01 816.467 3651.12 816.467C3651.12 813.846 3651.05 811.88 3650.92 810.57 3650.78 809.26 3650.53 808.26 3650.15 807.571 3649.77 806.882 3649.3 806.409 3648.75 806.152 3648.2 805.896 3647.22 805.767 3645.81 805.767L3639.81 805.767 3631.02 845.727C3630.78 846.781 3630.61 847.619 3630.51 848.24 3630.42 848.862 3630.34 849.517 3630.27 850.206 3630.2 850.895 3630.17 851.509 3630.17 852.05 3630.17 852.887 3630.3 853.542 3630.57 854.015 3630.84 854.488 3631.25 854.833 3631.79 855.049 3632.33 855.265 3633.26 855.427 3634.59 855.535L3634.14 857.521 3617.08 857.521 3617.52 855.535C3618.61 855.373 3619.4 855.157 3619.92 854.887 3620.43 854.616 3620.88 854.198 3621.27 853.63 3621.67 853.063 3622.06 852.171 3622.45 850.955 3622.84 849.74 3623.31 847.902 3623.85 845.444L3632.52 805.767 3627.37 805.767C3625.7 805.767 3624.36 806.011 3623.36 806.497 3622.36 806.983 3621.36 807.888 3620.36 809.212 3619.36 810.536 3618.15 812.752 3616.71 815.859L3612.82 815.859Z" fill="#F8F8F8" fill-rule="evenodd"/><text fill="#000000" fill-opacity="0" font-family="Arial,Arial_MSFontService,sans-serif" font-size="55.3198" x="3612.82" y="850.606">𝑇</text><text fill="#F8F8F8" font-family="Yu Gothic Medium,Yu Gothic Medium_MSFontService,sans-serif" font-weight="500" font-size="83" transform="matrix(1 0 0 1 3444.23 1053)">流速</text><text fill="#F8F8F8" font-family="Yu Gothic Medium,Yu Gothic Medium_MSFontService,sans-serif" font-weight="500" font-size="83" transform="matrix(1 0 0 1 3444.23 1152)">圧力</text><rect x="514" y="1645" width="488" height="482" stroke="#3E9288" stroke-width="13.75" stroke-miterlimit="8" fill="#3E9288"/><path d="M727.945 1663.76 733.538 1663.76 731.309 1673.77 743.629 1673.77 742.737 1677.87 730.417 1677.87 726.81 1693.59C726.108 1696.65 725.662 1698.84 725.473 1700.18 725.283 1701.52 725.189 1702.59 725.189 1703.4 725.189 1706.75 726.58 1708.43 729.363 1708.43 730.552 1708.43 731.815 1707.97 733.153 1707.07 734.49 1706.16 736.077 1704.62 737.914 1702.43L740.265 1704.86C737.914 1707.7 735.652 1709.79 733.477 1711.14 731.302 1712.49 729.026 1713.17 726.648 1713.17 721.001 1713.17 718.178 1710.32 718.178 1704.62 718.178 1702.81 718.407 1700.9 718.867 1698.9L723.649 1677.87 716.84 1677.87 717.448 1675.07C719.042 1675.04 720.251 1674.92 721.075 1674.71 721.899 1674.49 722.588 1674.19 723.142 1673.81 723.696 1673.44 724.203 1672.9 724.662 1672.19 725.121 1671.49 725.567 1670.59 725.999 1669.5 726.432 1668.4 727.08 1666.49 727.945 1663.76Z" fill="#F8F8F8" fill-rule="evenodd"/><text fill="#000000" fill-opacity="0" font-family="Arial,Arial_MSFontService,sans-serif" font-size="49.4028" x="716.84" y="1706.99">𝑡</text><path d="M761.203 1693.68C759.813 1693.68 758.651 1694.04 757.718 1694.77 756.785 1695.49 756.045 1696.55 755.499 1697.95 754.953 1699.35 754.566 1701.06 754.337 1703.08 754.109 1705.09 753.995 1707.38 753.995 1709.94 753.995 1712.9 754.139 1715.46 754.427 1717.61 754.715 1719.77 755.161 1721.54 755.767 1722.93 756.373 1724.32 757.132 1725.34 758.046 1726 758.959 1726.65 760.051 1726.98 761.322 1726.98 762.513 1726.98 763.556 1726.67 764.449 1726.06 765.343 1725.44 766.083 1724.48 766.668 1723.18 767.254 1721.88 767.696 1720.23 767.994 1718.24 768.292 1716.24 768.441 1713.88 768.441 1711.16 768.441 1708.11 768.277 1705.47 767.949 1703.27 767.622 1701.07 767.16 1699.25 766.564 1697.83 765.968 1696.41 765.219 1695.37 764.315 1694.69 763.412 1694.02 762.374 1693.68 761.203 1693.68ZM761.322 1690.79C763.685 1690.79 765.705 1691.23 767.383 1692.12 769.061 1693 770.431 1694.26 771.494 1695.9 772.556 1697.54 773.335 1699.54 773.832 1701.9 774.328 1704.26 774.576 1706.93 774.576 1709.91 774.576 1716.52 773.405 1721.52 771.062 1724.91 768.719 1728.3 765.323 1729.99 760.875 1729.99 756.467 1729.99 753.191 1728.39 751.046 1725.19 748.902 1722 747.829 1717.15 747.829 1710.66 747.829 1707.26 748.162 1704.32 748.827 1701.84 749.492 1699.36 750.426 1697.3 751.627 1695.66 752.828 1694.02 754.253 1692.8 755.901 1692 757.549 1691.19 759.356 1690.79 761.322 1690.79Z" fill="#F8F8F8" fill-rule="evenodd"/><text fill="#000000" fill-opacity="0" font-family="Arial,Arial_MSFontService,sans-serif" font-size="39.1973" x="747.829" y="1725.09">0</text><rect x="620" y="1751" width="488" height="482" stroke="#3E9288" stroke-width="13.75" stroke-miterlimit="8" fill="#3E9288"/><path d="M734.301 1770.27 739.893 1770.27 737.664 1780.28 749.985 1780.28 749.093 1784.37 736.773 1784.37 733.166 1800.09C732.463 1803.15 732.018 1805.34 731.828 1806.68 731.639 1808.02 731.545 1809.09 731.545 1809.9 731.545 1813.25 732.936 1814.93 735.719 1814.93 736.908 1814.93 738.171 1814.47 739.508 1813.57 740.846 1812.66 742.433 1811.12 744.27 1808.93L746.621 1811.36C744.27 1814.2 742.008 1816.29 739.833 1817.64 737.658 1818.99 735.381 1819.67 733.004 1819.67 727.357 1819.67 724.534 1816.82 724.534 1811.12 724.534 1809.31 724.763 1807.4 725.222 1805.4L730.005 1784.37 723.196 1784.37 723.804 1781.57C725.398 1781.55 726.607 1781.42 727.431 1781.21 728.255 1780.99 728.944 1780.69 729.498 1780.32 730.052 1779.94 730.559 1779.4 731.018 1778.69 731.477 1777.99 731.923 1777.09 732.355 1776 732.788 1774.91 733.436 1772.99 734.301 1770.27Z" fill="#F8F8F8" fill-rule="evenodd"/><text fill="#000000" fill-opacity="0" font-family="Arial,Arial_MSFontService,sans-serif" font-size="49.4028" x="723.196" y="1813.49">𝑡</text><path d="M767.559 1800.18C766.169 1800.18 765.007 1800.54 764.074 1801.27 763.141 1801.99 762.401 1803.06 761.855 1804.45 761.309 1805.85 760.922 1807.56 760.693 1809.58 760.465 1811.59 760.351 1813.88 760.351 1816.44 760.351 1819.4 760.495 1821.96 760.783 1824.11 761.07 1826.27 761.517 1828.04 762.123 1829.43 762.729 1830.82 763.488 1831.84 764.401 1832.5 765.315 1833.15 766.407 1833.48 767.678 1833.48 768.869 1833.48 769.912 1833.17 770.805 1832.56 771.699 1831.94 772.439 1830.98 773.024 1829.68 773.61 1828.38 774.052 1826.73 774.35 1824.74 774.648 1822.74 774.797 1820.39 774.797 1817.66 774.797 1814.61 774.633 1811.98 774.305 1809.77 773.977 1807.57 773.516 1805.76 772.92 1804.34 772.324 1802.92 771.575 1801.87 770.671 1801.19 769.768 1800.52 768.73 1800.18 767.559 1800.18ZM767.678 1797.29C770.041 1797.29 772.061 1797.73 773.739 1798.62 775.417 1799.5 776.787 1800.76 777.849 1802.4 778.912 1804.04 779.691 1806.04 780.188 1808.4 780.684 1810.76 780.932 1813.44 780.932 1816.41 780.932 1823.03 779.761 1828.02 777.418 1831.41 775.075 1834.8 771.679 1836.49 767.231 1836.49 762.823 1836.49 759.547 1834.89 757.402 1831.69 755.257 1828.5 754.185 1823.65 754.185 1817.16 754.185 1813.76 754.518 1810.82 755.183 1808.34 755.848 1805.86 756.781 1803.8 757.983 1802.16 759.184 1800.52 760.609 1799.3 762.257 1798.5 763.905 1797.69 765.712 1797.29 767.678 1797.29Z" fill="#F8F8F8" fill-rule="evenodd"/><text fill="#000000" fill-opacity="0" font-family="Arial,Arial_MSFontService,sans-serif" font-size="39.1973" x="754.185" y="1831.59">0</text><path d="M834.718 1769.25 840.473 1769.25 840.473 1792.6 862.56 1792.6 862.56 1797.99 840.473 1797.99 840.473 1821.33 834.718 1821.33 834.718 1797.99 812.63 1797.99 812.63 1792.6 834.718 1792.6Z" fill="#F8F8F8" fill-rule="evenodd"/><text fill="#000000" fill-opacity="0" font-family="Arial,Arial_MSFontService,sans-serif" font-size="52.0776" x="812.63" y="1814.82">+</text><path d="M911.481 1772.01 896.04 1812.54 924.247 1812.54ZM910.063 1763.05 916.061 1763.05 933.164 1816.43 933.164 1819.02 888.867 1819.02 888.867 1816.43Z" fill="#F8F8F8" fill-rule="evenodd"/><text fill="#000000" fill-opacity="0" font-family="Arial,Arial_MSFontService,sans-serif" font-size="55.9683" x="888.867" y="1812.02">Δ</text><path d="M941.948 1763.7 984.258 1763.7 981.097 1777.97 977.206 1777.97C977.206 1775.34 977.139 1773.38 977.004 1772.07 976.869 1770.76 976.612 1769.76 976.234 1769.07 975.855 1768.38 975.389 1767.91 974.836 1767.65 974.282 1767.39 973.302 1767.27 971.897 1767.27L965.899 1767.27 957.105 1807.23C956.862 1808.28 956.693 1809.12 956.598 1809.74 956.504 1810.36 956.423 1811.02 956.355 1811.7 956.287 1812.39 956.254 1813.01 956.254 1813.55 956.254 1814.39 956.389 1815.04 956.659 1815.51 956.929 1815.99 957.334 1816.33 957.875 1816.55 958.415 1816.76 959.347 1816.93 960.671 1817.03L960.225 1819.02 943.163 1819.02 943.609 1817.03C944.69 1816.87 945.487 1816.66 946 1816.39 946.514 1816.12 946.966 1815.7 947.358 1815.13 947.75 1814.56 948.141 1813.67 948.533 1812.45 948.925 1811.24 949.391 1809.4 949.931 1806.94L958.604 1767.27 953.457 1767.27C951.782 1767.27 950.445 1767.51 949.445 1768 948.445 1768.48 947.446 1769.39 946.446 1770.71 945.446 1772.03 944.231 1774.25 942.799 1777.36L938.908 1777.36Z" fill="#F8F8F8" fill-rule="evenodd"/><text fill="#000000" fill-opacity="0" font-family="Arial,Arial_MSFontService,sans-serif" font-size="55.3198" x="938.908" y="1812.1">𝑇</text><rect x="721" y="1854" width="488" height="482" stroke="#3E9288" stroke-width="13.75" stroke-miterlimit="8" fill="#3E9288"/><text fill="#F8F8F8" font-family="Segoe UI,Segoe UI_MSFontService,sans-serif" font-weight="400" font-size="83" transform="matrix(1 0 0 1 934.951 1922)">…</text><text fill="#F8F8F8" font-family="Yu Gothic Medium,Yu Gothic Medium_MSFontService,sans-serif" font-weight="500" font-size="83" transform="matrix(1 0 0 1 882.815 2117)">流速</text><text fill="#F8F8F8" font-family="Yu Gothic Medium,Yu Gothic Medium_MSFontService,sans-serif" font-weight="500" font-size="83" transform="matrix(1 0 0 1 882.815 2216)">圧力</text><rect x="3245" y="1645" width="488" height="482" stroke="#3E9288" stroke-width="13.75" stroke-miterlimit="8" fill="#3E9288"/><path d="M3359.32 1663.76 3364.91 1663.76 3362.69 1673.77 3375.01 1673.77 3374.11 1677.87 3361.79 1677.87 3358.19 1693.59C3357.48 1696.65 3357.04 1698.84 3356.85 1700.18 3356.66 1701.52 3356.57 1702.59 3356.57 1703.4 3356.57 1706.75 3357.96 1708.43 3360.74 1708.43 3361.93 1708.43 3363.19 1707.97 3364.53 1707.07 3365.87 1706.16 3367.45 1704.62 3369.29 1702.43L3371.64 1704.86C3369.29 1707.7 3367.03 1709.79 3364.85 1711.14 3362.68 1712.49 3360.4 1713.17 3358.03 1713.17 3352.38 1713.17 3349.55 1710.32 3349.55 1704.62 3349.55 1702.81 3349.78 1700.9 3350.24 1698.9L3355.03 1677.87 3348.22 1677.87 3348.83 1675.07C3350.42 1675.04 3351.63 1674.92 3352.45 1674.71 3353.28 1674.49 3353.97 1674.19 3354.52 1673.81 3355.07 1673.44 3355.58 1672.9 3356.04 1672.19 3356.5 1671.49 3356.94 1670.59 3357.38 1669.5 3357.81 1668.4 3358.46 1666.49 3359.32 1663.76Z" fill="#F8F8F8" fill-rule="evenodd"/><text fill="#000000" fill-opacity="0" font-family="Arial,Arial_MSFontService,sans-serif" font-size="49.4028" x="3348.22" y="1706.99">𝑡</text><path d="M3392.58 1693.68C3391.19 1693.68 3390.03 1694.04 3389.1 1694.77 3388.16 1695.49 3387.42 1696.55 3386.88 1697.95 3386.33 1699.35 3385.94 1701.06 3385.71 1703.08 3385.49 1705.09 3385.37 1707.38 3385.37 1709.94 3385.37 1712.9 3385.52 1715.46 3385.8 1717.61 3386.09 1719.77 3386.54 1721.54 3387.14 1722.93 3387.75 1724.32 3388.51 1725.34 3389.42 1726 3390.34 1726.65 3391.43 1726.98 3392.7 1726.98 3393.89 1726.98 3394.93 1726.67 3395.83 1726.06 3396.72 1725.44 3397.46 1724.48 3398.05 1723.18 3398.63 1721.88 3399.07 1720.23 3399.37 1718.24 3399.67 1716.24 3399.82 1713.88 3399.82 1711.16 3399.82 1708.11 3399.65 1705.47 3399.33 1703.27 3399 1701.07 3398.54 1699.25 3397.94 1697.83 3397.35 1696.41 3396.6 1695.37 3395.69 1694.69 3394.79 1694.02 3393.75 1693.68 3392.58 1693.68ZM3392.7 1690.79C3395.06 1690.79 3397.08 1691.23 3398.76 1692.12 3400.44 1693 3401.81 1694.26 3402.87 1695.9 3403.93 1697.54 3404.71 1699.54 3405.21 1701.9 3405.71 1704.26 3405.95 1706.93 3405.95 1709.91 3405.95 1716.52 3404.78 1721.52 3402.44 1724.91 3400.1 1728.3 3396.7 1729.99 3392.25 1729.99 3387.84 1729.99 3384.57 1728.39 3382.42 1725.19 3380.28 1722 3379.21 1717.15 3379.21 1710.66 3379.21 1707.26 3379.54 1704.32 3380.2 1701.84 3380.87 1699.36 3381.8 1697.3 3383 1695.66 3384.21 1694.02 3385.63 1692.8 3387.28 1692 3388.93 1691.19 3390.73 1690.79 3392.7 1690.79Z" fill="#F8F8F8" fill-rule="evenodd"/><text fill="#000000" fill-opacity="0" font-family="Arial,Arial_MSFontService,sans-serif" font-size="39.1973" x="3379.21" y="1725.09">0</text><path d="M3459.74 1662.75 3465.49 1662.75 3465.49 1686.09 3487.58 1686.09 3487.58 1691.48 3465.49 1691.48 3465.49 1714.83 3459.74 1714.83 3459.74 1691.48 3437.65 1691.48 3437.65 1686.09 3459.74 1686.09Z" fill="#F8F8F8" fill-rule="evenodd"/><text fill="#000000" fill-opacity="0" font-family="Arial,Arial_MSFontService,sans-serif" font-size="52.0776" x="3437.65" y="1708.32">+</text><path d="M3536.5 1665.51 3521.06 1706.03 3549.27 1706.03ZM3535.08 1656.55 3541.08 1656.55 3558.18 1709.92 3558.18 1712.52 3513.89 1712.52 3513.89 1709.92Z" fill="#F8F8F8" fill-rule="evenodd"/><text fill="#000000" fill-opacity="0" font-family="Arial,Arial_MSFontService,sans-serif" font-size="55.9683" x="3513.89" y="1705.52">Δ</text><path d="M3566.97 1657.2 3609.28 1657.2 3606.12 1671.46 3602.23 1671.46C3602.23 1668.84 3602.16 1666.88 3602.03 1665.57 3601.89 1664.26 3601.63 1663.26 3601.26 1662.57 3600.88 1661.88 3600.41 1661.41 3599.86 1661.15 3599.3 1660.89 3598.32 1660.77 3596.92 1660.77L3590.92 1660.77 3582.13 1700.73C3581.88 1701.78 3581.71 1702.62 3581.62 1703.24 3581.53 1703.86 3581.44 1704.51 3581.38 1705.2 3581.31 1705.89 3581.28 1706.51 3581.28 1707.05 3581.28 1707.88 3581.41 1708.54 3581.68 1709.01 3581.95 1709.49 3582.36 1709.83 3582.9 1710.05 3583.44 1710.26 3584.37 1710.42 3585.69 1710.53L3585.25 1712.52 3568.18 1712.52 3568.63 1710.53C3569.71 1710.37 3570.51 1710.15 3571.02 1709.88 3571.54 1709.61 3571.99 1709.2 3572.38 1708.63 3572.77 1708.06 3573.16 1707.17 3573.55 1705.95 3573.95 1704.74 3574.41 1702.9 3574.95 1700.44L3583.63 1660.77 3578.48 1660.77C3576.8 1660.77 3575.47 1661.01 3574.47 1661.49 3573.47 1661.98 3572.47 1662.89 3571.47 1664.21 3570.47 1665.53 3569.25 1667.75 3567.82 1670.86L3563.93 1670.86Z" fill="#F8F8F8" fill-rule="evenodd"/><text fill="#000000" fill-opacity="0" font-family="Arial,Arial_MSFontService,sans-serif" font-size="55.3198" x="3563.93" y="1705.6">𝑇</text><rect x="3351" y="1751" width="488" height="482" stroke="#3E9288" stroke-width="13.75" stroke-miterlimit="8" fill="#3E9288"/><path d="M3442.21 1770.27 3447.8 1770.27 3445.57 1780.28 3457.89 1780.28 3457 1784.37 3444.68 1784.37 3441.07 1800.09C3440.37 1803.15 3439.93 1805.34 3439.74 1806.68 3439.55 1808.02 3439.45 1809.09 3439.45 1809.9 3439.45 1813.25 3440.84 1814.93 3443.63 1814.93 3444.82 1814.93 3446.08 1814.47 3447.42 1813.57 3448.75 1812.66 3450.34 1811.12 3452.18 1808.93L3454.53 1811.36C3452.18 1814.2 3449.92 1816.29 3447.74 1817.64 3445.57 1818.99 3443.29 1819.67 3440.91 1819.67 3435.26 1819.67 3432.44 1816.82 3432.44 1811.12 3432.44 1809.31 3432.67 1807.4 3433.13 1805.4L3437.91 1784.37 3431.1 1784.37 3431.71 1781.57C3433.31 1781.55 3434.51 1781.42 3435.34 1781.21 3436.16 1780.99 3436.85 1780.69 3437.41 1780.32 3437.96 1779.94 3438.47 1779.4 3438.93 1778.69 3439.38 1777.99 3439.83 1777.09 3440.26 1776 3440.7 1774.91 3441.34 1772.99 3442.21 1770.27Z" fill="#F8F8F8" fill-rule="evenodd"/><text fill="#000000" fill-opacity="0" font-family="Arial,Arial_MSFontService,sans-serif" font-size="49.4028" x="3431.1" y="1813.49">𝑡</text><path d="M3475.47 1800.18C3474.08 1800.18 3472.91 1800.54 3471.98 1801.27 3471.05 1801.99 3470.31 1803.06 3469.76 1804.45 3469.22 1805.85 3468.83 1807.56 3468.6 1809.58 3468.37 1811.59 3468.26 1813.88 3468.26 1816.44 3468.26 1819.4 3468.4 1821.96 3468.69 1824.11 3468.98 1826.27 3469.42 1828.04 3470.03 1829.43 3470.64 1830.82 3471.4 1831.84 3472.31 1832.5 3473.22 1833.15 3474.31 1833.48 3475.59 1833.48 3476.78 1833.48 3477.82 1833.17 3478.71 1832.56 3479.61 1831.94 3480.35 1830.98 3480.93 1829.68 3481.52 1828.38 3481.96 1826.73 3482.26 1824.74 3482.56 1822.74 3482.7 1820.39 3482.7 1817.66 3482.7 1814.61 3482.54 1811.98 3482.21 1809.77 3481.89 1807.57 3481.42 1805.76 3480.83 1804.34 3480.23 1802.92 3479.48 1801.87 3478.58 1801.19 3477.68 1800.52 3476.64 1800.18 3475.47 1800.18ZM3475.59 1797.29C3477.95 1797.29 3479.97 1797.73 3481.65 1798.62 3483.32 1799.5 3484.69 1800.76 3485.76 1802.4 3486.82 1804.04 3487.6 1806.04 3488.1 1808.4 3488.59 1810.76 3488.84 1813.44 3488.84 1816.41 3488.84 1823.03 3487.67 1828.02 3485.33 1831.41 3482.98 1834.8 3479.59 1836.49 3475.14 1836.49 3470.73 1836.49 3467.45 1834.89 3465.31 1831.69 3463.17 1828.5 3462.09 1823.65 3462.09 1817.16 3462.09 1813.76 3462.43 1810.82 3463.09 1808.34 3463.76 1805.86 3464.69 1803.8 3465.89 1802.16 3467.09 1800.52 3468.52 1799.3 3470.16 1798.5 3471.81 1797.69 3473.62 1797.29 3475.59 1797.29Z" fill="#F8F8F8" fill-rule="evenodd"/><text fill="#000000" fill-opacity="0" font-family="Arial,Arial_MSFontService,sans-serif" font-size="39.1973" x="3462.09" y="1831.59">0</text><path d="M3542.63 1769.25 3548.38 1769.25 3548.38 1792.6 3570.47 1792.6 3570.47 1797.99 3548.38 1797.99 3548.38 1821.33 3542.63 1821.33 3542.63 1797.99 3520.54 1797.99 3520.54 1792.6 3542.63 1792.6Z" fill="#F8F8F8" fill-rule="evenodd"/><text fill="#000000" fill-opacity="0" font-family="Arial,Arial_MSFontService,sans-serif" font-size="52.0776" x="3520.54" y="1814.82">+</text><path d="M3618.01 1763.05C3623.04 1763.05 3626.83 1764.15 3629.4 1766.35 3631.97 1768.56 3633.25 1771.75 3633.25 1775.94 3633.25 1777.37 3633.11 1778.69 3632.82 1779.89 3632.54 1781.09 3632.09 1782.28 3631.49 1783.46 3630.88 1784.63 3630.06 1785.9 3629.03 1787.25 3628.01 1788.6 3626.87 1789.97 3625.63 1791.36 3624.39 1792.75 3622.24 1795.07 3619.19 1798.31 3614.05 1803.74 3610.28 1808.48 3607.88 1812.54L3623.16 1812.54C3624.48 1812.54 3625.55 1812.45 3626.36 1812.29 3627.17 1812.13 3627.82 1811.86 3628.3 1811.48 3628.79 1811.1 3629.18 1810.61 3629.46 1810 3629.74 1809.39 3630.1 1808.46 3630.53 1807.19L3633.98 1807.19 3633.29 1819.02 3599.94 1819.02 3599.94 1817.07C3601.1 1814.24 3602.66 1811.33 3604.64 1808.36 3606.61 1805.39 3609.41 1801.89 3613.03 1797.86 3616.16 1794.41 3618.42 1791.79 3619.79 1790 3621.31 1788.06 3622.44 1786.37 3623.18 1784.96 3623.92 1783.54 3624.45 1782.2 3624.78 1780.94 3625.1 1779.69 3625.27 1778.42 3625.27 1777.15 3625.27 1775.13 3624.94 1773.34 3624.29 1771.79 3623.64 1770.23 3622.65 1769.01 3621.31 1768.12 3619.98 1767.23 3618.29 1766.78 3616.27 1766.78 3611.22 1766.78 3607.81 1769.59 3606.06 1775.21L3601.15 1775.21 3601.15 1767.43C3604.42 1765.89 3607.48 1764.77 3610.33 1764.08 3613.18 1763.4 3615.74 1763.05 3618.01 1763.05Z" fill="#F8F8F8" fill-rule="evenodd"/><text fill="#000000" fill-opacity="0" font-family="Arial,Arial_MSFontService,sans-serif" font-size="55.9683" x="3599.94" y="1812.02">2</text><path d="M3665.22 1772.01 3649.78 1812.54 3677.99 1812.54ZM3663.8 1763.05 3669.8 1763.05 3686.9 1816.43 3686.9 1819.02 3642.61 1819.02 3642.61 1816.43Z" fill="#F8F8F8" fill-rule="evenodd"/><text fill="#000000" fill-opacity="0" font-family="Arial,Arial_MSFontService,sans-serif" font-size="55.9683" x="3642.61" y="1812.02">Δ</text><path d="M3695.69 1763.7 3738 1763.7 3734.84 1777.97 3730.95 1777.97C3730.95 1775.34 3730.88 1773.38 3730.74 1772.07 3730.61 1770.76 3730.35 1769.76 3729.97 1769.07 3729.6 1768.38 3729.13 1767.91 3728.58 1767.65 3728.02 1767.39 3727.04 1767.27 3725.64 1767.27L3719.64 1767.27 3710.85 1807.23C3710.6 1808.28 3710.43 1809.12 3710.34 1809.74 3710.24 1810.36 3710.16 1811.02 3710.1 1811.7 3710.03 1812.39 3709.99 1813.01 3709.99 1813.55 3709.99 1814.39 3710.13 1815.04 3710.4 1815.51 3710.67 1815.99 3711.08 1816.33 3711.62 1816.55 3712.16 1816.76 3713.09 1816.93 3714.41 1817.03L3713.97 1819.02 3696.9 1819.02 3697.35 1817.03C3698.43 1816.87 3699.23 1816.66 3699.74 1816.39 3700.25 1816.12 3700.71 1815.7 3701.1 1815.13 3701.49 1814.56 3701.88 1813.67 3702.27 1812.45 3702.67 1811.24 3703.13 1809.4 3703.67 1806.94L3712.35 1767.27 3707.2 1767.27C3705.52 1767.27 3704.19 1767.51 3703.19 1768 3702.19 1768.48 3701.19 1769.39 3700.19 1770.71 3699.19 1772.03 3697.97 1774.25 3696.54 1777.36L3692.65 1777.36Z" fill="#F8F8F8" fill-rule="evenodd"/><text fill="#000000" fill-opacity="0" font-family="Arial,Arial_MSFontService,sans-serif" font-size="55.3198" x="3692.65" y="1812.1">𝑇</text><rect x="3452" y="1854" width="488" height="482" stroke="#3E9288" stroke-width="13.75" stroke-miterlimit="8" fill="#3E9288"/><text fill="#F8F8F8" font-family="Segoe UI,Segoe UI_MSFontService,sans-serif" font-weight="400" font-size="83" transform="matrix(1 0 0 1 3665.78 1927)">…</text><text fill="#F8F8F8" font-family="Yu Gothic Medium,Yu Gothic Medium_MSFontService,sans-serif" font-weight="500" font-size="83" transform="matrix(1 0 0 1 3613.64 2122)">流速</text><text fill="#F8F8F8" font-family="Yu Gothic Medium,Yu Gothic Medium_MSFontService,sans-serif" font-weight="500" font-size="83" transform="matrix(1 0 0 1 3613.64 2221)">圧力</text><text fill="#4D4D4D" font-family="Segoe UI,Segoe UI_MSFontService,sans-serif" font-weight="400" font-size="83" transform="matrix(1 0 0 1 2159.04 1436)">(a)</text><text fill="#4D4D4D" font-family="Segoe UI,Segoe UI_MSFontService,sans-serif" font-weight="400" font-size="83" transform="matrix(1 0 0 1 2155.6 2432)">(b)</text></g></svg>